<ttFont>
    <TTGlyph name=".notdef" xMin="193" yMin="0" xMax="1034" yMax="1462">
      <contour>
        <pt x="193" y="1462" on="1"/>
        <pt x="1034" y="1462" on="1"/>
        <pt x="1034" y="0" on="1"/>
        <pt x="193" y="0" on="1"/>
      </contour>
      <contour>
        <pt x="297" y="104" on="1"/>
        <pt x="930" y="104" on="1"/>
        <pt x="930" y="1358" on="1"/>
        <pt x="297" y="1358" on="1"/>
      </contour>
    </TTGlyph>
    <TTGlyph name="A" xMin="0" yMin="0" xMax="1413" yMax="1468">
      <contour>
        <pt x="1079" y="0" on="1"/>
        <pt x="973" y="348" on="1"/>
        <pt x="440" y="348" on="1"/>
        <pt x="334" y="0" on="1"/>
        <pt x="0" y="0" on="1"/>
        <pt x="516" y="1468" on="1"/>
        <pt x="895" y="1468" on="1"/>
        <pt x="1413" y="0" on="1"/>
      </contour>
      <contour>
        <pt x="899" y="608" on="1"/>
        <pt x="752" y="1081" on="0"/>
        <pt x="715" y="1205" on="0"/>
        <pt x="707" y="1241" on="1"/>
        <pt x="674" y="1113" on="0"/>
        <pt x="518" y="608" on="1"/>
      </contour>
    </TTGlyph>
    <TTGlyph name="AE" xMin="0" yMin="0" xMax="1829" yMax="1462">
      <contour>
        <pt x="1829" y="0" on="1"/>
        <pt x="956" y="0" on="1"/>
        <pt x="956" y="348" on="1"/>
        <pt x="465" y="348" on="1"/>
        <pt x="315" y="0" on="1"/>
        <pt x="0" y="0" on="1"/>
        <pt x="655" y="1462" on="1"/>
        <pt x="1829" y="1462" on="1"/>
        <pt x="1829" y="1208" on="1"/>
        <pt x="1266" y="1208" on="1"/>
        <pt x="1266" y="887" on="1"/>
        <pt x="1792" y="887" on="1"/>
        <pt x="1792" y="633" on="1"/>
        <pt x="1266" y="633" on="1"/>
        <pt x="1266" y="256" on="1"/>
        <pt x="1829" y="256" on="1"/>
      </contour>
      <contour>
        <pt x="578" y="608" on="1"/>
        <pt x="956" y="608" on="1"/>
        <pt x="956" y="1198" on="1"/>
        <pt x="829" y="1198" on="1"/>
      </contour>
    </TTGlyph>
    <TTGlyph name="AEacute" xMin="0" yMin="0" xMax="1829" yMax="1907">
      <component glyphName="AE" x="0" y="0" flags="0x204"/>
      <component glyphName="acute" x="672" y="338" flags="0x4"/>
    </TTGlyph>
    <TTGlyph name="Aacute" xMin="0" yMin="0" xMax="1413" yMax="1907">
      <component glyphName="A" x="0" y="0" flags="0x204"/>
      <component glyphName="acute" x="209" y="338" flags="0x4"/>
    </TTGlyph>
    <TTGlyph name="Abreve" xMin="0" yMin="0" xMax="1413" yMax="1917">
      <component glyphName="A" x="0" y="0" flags="0x204"/>
      <component glyphName="breve" x="86" y="338" flags="0x4"/>
    </TTGlyph>
    <TTGlyph name="Acircumflex" xMin="0" yMin="0" xMax="1413" yMax="1907">
      <component glyphName="A" x="0" y="0" flags="0x204"/>
      <component glyphName="circumflex" x="86" y="338" flags="0x4"/>
    </TTGlyph>
    <TTGlyph name="Adieresis" xMin="0" yMin="0" xMax="1413" yMax="1878">
      <component glyphName="A" x="0" y="0" flags="0x204"/>
      <component glyphName="dieresis" x="86" y="338" flags="0x4"/>
    </TTGlyph>
    <TTGlyph name="Agrave" xMin="0" yMin="0" xMax="1413" yMax="1907">
      <component glyphName="A" x="0" y="0" flags="0x204"/>
      <component glyphName="grave" x="6" y="338" flags="0x4"/>
    </TTGlyph>
    <TTGlyph name="Alpha" xMin="0" yMin="0" xMax="1413" yMax="1468">
      <component glyphName="A" x="0" y="0" flags="0x204"/>
    </TTGlyph>
    <TTGlyph name="Alphatonos" xMin="-56" yMin="0" xMax="1413" yMax="1525">
      <component glyphName="A" x="0" y="0" flags="0x204"/>
      <component glyphName="tonos" x="-527" y="-105" flags="0x4"/>
    </TTGlyph>
    <TTGlyph name="Amacron" xMin="0" yMin="0" xMax="1413" yMax="1790">
      <component glyphName="A" x="0" y="0" flags="0x204"/>
      <component glyphName="uni02C9" x="88" y="338" flags="0x4"/>
    </TTGlyph>
    <TTGlyph name="Aogonek" xMin="0" yMin="-492" xMax="1413" yMax="1468">
      <component glyphName="A" x="0" y="0" flags="0x204"/>
      <component glyphName="ogonek" x="891" y="0" flags="0x4"/>
    </TTGlyph>
    <TTGlyph name="Aring" xMin="0" yMin="0" xMax="1413" yMax="1802">
      <contour>
        <pt x="958" y="1567" on="1"/>
        <pt x="958" y="1478" on="0"/>
        <pt x="911" y="1419" on="1"/>
        <pt x="1413" y="0" on="1"/>
        <pt x="1079" y="0" on="1"/>
        <pt x="973" y="348" on="1"/>
        <pt x="440" y="348" on="1"/>
        <pt x="334" y="0" on="1"/>
        <pt x="0" y="0" on="1"/>
        <pt x="500" y="1419" on="1"/>
        <pt x="457" y="1477" on="0"/>
        <pt x="457" y="1565" on="1"/>
        <pt x="457" y="1673" on="0"/>
        <pt x="592" y="1802" on="0"/>
        <pt x="705" y="1802" on="1"/>
        <pt x="814" y="1802" on="0"/>
        <pt x="958" y="1673" on="0"/>
      </contour>
      <contour>
        <pt x="899" y="608" on="1"/>
        <pt x="752" y="1081" on="0"/>
        <pt x="715" y="1205" on="0"/>
        <pt x="707" y="1241" on="1"/>
        <pt x="674" y="1113" on="0"/>
        <pt x="518" y="608" on="1"/>
      </contour>
      <contour>
        <pt x="801" y="1565" on="1"/>
        <pt x="801" y="1610" on="0"/>
        <pt x="747" y="1661" on="0"/>
        <pt x="705" y="1661" on="1"/>
        <pt x="663" y="1661" on="0"/>
        <pt x="608" y="1610" on="0"/>
        <pt x="608" y="1565" on="1"/>
        <pt x="608" y="1472" on="0"/>
        <pt x="705" y="1468" on="1"/>
        <pt x="747" y="1468" on="0"/>
        <pt x="801" y="1520" on="0"/>
      </contour>
    </TTGlyph>
    <TTGlyph name="Aringacute" xMin="0" yMin="0" xMax="1413" yMax="1962">
      <contour>
        <pt x="958" y="1462" on="1"/>
        <pt x="958" y="1377" on="0"/>
        <pt x="911" y="1315" on="1"/>
        <pt x="1413" y="0" on="1"/>
        <pt x="1081" y="0" on="1"/>
        <pt x="975" y="330" on="1"/>
        <pt x="440" y="330" on="1"/>
        <pt x="332" y="0" on="1"/>
        <pt x="0" y="0" on="1"/>
        <pt x="500" y="1315" on="1"/>
        <pt x="457" y="1373" on="0"/>
        <pt x="457" y="1460" on="1"/>
        <pt x="457" y="1570" on="0"/>
        <pt x="593" y="1698" on="0"/>
        <pt x="705" y="1698" on="1"/>
        <pt x="814" y="1698" on="0"/>
        <pt x="958" y="1569" on="0"/>
      </contour>
      <contour>
        <pt x="909" y="590" on="1"/>
        <pt x="807" y="879" on="1"/>
        <pt x="721" y="1109" on="0"/>
        <pt x="707" y="1178" on="1"/>
        <pt x="688" y="1107" on="0"/>
        <pt x="620" y="911" on="1"/>
        <pt x="508" y="590" on="1"/>
      </contour>
      <contour>
        <pt x="584" y="1753" on="1"/>
        <pt x="584" y="1769" on="1"/>
        <pt x="630" y="1811" on="0"/>
        <pt x="736" y="1931" on="0"/>
        <pt x="758" y="1962" on="1"/>
        <pt x="1100" y="1962" on="1"/>
        <pt x="1100" y="1950" on="1"/>
        <pt x="1077" y="1924" on="0"/>
        <pt x="894" y="1808" on="0"/>
        <pt x="786" y="1753" on="1"/>
      </contour>
      <contour>
        <pt x="801" y="1460" on="1"/>
        <pt x="801" y="1505" on="0"/>
        <pt x="747" y="1556" on="0"/>
        <pt x="705" y="1556" on="1"/>
        <pt x="663" y="1556" on="0"/>
        <pt x="608" y="1505" on="0"/>
        <pt x="608" y="1460" on="1"/>
        <pt x="608" y="1368" on="0"/>
        <pt x="694" y="1364" on="1"/>
        <pt x="713" y="1364" on="1"/>
        <pt x="751" y="1366" on="0"/>
        <pt x="801" y="1417" on="0"/>
      </contour>
    </TTGlyph>
    <TTGlyph name="Atilde" xMin="0" yMin="0" xMax="1413" yMax="1888">
      <component glyphName="A" x="0" y="0" flags="0x204"/>
      <component glyphName="tilde" x="86" y="338" flags="0x4"/>
    </TTGlyph>
    <TTGlyph name="B" xMin="184" yMin="0" xMax="1268" yMax="1462">
      <contour>
        <pt x="184" y="1462" on="1"/>
        <pt x="639" y="1462" on="1"/>
        <pt x="950" y="1462" on="0"/>
        <pt x="1231" y="1285" on="0"/>
        <pt x="1231" y="1092" on="1"/>
        <pt x="1231" y="961" on="0"/>
        <pt x="1108" y="793" on="0"/>
        <pt x="1006" y="776" on="1"/>
        <pt x="1006" y="766" on="1"/>
        <pt x="1145" y="735" on="0"/>
        <pt x="1268" y="565" on="0"/>
        <pt x="1268" y="424" on="1"/>
        <pt x="1268" y="224" on="0"/>
        <pt x="979" y="0" on="0"/>
        <pt x="731" y="0" on="1"/>
        <pt x="184" y="0" on="1"/>
      </contour>
      <contour>
        <pt x="494" y="883" on="1"/>
        <pt x="674" y="883" on="1"/>
        <pt x="800" y="883" on="0"/>
        <pt x="913" y="961" on="0"/>
        <pt x="913" y="1051" on="1"/>
        <pt x="913" y="1135" on="0"/>
        <pt x="790" y="1208" on="0"/>
        <pt x="657" y="1208" on="1"/>
        <pt x="494" y="1208" on="1"/>
      </contour>
      <contour>
        <pt x="494" y="637" on="1"/>
        <pt x="494" y="256" on="1"/>
        <pt x="696" y="256" on="1"/>
        <pt x="824" y="256" on="0"/>
        <pt x="946" y="354" on="0"/>
        <pt x="946" y="455" on="1"/>
        <pt x="946" y="637" on="0"/>
        <pt x="686" y="637" on="1"/>
      </contour>
    </TTGlyph>
    <TTGlyph name="Beta" xMin="184" yMin="0" xMax="1268" yMax="1462">
      <component glyphName="B" x="0" y="0" flags="0x204"/>
    </TTGlyph>
    <TTGlyph name="C" xMin="119" yMin="-20" xMax="1233" yMax="1483">
      <contour>
        <pt x="805" y="1225" on="1"/>
        <pt x="630" y="1225" on="0"/>
        <pt x="438" y="962" on="0"/>
        <pt x="438" y="727" on="1"/>
        <pt x="438" y="238" on="0"/>
        <pt x="805" y="238" on="1"/>
        <pt x="959" y="238" on="0"/>
        <pt x="1178" y="315" on="1"/>
        <pt x="1178" y="55" on="1"/>
        <pt x="998" y="-20" on="0"/>
        <pt x="776" y="-20" on="1"/>
        <pt x="457" y="-20" on="0"/>
        <pt x="119" y="367" on="0"/>
        <pt x="119" y="729" on="1"/>
        <pt x="119" y="957" on="0"/>
        <pt x="285" y="1300" on="0"/>
        <pt x="596" y="1483" on="0"/>
        <pt x="805" y="1483" on="1"/>
        <pt x="1018" y="1483" on="0"/>
        <pt x="1233" y="1380" on="1"/>
        <pt x="1133" y="1128" on="1"/>
        <pt x="1051" y="1167" on="0"/>
        <pt x="885" y="1225" on="0"/>
      </contour>
    </TTGlyph>
    <TTGlyph name="Cacute" xMin="119" yMin="-20" xMax="1233" yMax="1907">
      <component glyphName="C" x="0" y="0" flags="0x204"/>
      <component glyphName="acute" x="266" y="338" flags="0x4"/>
    </TTGlyph>
    <TTGlyph name="Ccaron" xMin="119" yMin="-20" xMax="1233" yMax="1907">
      <component glyphName="C" x="0" y="0" flags="0x204"/>
      <component glyphName="caron" x="172" y="338" flags="0x4"/>
    </TTGlyph>
    <TTGlyph name="Ccedilla" xMin="119" yMin="-492" xMax="1233" yMax="1483">
      <component glyphName="C" x="0" y="0" flags="0x204"/>
      <component glyphName="cedilla" x="541" y="0" flags="0x4"/>
    </TTGlyph>
    <TTGlyph name="Ccircumflex" xMin="119" yMin="-20" xMax="1233" yMax="1907">
      <component glyphName="C" x="0" y="0" flags="0x204"/>
      <component glyphName="circumflex" x="170" y="338" flags="0x4"/>
    </TTGlyph>
    <TTGlyph name="Cdotaccent" xMin="119" yMin="-20" xMax="1233" yMax="1894">
      <component glyphName="C" x="0" y="0" flags="0x204"/>
      <component glyphName="dotaccent" x="473" y="338" flags="0x4"/>
    </TTGlyph>
    <TTGlyph name="Chi" xMin="0" yMin="0" xMax="1366" yMax="1462">
      <component glyphName="X" x="0" y="0" flags="0x204"/>
    </TTGlyph>
    <TTGlyph name="D" xMin="184" yMin="0" xMax="1397" yMax="1462">
      <contour>
        <pt x="1397" y="745" on="1"/>
        <pt x="1397" y="384" on="0"/>
        <pt x="986" y="0" on="0"/>
        <pt x="598" y="0" on="1"/>
        <pt x="184" y="0" on="1"/>
        <pt x="184" y="1462" on="1"/>
        <pt x="643" y="1462" on="1"/>
        <pt x="1001" y="1462" on="0"/>
        <pt x="1397" y="1084" on="0"/>
      </contour>
      <contour>
        <pt x="1075" y="737" on="1"/>
        <pt x="1075" y="1208" on="0"/>
        <pt x="659" y="1208" on="1"/>
        <pt x="494" y="1208" on="1"/>
        <pt x="494" y="256" on="1"/>
        <pt x="627" y="256" on="1"/>
        <pt x="1075" y="256" on="0"/>
      </contour>
    </TTGlyph>
    <TTGlyph name="Dcaron" xMin="184" yMin="0" xMax="1397" yMax="1907">
      <component glyphName="D" x="0" y="0" flags="0x204"/>
      <component glyphName="caron" x="104" y="338" flags="0x4"/>
    </TTGlyph>
    <TTGlyph name="Dcroat" xMin="47" yMin="0" xMax="1397" yMax="1462">
      <component glyphName="Eth" x="0" y="0" flags="0x204"/>
    </TTGlyph>
    <TTGlyph name="Delta" xMin="57" yMin="0" xMax="1290" yMax="1468">
      <component glyphName="uni2206" x="0" y="0" flags="0x204"/>
    </TTGlyph>
    <TTGlyph name="E" xMin="184" yMin="0" xMax="1026" yMax="1462">
      <contour>
        <pt x="1026" y="0" on="1"/>
        <pt x="184" y="0" on="1"/>
        <pt x="184" y="1462" on="1"/>
        <pt x="1026" y="1462" on="1"/>
        <pt x="1026" y="1208" on="1"/>
        <pt x="494" y="1208" on="1"/>
        <pt x="494" y="887" on="1"/>
        <pt x="989" y="887" on="1"/>
        <pt x="989" y="633" on="1"/>
        <pt x="494" y="633" on="1"/>
        <pt x="494" y="256" on="1"/>
        <pt x="1026" y="256" on="1"/>
      </contour>
    </TTGlyph>
    <TTGlyph name="Eacute" xMin="184" yMin="0" xMax="1026" yMax="1907">
      <component glyphName="E" x="0" y="0" flags="0x204"/>
      <component glyphName="acute" x="92" y="338" flags="0x4"/>
    </TTGlyph>
    <TTGlyph name="Ebreve" xMin="184" yMin="0" xMax="1026" yMax="1917">
      <component glyphName="E" x="0" y="0" flags="0x204"/>
      <component glyphName="breve" x="-22" y="338" flags="0x4"/>
    </TTGlyph>
    <TTGlyph name="Ecaron" xMin="175" yMin="0" xMax="1044" yMax="1907">
      <component glyphName="E" x="0" y="0" flags="0x204"/>
      <component glyphName="caron" x="-11" y="338" flags="0x4"/>
    </TTGlyph>
    <TTGlyph name="Ecircumflex" xMin="175" yMin="0" xMax="1044" yMax="1907">
      <component glyphName="E" x="0" y="0" flags="0x204"/>
      <component glyphName="circumflex" x="-11" y="338" flags="0x4"/>
    </TTGlyph>
    <TTGlyph name="Edieresis" xMin="184" yMin="0" xMax="1026" yMax="1878">
      <component glyphName="E" x="0" y="0" flags="0x204"/>
      <component glyphName="dieresis" x="-7" y="338" flags="0x4"/>
    </TTGlyph>
    <TTGlyph name="Edotaccent" xMin="184" yMin="0" xMax="1026" yMax="1865">
      <component glyphName="E" x="0" y="0" flags="0x204"/>
      <component glyphName="dotaccent" x="303" y="309" flags="0x4"/>
    </TTGlyph>
    <TTGlyph name="Egrave" xMin="184" yMin="0" xMax="1026" yMax="1907">
      <component glyphName="E" x="0" y="0" flags="0x204"/>
      <component glyphName="grave" x="-73" y="338" flags="0x4"/>
    </TTGlyph>
    <TTGlyph name="Emacron" xMin="184" yMin="0" xMax="1026" yMax="1790">
      <component glyphName="E" x="0" y="0" flags="0x204"/>
      <component glyphName="uni02C9" x="-9" y="338" flags="0x4"/>
    </TTGlyph>
    <TTGlyph name="Eng" xMin="184" yMin="-430" xMax="1481" yMax="1462">
      <contour>
        <pt x="1016" y="-430" on="1"/>
        <pt x="902" y="-430" on="0"/>
        <pt x="819" y="-408" on="1"/>
        <pt x="819" y="-166" on="1"/>
        <pt x="912" y="-186" on="0"/>
        <pt x="985" y="-186" on="1"/>
        <pt x="1099" y="-186" on="0"/>
        <pt x="1205" y="-97" on="0"/>
        <pt x="1210" y="4" on="1"/>
        <pt x="451" y="1106" on="1"/>
        <pt x="442" y="1106" on="1"/>
        <pt x="461" y="813" on="0"/>
        <pt x="461" y="688" on="1"/>
        <pt x="461" y="0" on="1"/>
        <pt x="184" y="0" on="1"/>
        <pt x="184" y="1462" on="1"/>
        <pt x="575" y="1462" on="1"/>
        <pt x="1210" y="561" on="1"/>
        <pt x="1217" y="561" on="1"/>
        <pt x="1202" y="846" on="0"/>
        <pt x="1202" y="965" on="1"/>
        <pt x="1202" y="1462" on="1"/>
        <pt x="1481" y="1462" on="1"/>
        <pt x="1481" y="0" on="1"/>
        <pt x="1481" y="-207" on="0"/>
        <pt x="1240" y="-430" on="0"/>
      </contour>
    </TTGlyph>
    <TTGlyph name="Eogonek" xMin="184" yMin="-492" xMax="1026" yMax="1462">
      <component glyphName="E" x="0" y="0" flags="0x204"/>
      <component glyphName="ogonek" x="565" y="0" flags="0x4"/>
    </TTGlyph>
    <TTGlyph name="Epsilon" xMin="184" yMin="0" xMax="1026" yMax="1462">
      <component glyphName="E" x="0" y="0" flags="0x204"/>
    </TTGlyph>
    <TTGlyph name="Epsilontonos" xMin="-99" yMin="0" xMax="1169" yMax="1525">
      <component glyphName="E" x="143" y="0" flags="0x4"/>
      <component glyphName="tonos" x="-570" y="-105" flags="0x4"/>
    </TTGlyph>
    <TTGlyph name="Eta" xMin="184" yMin="0" xMax="1382" yMax="1462">
      <component glyphName="H" x="0" y="0" flags="0x204"/>
    </TTGlyph>
    <TTGlyph name="Etatonos" xMin="-99" yMin="0" xMax="1525" yMax="1525">
      <component glyphName="H" x="143" y="0" flags="0x4"/>
      <component glyphName="tonos" x="-570" y="-105" flags="0x4"/>
    </TTGlyph>
    <TTGlyph name="Eth" xMin="47" yMin="0" xMax="1397" yMax="1462">
      <contour>
        <pt x="47" y="850" on="1"/>
        <pt x="184" y="850" on="1"/>
        <pt x="184" y="1462" on="1"/>
        <pt x="643" y="1462" on="1"/>
        <pt x="1001" y="1462" on="0"/>
        <pt x="1397" y="1084" on="0"/>
        <pt x="1397" y="745" on="1"/>
        <pt x="1397" y="384" on="0"/>
        <pt x="986" y="0" on="0"/>
        <pt x="598" y="0" on="1"/>
        <pt x="184" y="0" on="1"/>
        <pt x="184" y="596" on="1"/>
        <pt x="47" y="596" on="1"/>
      </contour>
      <contour>
        <pt x="1075" y="737" on="1"/>
        <pt x="1075" y="969" on="0"/>
        <pt x="867" y="1208" on="0"/>
        <pt x="657" y="1208" on="1"/>
        <pt x="494" y="1208" on="1"/>
        <pt x="494" y="850" on="1"/>
        <pt x="731" y="850" on="1"/>
        <pt x="731" y="596" on="1"/>
        <pt x="494" y="596" on="1"/>
        <pt x="494" y="256" on="1"/>
        <pt x="625" y="256" on="1"/>
        <pt x="1075" y="256" on="0"/>
      </contour>
    </TTGlyph>
    <TTGlyph name="Euro" xMin="66" yMin="-20" xMax="1155" yMax="1473">
      <contour>
        <pt x="803" y="1225" on="1"/>
        <pt x="681" y="1225" on="0"/>
        <pt x="523" y="1084" on="0"/>
        <pt x="500" y="950" on="1"/>
        <pt x="903" y="950" on="1"/>
        <pt x="903" y="774" on="1"/>
        <pt x="485" y="774" on="1"/>
        <pt x="483" y="739" on="1"/>
        <pt x="483" y="692" on="1"/>
        <pt x="485" y="659" on="1"/>
        <pt x="840" y="659" on="1"/>
        <pt x="840" y="481" on="1"/>
        <pt x="502" y="481" on="1"/>
        <pt x="553" y="238" on="0"/>
        <pt x="823" y="238" on="1"/>
        <pt x="966" y="238" on="0"/>
        <pt x="1098" y="295" on="1"/>
        <pt x="1098" y="39" on="1"/>
        <pt x="982" y="-20" on="0"/>
        <pt x="805" y="-20" on="1"/>
        <pt x="560" y="-20" on="0"/>
        <pt x="244" y="246" on="0"/>
        <pt x="203" y="481" on="1"/>
        <pt x="66" y="481" on="1"/>
        <pt x="66" y="659" on="1"/>
        <pt x="184" y="659" on="1"/>
        <pt x="180" y="682" on="0"/>
        <pt x="180" y="721" on="1"/>
        <pt x="182" y="774" on="1"/>
        <pt x="66" y="774" on="1"/>
        <pt x="66" y="950" on="1"/>
        <pt x="199" y="950" on="1"/>
        <pt x="236" y="1192" on="0"/>
        <pt x="560" y="1473" on="0"/>
        <pt x="803" y="1473" on="1"/>
        <pt x="991" y="1473" on="0"/>
        <pt x="1155" y="1391" on="1"/>
        <pt x="1057" y="1159" on="1"/>
        <pt x="988" y="1190" on="0"/>
        <pt x="868" y="1225" on="0"/>
      </contour>
    </TTGlyph>
    <TTGlyph name="F" xMin="184" yMin="0" xMax="1022" yMax="1462">
      <contour>
        <pt x="489" y="0" on="1"/>
        <pt x="184" y="0" on="1"/>
        <pt x="184" y="1462" on="1"/>
        <pt x="1022" y="1462" on="1"/>
        <pt x="1022" y="1208" on="1"/>
        <pt x="489" y="1208" on="1"/>
        <pt x="489" y="831" on="1"/>
        <pt x="985" y="831" on="1"/>
        <pt x="985" y="578" on="1"/>
        <pt x="489" y="578" on="1"/>
      </contour>
    </TTGlyph>
    <TTGlyph name="G" xMin="119" yMin="-20" xMax="1319" yMax="1483">
      <contour>
        <pt x="739" y="821" on="1"/>
        <pt x="1319" y="821" on="1"/>
        <pt x="1319" y="63" on="1"/>
        <pt x="1178" y="17" on="0"/>
        <pt x="929" y="-20" on="0"/>
        <pt x="799" y="-20" on="1"/>
        <pt x="468" y="-20" on="0"/>
        <pt x="119" y="369" on="0"/>
        <pt x="119" y="733" on="1"/>
        <pt x="119" y="1087" on="0"/>
        <pt x="524" y="1483" on="0"/>
        <pt x="883" y="1483" on="1"/>
        <pt x="1108" y="1483" on="0"/>
        <pt x="1317" y="1393" on="1"/>
        <pt x="1214" y="1145" on="1"/>
        <pt x="1054" y="1225" on="0"/>
        <pt x="881" y="1225" on="1"/>
        <pt x="680" y="1225" on="0"/>
        <pt x="438" y="955" on="0"/>
        <pt x="438" y="727" on="1"/>
        <pt x="438" y="489" on="0"/>
        <pt x="633" y="238" on="0"/>
        <pt x="819" y="238" on="1"/>
        <pt x="916" y="238" on="0"/>
        <pt x="1016" y="258" on="1"/>
        <pt x="1016" y="563" on="1"/>
        <pt x="739" y="563" on="1"/>
      </contour>
    </TTGlyph>
    <TTGlyph name="Gamma" xMin="184" yMin="0" xMax="1108" yMax="1462">
      <contour>
        <pt x="1108" y="1462" on="1"/>
        <pt x="1108" y="1206" on="1"/>
        <pt x="494" y="1206" on="1"/>
        <pt x="494" y="0" on="1"/>
        <pt x="184" y="0" on="1"/>
        <pt x="184" y="1462" on="1"/>
      </contour>
    </TTGlyph>
    <TTGlyph name="Gbreve" xMin="119" yMin="-20" xMax="1319" yMax="1917">
      <component glyphName="G" x="0" y="0" flags="0x204"/>
      <component glyphName="breve" x="190" y="338" flags="0x4"/>
    </TTGlyph>
    <TTGlyph name="Gcaron" xMin="119" yMin="-20" xMax="1319" yMax="1907">
      <component glyphName="G" x="0" y="0" flags="0x204"/>
      <component glyphName="caron" x="168" y="338" flags="0x4"/>
    </TTGlyph>
    <TTGlyph name="Gcircumflex" xMin="119" yMin="-20" xMax="1319" yMax="1907">
      <component glyphName="G" x="0" y="0" flags="0x204"/>
      <component glyphName="circumflex" x="184" y="338" flags="0x4"/>
    </TTGlyph>
    <TTGlyph name="Gcommaaccent" xMin="119" yMin="-453" xMax="1319" yMax="1483">
      <component glyphName="G" x="0" y="0" flags="0x204"/>
      <component glyphName="glyph00569" x="279" y="0" flags="0x4"/>
    </TTGlyph>
    <TTGlyph name="Gdotaccent" xMin="119" yMin="-20" xMax="1319" yMax="1894">
      <component glyphName="G" x="0" y="0" flags="0x204"/>
      <component glyphName="dotaccent" x="508" y="338" flags="0x4"/>
    </TTGlyph>
    <TTGlyph name="H" xMin="184" yMin="0" xMax="1382" yMax="1462">
      <contour>
        <pt x="1382" y="0" on="1"/>
        <pt x="1073" y="0" on="1"/>
        <pt x="1073" y="631" on="1"/>
        <pt x="494" y="631" on="1"/>
        <pt x="494" y="0" on="1"/>
        <pt x="184" y="0" on="1"/>
        <pt x="184" y="1462" on="1"/>
        <pt x="494" y="1462" on="1"/>
        <pt x="494" y="889" on="1"/>
        <pt x="1073" y="889" on="1"/>
        <pt x="1073" y="1462" on="1"/>
        <pt x="1382" y="1462" on="1"/>
      </contour>
    </TTGlyph>
    <TTGlyph name="H18533" xMin="178" yMin="137" xMax="1059" yMax="1018">
      <contour>
        <pt x="618" y="1018" on="1"/>
        <pt x="727" y="1018" on="0"/>
        <pt x="944" y="901" on="0"/>
        <pt x="1059" y="684" on="0"/>
        <pt x="1059" y="578" on="1"/>
        <pt x="1059" y="395" on="0"/>
        <pt x="801" y="137" on="0"/>
        <pt x="618" y="137" on="1"/>
        <pt x="436" y="137" on="0"/>
        <pt x="178" y="395" on="0"/>
        <pt x="178" y="578" on="1"/>
        <pt x="178" y="686" on="0"/>
        <pt x="289" y="899" on="0"/>
        <pt x="504" y="1018" on="0"/>
      </contour>
    </TTGlyph>
    <TTGlyph name="H18543" xMin="109" yMin="383" xMax="616" yMax="891">
      <contour>
        <pt x="616" y="383" on="1"/>
        <pt x="109" y="383" on="1"/>
        <pt x="109" y="891" on="1"/>
        <pt x="616" y="891" on="1"/>
      </contour>
    </TTGlyph>
    <TTGlyph name="H18551" xMin="109" yMin="383" xMax="616" yMax="891">
      <contour>
        <pt x="616" y="383" on="1"/>
        <pt x="109" y="383" on="1"/>
        <pt x="109" y="891" on="1"/>
        <pt x="616" y="891" on="1"/>
      </contour>
      <contour>
        <pt x="541" y="459" on="1"/>
        <pt x="541" y="813" on="1"/>
        <pt x="184" y="813" on="1"/>
        <pt x="184" y="459" on="1"/>
      </contour>
    </TTGlyph>
    <TTGlyph name="H22073" xMin="6" yMin="0" xMax="1231" yMax="1225">
      <contour>
        <pt x="6" y="1225" on="1"/>
        <pt x="1231" y="1225" on="1"/>
        <pt x="1231" y="0" on="1"/>
        <pt x="6" y="0" on="1"/>
      </contour>
      <contour>
        <pt x="82" y="1149" on="1"/>
        <pt x="82" y="76" on="1"/>
        <pt x="1155" y="76" on="1"/>
        <pt x="1155" y="1149" on="1"/>
      </contour>
    </TTGlyph>
    <TTGlyph name="Hbar" xMin="0" yMin="0" xMax="1567" yMax="1462">
      <contour>
        <pt x="1382" y="1268" on="1"/>
        <pt x="1567" y="1268" on="1"/>
        <pt x="1567" y="1069" on="1"/>
        <pt x="1382" y="1069" on="1"/>
        <pt x="1382" y="0" on="1"/>
        <pt x="1073" y="0" on="1"/>
        <pt x="1073" y="631" on="1"/>
        <pt x="494" y="631" on="1"/>
        <pt x="494" y="0" on="1"/>
        <pt x="184" y="0" on="1"/>
        <pt x="184" y="1069" on="1"/>
        <pt x="0" y="1069" on="1"/>
        <pt x="0" y="1268" on="1"/>
        <pt x="184" y="1268" on="1"/>
        <pt x="184" y="1462" on="1"/>
        <pt x="494" y="1462" on="1"/>
        <pt x="494" y="1268" on="1"/>
        <pt x="1073" y="1268" on="1"/>
        <pt x="1073" y="1462" on="1"/>
        <pt x="1382" y="1462" on="1"/>
      </contour>
      <contour>
        <pt x="1073" y="889" on="1"/>
        <pt x="1073" y="1069" on="1"/>
        <pt x="494" y="1069" on="1"/>
        <pt x="494" y="889" on="1"/>
      </contour>
    </TTGlyph>
    <TTGlyph name="Hcircumflex" xMin="184" yMin="0" xMax="1382" yMax="1907">
      <component glyphName="H" x="0" y="0" flags="0x204"/>
      <component glyphName="circumflex" x="160" y="338" flags="0x4"/>
    </TTGlyph>
    <TTGlyph name="I" xMin="66" yMin="0" xMax="731" yMax="1462">
      <contour>
        <pt x="731" y="0" on="1"/>
        <pt x="66" y="0" on="1"/>
        <pt x="66" y="176" on="1"/>
        <pt x="244" y="258" on="1"/>
        <pt x="244" y="1204" on="1"/>
        <pt x="66" y="1286" on="1"/>
        <pt x="66" y="1462" on="1"/>
        <pt x="731" y="1462" on="1"/>
        <pt x="731" y="1286" on="1"/>
        <pt x="553" y="1204" on="1"/>
        <pt x="553" y="258" on="1"/>
        <pt x="731" y="176" on="1"/>
      </contour>
    </TTGlyph>
    <TTGlyph name="IJ" xMin="66" yMin="-430" xMax="1291" yMax="1462">
      <component glyphName="I" x="0" y="0" flags="0x4"/>
      <component glyphName="J" x="797" y="0" flags="0x4"/>
    </TTGlyph>
    <TTGlyph name="Iacute" xMin="66" yMin="0" xMax="814" yMax="1907">
      <component glyphName="I" x="0" y="0" flags="0x204"/>
      <component glyphName="acute" x="-95" y="338" flags="0x4"/>
    </TTGlyph>
    <TTGlyph name="Ibreve" xMin="7" yMin="0" xMax="794" yMax="1917">
      <component glyphName="I" x="0" y="0" flags="0x204"/>
      <component glyphName="breve" x="-220" y="338" flags="0x4"/>
    </TTGlyph>
    <TTGlyph name="Icircumflex" xMin="-36" yMin="0" xMax="833" yMax="1907">
      <component glyphName="I" x="0" y="0" flags="0x204"/>
      <component glyphName="circumflex" x="-222" y="338" flags="0x4"/>
    </TTGlyph>
    <TTGlyph name="Idieresis" xMin="57" yMin="0" xMax="743" yMax="1878">
      <component glyphName="I" x="0" y="0" flags="0x204"/>
      <component glyphName="dieresis" x="-222" y="338" flags="0x4"/>
    </TTGlyph>
    <TTGlyph name="Idotaccent" xMin="66" yMin="0" xMax="731" yMax="1894">
      <component glyphName="I" x="0" y="0" flags="0x204"/>
      <component glyphName="dotaccent" x="84" y="338" flags="0x4"/>
    </TTGlyph>
    <TTGlyph name="Igrave" xMin="42" yMin="0" xMax="731" yMax="1907">
      <component glyphName="I" x="0" y="0" flags="0x204"/>
      <component glyphName="grave" x="-290" y="338" flags="0x4"/>
    </TTGlyph>
    <TTGlyph name="Imacron" xMin="63" yMin="0" xMax="741" yMax="1790">
      <component glyphName="I" x="0" y="0" flags="0x204"/>
      <component glyphName="uni02C9" x="-220" y="338" flags="0x4"/>
    </TTGlyph>
    <TTGlyph name="Iogonek" xMin="66" yMin="-492" xMax="731" yMax="1462">
      <component glyphName="I" x="0" y="0" flags="0x204"/>
      <component glyphName="ogonek" x="190" y="0" flags="0x4"/>
    </TTGlyph>
    <TTGlyph name="Iota" xMin="66" yMin="0" xMax="731" yMax="1462">
      <component glyphName="I" x="0" y="0" flags="0x204"/>
    </TTGlyph>
    <TTGlyph name="Iotadieresis" xMin="57" yMin="0" xMax="743" yMax="1878">
      <component glyphName="I" x="0" y="0" flags="0x204"/>
      <component glyphName="dieresis" x="-222" y="338" flags="0x4"/>
    </TTGlyph>
    <TTGlyph name="Iotatonos" xMin="-99" yMin="0" xMax="983" yMax="1525">
      <component glyphName="I" x="252" y="0" flags="0x4"/>
      <component glyphName="tonos" x="-570" y="-105" flags="0x4"/>
    </TTGlyph>
    <TTGlyph name="Itilde" xMin="-15" yMin="0" xMax="814" yMax="1888">
      <component glyphName="I" x="0" y="0" flags="0x204"/>
      <component glyphName="tilde" x="-222" y="338" flags="0x4"/>
    </TTGlyph>
    <TTGlyph name="J" xMin="-152" yMin="-430" xMax="494" yMax="1462">
      <contour>
        <pt x="31" y="-430" on="1"/>
        <pt x="-74" y="-430" on="0"/>
        <pt x="-152" y="-408" on="1"/>
        <pt x="-152" y="-150" on="1"/>
        <pt x="-72" y="-170" on="0"/>
        <pt x="-6" y="-170" on="1"/>
        <pt x="96" y="-170" on="0"/>
        <pt x="184" y="-43" on="0"/>
        <pt x="184" y="92" on="1"/>
        <pt x="184" y="1462" on="1"/>
        <pt x="494" y="1462" on="1"/>
        <pt x="494" y="94" on="1"/>
        <pt x="494" y="-162" on="0"/>
        <pt x="260" y="-430" on="0"/>
      </contour>
    </TTGlyph>
    <TTGlyph name="Jcircumflex" xMin="-152" yMin="-430" xMax="777" yMax="1907">
      <component glyphName="J" x="0" y="0" flags="0x204"/>
      <component glyphName="circumflex" x="-278" y="338" flags="0x4"/>
    </TTGlyph>
    <TTGlyph name="K" xMin="184" yMin="0" xMax="1360" yMax="1462">
      <contour>
        <pt x="1360" y="0" on="1"/>
        <pt x="1008" y="0" on="1"/>
        <pt x="625" y="616" on="1"/>
        <pt x="494" y="522" on="1"/>
        <pt x="494" y="0" on="1"/>
        <pt x="184" y="0" on="1"/>
        <pt x="184" y="1462" on="1"/>
        <pt x="494" y="1462" on="1"/>
        <pt x="494" y="793" on="1"/>
        <pt x="616" y="965" on="1"/>
        <pt x="1012" y="1462" on="1"/>
        <pt x="1356" y="1462" on="1"/>
        <pt x="846" y="815" on="1"/>
      </contour>
    </TTGlyph>
    <TTGlyph name="Kappa" xMin="184" yMin="0" xMax="1360" yMax="1462">
      <component glyphName="K" x="0" y="0" flags="0x204"/>
    </TTGlyph>
    <TTGlyph name="Kcommaaccent" xMin="184" yMin="-453" xMax="1360" yMax="1462">
      <component glyphName="K" x="0" y="0" flags="0x204"/>
      <component glyphName="glyph00569" x="156" y="0" flags="0x4"/>
    </TTGlyph>
    <TTGlyph name="L" xMin="184" yMin="0" xMax="1087" yMax="1462">
      <contour>
        <pt x="184" y="0" on="1"/>
        <pt x="184" y="1462" on="1"/>
        <pt x="494" y="1462" on="1"/>
        <pt x="494" y="256" on="1"/>
        <pt x="1087" y="256" on="1"/>
        <pt x="1087" y="0" on="1"/>
      </contour>
    </TTGlyph>
    <TTGlyph name="Lacute" xMin="184" yMin="0" xMax="1087" yMax="1907">
      <component glyphName="L" x="0" y="0" flags="0x204"/>
      <component glyphName="acute" x="-65" y="338" flags="0x4"/>
    </TTGlyph>
    <TTGlyph name="Lambda" xMin="0" yMin="0" xMax="1331" yMax="1462">
      <contour>
        <pt x="666" y="1202" on="1"/>
        <pt x="654" y="1140" on="0"/>
        <pt x="603" y="918" on="0"/>
        <pt x="590" y="877" on="1"/>
        <pt x="313" y="0" on="1"/>
        <pt x="0" y="0" on="1"/>
        <pt x="496" y="1462" on="1"/>
        <pt x="834" y="1462" on="1"/>
        <pt x="1331" y="0" on="1"/>
        <pt x="1018" y="0" on="1"/>
        <pt x="745" y="879" on="1"/>
        <pt x="735" y="908" on="0"/>
        <pt x="675" y="1148" on="0"/>
      </contour>
    </TTGlyph>
    <TTGlyph name="Lcaron" xMin="184" yMin="0" xMax="1087" yMax="1463">
      <component glyphName="L" x="0" y="0" flags="0x204"/>
      <component glyphName="glyph00568" x="373" y="-93" flags="0x4"/>
    </TTGlyph>
    <TTGlyph name="Lcommaaccent" xMin="184" yMin="-453" xMax="1087" yMax="1462">
      <component glyphName="L" x="0" y="0" flags="0x204"/>
      <component glyphName="glyph00569" x="74" y="0" flags="0x4"/>
    </TTGlyph>
    <TTGlyph name="Ldot" xMin="184" yMin="0" xMax="1087" yMax="1462">
      <component glyphName="L" x="0" y="0" flags="0x204"/>
      <component glyphName="dotaccent" x="559" y="-656" flags="0x4"/>
    </TTGlyph>
    <TTGlyph name="Lslash" xMin="2" yMin="0" xMax="1087" yMax="1462">
      <contour>
        <pt x="184" y="0" on="1"/>
        <pt x="184" y="492" on="1"/>
        <pt x="115" y="451" on="1"/>
        <pt x="2" y="647" on="1"/>
        <pt x="184" y="758" on="1"/>
        <pt x="184" y="1462" on="1"/>
        <pt x="494" y="1462" on="1"/>
        <pt x="494" y="946" on="1"/>
        <pt x="637" y="1034" on="1"/>
        <pt x="754" y="838" on="1"/>
        <pt x="494" y="680" on="1"/>
        <pt x="494" y="256" on="1"/>
        <pt x="1087" y="256" on="1"/>
        <pt x="1087" y="0" on="1"/>
      </contour>
    </TTGlyph>
    <TTGlyph name="M" xMin="184" yMin="0" xMax="1747" yMax="1462">
      <contour>
        <pt x="803" y="0" on="1"/>
        <pt x="451" y="1147" on="1"/>
        <pt x="442" y="1147" on="1"/>
        <pt x="461" y="797" on="0"/>
        <pt x="461" y="680" on="1"/>
        <pt x="461" y="0" on="1"/>
        <pt x="184" y="0" on="1"/>
        <pt x="184" y="1462" on="1"/>
        <pt x="606" y="1462" on="1"/>
        <pt x="952" y="344" on="1"/>
        <pt x="958" y="344" on="1"/>
        <pt x="1325" y="1462" on="1"/>
        <pt x="1747" y="1462" on="1"/>
        <pt x="1747" y="0" on="1"/>
        <pt x="1458" y="0" on="1"/>
        <pt x="1458" y="692" on="1"/>
        <pt x="1458" y="741" on="0"/>
        <pt x="1461" y="869" on="0"/>
        <pt x="1473" y="1145" on="1"/>
        <pt x="1464" y="1145" on="1"/>
        <pt x="1087" y="0" on="1"/>
      </contour>
    </TTGlyph>
    <TTGlyph name="Mu" xMin="184" yMin="0" xMax="1747" yMax="1462">
      <component glyphName="M" x="0" y="0" flags="0x204"/>
    </TTGlyph>
    <TTGlyph name="N" xMin="184" yMin="0" xMax="1481" yMax="1462">
      <contour>
        <pt x="1481" y="0" on="1"/>
        <pt x="1087" y="0" on="1"/>
        <pt x="451" y="1106" on="1"/>
        <pt x="442" y="1106" on="1"/>
        <pt x="461" y="813" on="0"/>
        <pt x="461" y="688" on="1"/>
        <pt x="461" y="0" on="1"/>
        <pt x="184" y="0" on="1"/>
        <pt x="184" y="1462" on="1"/>
        <pt x="575" y="1462" on="1"/>
        <pt x="1210" y="367" on="1"/>
        <pt x="1217" y="367" on="1"/>
        <pt x="1202" y="652" on="0"/>
        <pt x="1202" y="770" on="1"/>
        <pt x="1202" y="1462" on="1"/>
        <pt x="1481" y="1462" on="1"/>
      </contour>
    </TTGlyph>
    <TTGlyph name="Nacute" xMin="184" yMin="0" xMax="1481" yMax="1907">
      <component glyphName="N" x="0" y="0" flags="0x204"/>
      <component glyphName="acute" x="324" y="338" flags="0x4"/>
    </TTGlyph>
    <TTGlyph name="Ncaron" xMin="184" yMin="0" xMax="1481" yMax="1907">
      <component glyphName="N" x="0" y="0" flags="0x204"/>
      <component glyphName="caron" x="238" y="338" flags="0x4"/>
    </TTGlyph>
    <TTGlyph name="Ncommaaccent" xMin="184" yMin="-453" xMax="1481" yMax="1462">
      <component glyphName="N" x="0" y="0" flags="0x204"/>
      <component glyphName="glyph00569" x="248" y="0" flags="0x4"/>
    </TTGlyph>
    <TTGlyph name="Ntilde" xMin="184" yMin="0" xMax="1481" yMax="1888">
      <component glyphName="N" x="0" y="0" flags="0x204"/>
      <component glyphName="tilde" x="211" y="338" flags="0x4"/>
    </TTGlyph>
    <TTGlyph name="Nu" xMin="184" yMin="0" xMax="1481" yMax="1462">
      <component glyphName="N" x="0" y="0" flags="0x204"/>
    </TTGlyph>
    <TTGlyph name="O" xMin="119" yMin="-20" xMax="1511" yMax="1485">
      <contour>
        <pt x="1511" y="733" on="1"/>
        <pt x="1511" y="370" on="0"/>
        <pt x="1151" y="-20" on="0"/>
        <pt x="815" y="-20" on="1"/>
        <pt x="479" y="-20" on="0"/>
        <pt x="119" y="370" on="0"/>
        <pt x="119" y="735" on="1"/>
        <pt x="119" y="1100" on="0"/>
        <pt x="480" y="1485" on="0"/>
        <pt x="817" y="1485" on="1"/>
        <pt x="1154" y="1485" on="0"/>
        <pt x="1511" y="1097" on="0"/>
      </contour>
      <contour>
        <pt x="444" y="733" on="1"/>
        <pt x="444" y="488" on="0"/>
        <pt x="630" y="240" on="0"/>
        <pt x="815" y="240" on="1"/>
        <pt x="1186" y="240" on="0"/>
        <pt x="1186" y="733" on="1"/>
        <pt x="1186" y="1227" on="0"/>
        <pt x="817" y="1227" on="1"/>
        <pt x="632" y="1227" on="0"/>
        <pt x="444" y="978" on="0"/>
      </contour>
    </TTGlyph>
    <TTGlyph name="OE" xMin="119" yMin="-20" xMax="1872" yMax="1485">
      <contour>
        <pt x="1872" y="0" on="1"/>
        <pt x="999" y="0" on="1"/>
        <pt x="961" y="-9" on="0"/>
        <pt x="819" y="-20" on="0"/>
        <pt x="774" y="-20" on="1"/>
        <pt x="455" y="-20" on="0"/>
        <pt x="119" y="374" on="0"/>
        <pt x="119" y="735" on="1"/>
        <pt x="119" y="1098" on="0"/>
        <pt x="458" y="1485" on="0"/>
        <pt x="776" y="1485" on="1"/>
        <pt x="837" y="1485" on="0"/>
        <pt x="969" y="1471" on="0"/>
        <pt x="1004" y="1462" on="1"/>
        <pt x="1872" y="1462" on="1"/>
        <pt x="1872" y="1208" on="1"/>
        <pt x="1309" y="1208" on="1"/>
        <pt x="1309" y="887" on="1"/>
        <pt x="1835" y="887" on="1"/>
        <pt x="1835" y="633" on="1"/>
        <pt x="1309" y="633" on="1"/>
        <pt x="1309" y="256" on="1"/>
        <pt x="1872" y="256" on="1"/>
      </contour>
      <contour>
        <pt x="776" y="1227" on="1"/>
        <pt x="610" y="1227" on="0"/>
        <pt x="438" y="976" on="0"/>
        <pt x="438" y="733" on="1"/>
        <pt x="438" y="489" on="0"/>
        <pt x="610" y="240" on="0"/>
        <pt x="774" y="240" on="1"/>
        <pt x="839" y="240" on="0"/>
        <pt x="961" y="261" on="0"/>
        <pt x="999" y="279" on="1"/>
        <pt x="999" y="1186" on="1"/>
        <pt x="964" y="1205" on="0"/>
        <pt x="831" y="1227" on="0"/>
      </contour>
    </TTGlyph>
    <TTGlyph name="Oacute" xMin="119" yMin="-20" xMax="1511" yMax="1907">
      <component glyphName="O" x="0" y="0" flags="0x204"/>
      <component glyphName="acute" x="326" y="338" flags="0x4"/>
    </TTGlyph>
    <TTGlyph name="Obreve" xMin="119" yMin="-20" xMax="1511" yMax="1917">
      <component glyphName="O" x="0" y="0" flags="0x204"/>
      <component glyphName="breve" x="195" y="338" flags="0x4"/>
    </TTGlyph>
    <TTGlyph name="Ocircumflex" xMin="119" yMin="-20" xMax="1511" yMax="1907">
      <component glyphName="O" x="0" y="0" flags="0x204"/>
      <component glyphName="circumflex" x="195" y="338" flags="0x4"/>
    </TTGlyph>
    <TTGlyph name="Odieresis" xMin="119" yMin="-20" xMax="1511" yMax="1878">
      <component glyphName="O" x="0" y="0" flags="0x204"/>
      <component glyphName="dieresis" x="195" y="338" flags="0x4"/>
    </TTGlyph>
    <TTGlyph name="Ograve" xMin="119" yMin="-20" xMax="1511" yMax="1907">
      <component glyphName="O" x="0" y="0" flags="0x204"/>
      <component glyphName="grave" x="117" y="338" flags="0x4"/>
    </TTGlyph>
    <TTGlyph name="Ohorn" xMin="119" yMin="-20" xMax="1751" yMax="1556">
      <contour>
        <pt x="1511" y="733" on="1"/>
        <pt x="1511" y="370" on="0"/>
        <pt x="1151" y="-20" on="0"/>
        <pt x="815" y="-20" on="1"/>
        <pt x="479" y="-20" on="0"/>
        <pt x="119" y="370" on="0"/>
        <pt x="119" y="735" on="1"/>
        <pt x="119" y="1098" on="0"/>
        <pt x="481" y="1485" on="0"/>
        <pt x="819" y="1485" on="1"/>
        <pt x="1165" y="1485" on="0"/>
        <pt x="1343" y="1282" on="1"/>
        <pt x="1436" y="1343" on="0"/>
        <pt x="1436" y="1556" on="1"/>
        <pt x="1737" y="1556" on="1"/>
        <pt x="1751" y="1534" on="1"/>
        <pt x="1715" y="1357" on="0"/>
        <pt x="1573" y="1156" on="0"/>
        <pt x="1450" y="1106" on="1"/>
        <pt x="1511" y="947" on="0"/>
      </contour>
      <contour>
        <pt x="444" y="733" on="1"/>
        <pt x="444" y="488" on="0"/>
        <pt x="630" y="240" on="0"/>
        <pt x="815" y="240" on="1"/>
        <pt x="1186" y="240" on="0"/>
        <pt x="1186" y="733" on="1"/>
        <pt x="1186" y="1227" on="0"/>
        <pt x="817" y="1227" on="1"/>
        <pt x="632" y="1227" on="0"/>
        <pt x="444" y="978" on="0"/>
      </contour>
    </TTGlyph>
    <TTGlyph name="Ohungarumlaut" xMin="119" yMin="-20" xMax="1511" yMax="1907">
      <component glyphName="O" x="0" y="0" flags="0x204"/>
      <component glyphName="hungarumlaut" x="322" y="338" flags="0x4"/>
    </TTGlyph>
    <TTGlyph name="Omacron" xMin="119" yMin="-20" xMax="1511" yMax="1790">
      <component glyphName="O" x="0" y="0" flags="0x204"/>
      <component glyphName="uni02C9" x="195" y="338" flags="0x4"/>
    </TTGlyph>
    <TTGlyph name="Omega" xMin="55" yMin="0" xMax="1554" yMax="1485">
      <contour>
        <pt x="805" y="1227" on="1"/>
        <pt x="624" y="1227" on="0"/>
        <pt x="428" y="1007" on="0"/>
        <pt x="428" y="807" on="1"/>
        <pt x="428" y="604" on="0"/>
        <pt x="560" y="351" on="0"/>
        <pt x="694" y="279" on="1"/>
        <pt x="694" y="0" on="1"/>
        <pt x="55" y="0" on="1"/>
        <pt x="55" y="260" on="1"/>
        <pt x="426" y="260" on="1"/>
        <pt x="274" y="353" on="0"/>
        <pt x="109" y="674" on="0"/>
        <pt x="109" y="872" on="1"/>
        <pt x="109" y="1056" on="0"/>
        <pt x="280" y="1335" on="0"/>
        <pt x="596" y="1485" on="0"/>
        <pt x="805" y="1485" on="1"/>
        <pt x="1124" y="1485" on="0"/>
        <pt x="1501" y="1151" on="0"/>
        <pt x="1501" y="870" on="1"/>
        <pt x="1501" y="672" on="0"/>
        <pt x="1335" y="356" on="0"/>
        <pt x="1180" y="260" on="1"/>
        <pt x="1554" y="260" on="1"/>
        <pt x="1554" y="0" on="1"/>
        <pt x="911" y="0" on="1"/>
        <pt x="911" y="279" on="1"/>
        <pt x="1050" y="351" on="0"/>
        <pt x="1182" y="609" on="0"/>
        <pt x="1182" y="809" on="1"/>
        <pt x="1182" y="1008" on="0"/>
        <pt x="985" y="1227" on="0"/>
      </contour>
    </TTGlyph>
    <TTGlyph name="Omegatonos" xMin="-58" yMin="0" xMax="1644" yMax="1525">
      <component glyphName="Omega" x="90" y="0" flags="0x4"/>
      <component glyphName="tonos" x="-529" y="-105" flags="0x4"/>
    </TTGlyph>
    <TTGlyph name="Omicron" xMin="119" yMin="-20" xMax="1511" yMax="1485">
      <component glyphName="O" x="0" y="0" flags="0x204"/>
    </TTGlyph>
    <TTGlyph name="Omicrontonos" xMin="-58" yMin="-20" xMax="1593" yMax="1525">
      <component glyphName="O" x="82" y="0" flags="0x4"/>
      <component glyphName="tonos" x="-529" y="-105" flags="0x4"/>
    </TTGlyph>
    <TTGlyph name="Oslash" xMin="119" yMin="-90" xMax="1511" yMax="1540">
      <contour>
        <pt x="1511" y="733" on="1"/>
        <pt x="1511" y="370" on="0"/>
        <pt x="1151" y="-20" on="0"/>
        <pt x="815" y="-20" on="1"/>
        <pt x="618" y="-20" on="0"/>
        <pt x="479" y="45" on="1"/>
        <pt x="389" y="-90" on="1"/>
        <pt x="227" y="18" on="1"/>
        <pt x="317" y="154" on="1"/>
        <pt x="119" y="348" on="0"/>
        <pt x="119" y="735" on="1"/>
        <pt x="119" y="1100" on="0"/>
        <pt x="480" y="1485" on="0"/>
        <pt x="817" y="1485" on="1"/>
        <pt x="1015" y="1485" on="0"/>
        <pt x="1161" y="1415" on="1"/>
        <pt x="1245" y="1540" on="1"/>
        <pt x="1405" y="1436" on="1"/>
        <pt x="1317" y="1305" on="1"/>
        <pt x="1511" y="1111" on="0"/>
      </contour>
      <contour>
        <pt x="444" y="733" on="1"/>
        <pt x="444" y="542" on="0"/>
        <pt x="500" y="426" on="1"/>
        <pt x="1006" y="1182" on="1"/>
        <pt x="922" y="1227" on="0"/>
        <pt x="817" y="1227" on="1"/>
        <pt x="632" y="1227" on="0"/>
        <pt x="444" y="978" on="0"/>
      </contour>
      <contour>
        <pt x="1186" y="733" on="1"/>
        <pt x="1186" y="913" on="0"/>
        <pt x="1135" y="1030" on="1"/>
        <pt x="635" y="279" on="1"/>
        <pt x="711" y="240" on="0"/>
        <pt x="815" y="240" on="1"/>
        <pt x="1186" y="240" on="0"/>
      </contour>
    </TTGlyph>
    <TTGlyph name="Oslashacute" xMin="119" yMin="-90" xMax="1511" yMax="1907">
      <component glyphName="Oslash" x="0" y="0" flags="0x204"/>
      <component glyphName="acute" x="305" y="338" flags="0x4"/>
    </TTGlyph>
    <TTGlyph name="Otilde" xMin="119" yMin="-20" xMax="1511" yMax="1888">
      <component glyphName="O" x="0" y="0" flags="0x204"/>
      <component glyphName="tilde" x="195" y="338" flags="0x4"/>
    </TTGlyph>
    <TTGlyph name="P" xMin="184" yMin="0" xMax="1194" yMax="1462">
      <contour>
        <pt x="494" y="774" on="1"/>
        <pt x="596" y="774" on="1"/>
        <pt x="739" y="774" on="0"/>
        <pt x="881" y="887" on="0"/>
        <pt x="881" y="995" on="1"/>
        <pt x="881" y="1104" on="0"/>
        <pt x="762" y="1208" on="0"/>
        <pt x="635" y="1208" on="1"/>
        <pt x="494" y="1208" on="1"/>
      </contour>
      <contour>
        <pt x="1194" y="1006" on="1"/>
        <pt x="1194" y="770" on="0"/>
        <pt x="899" y="520" on="0"/>
        <pt x="627" y="520" on="1"/>
        <pt x="494" y="520" on="1"/>
        <pt x="494" y="0" on="1"/>
        <pt x="184" y="0" on="1"/>
        <pt x="184" y="1462" on="1"/>
        <pt x="651" y="1462" on="1"/>
        <pt x="917" y="1462" on="0"/>
        <pt x="1194" y="1233" on="0"/>
      </contour>
    </TTGlyph>
    <TTGlyph name="Phi" xMin="92" yMin="-20" xMax="1669" yMax="1483">
      <contour>
        <pt x="1020" y="444" on="1"/>
        <pt x="1034" y="444" on="1"/>
        <pt x="1195" y="444" on="0"/>
        <pt x="1378" y="613" on="0"/>
        <pt x="1378" y="760" on="1"/>
        <pt x="1378" y="896" on="0"/>
        <pt x="1208" y="1061" on="0"/>
        <pt x="1061" y="1061" on="1"/>
        <pt x="1020" y="1061" on="1"/>
      </contour>
      <contour>
        <pt x="741" y="-20" on="1"/>
        <pt x="741" y="205" on="1"/>
        <pt x="719" y="205" on="1"/>
        <pt x="533" y="205" on="0"/>
        <pt x="253" y="336" on="0"/>
        <pt x="92" y="598" on="0"/>
        <pt x="92" y="758" on="1"/>
        <pt x="92" y="913" on="0"/>
        <pt x="235" y="1162" on="0"/>
        <pt x="505" y="1303" on="0"/>
        <pt x="688" y="1303" on="1"/>
        <pt x="741" y="1303" on="1"/>
        <pt x="741" y="1483" on="1"/>
        <pt x="1020" y="1483" on="1"/>
        <pt x="1020" y="1303" on="1"/>
        <pt x="1073" y="1303" on="1"/>
        <pt x="1255" y="1303" on="0"/>
        <pt x="1525" y="1162" on="0"/>
        <pt x="1669" y="913" on="0"/>
        <pt x="1669" y="758" on="1"/>
        <pt x="1669" y="598" on="0"/>
        <pt x="1508" y="336" on="0"/>
        <pt x="1228" y="205" on="0"/>
        <pt x="1042" y="205" on="1"/>
        <pt x="1020" y="205" on="1"/>
        <pt x="1020" y="-20" on="1"/>
      </contour>
      <contour>
        <pt x="741" y="1061" on="1"/>
        <pt x="700" y="1061" on="1"/>
        <pt x="553" y="1061" on="0"/>
        <pt x="383" y="897" on="0"/>
        <pt x="383" y="760" on="1"/>
        <pt x="383" y="616" on="0"/>
        <pt x="563" y="444" on="0"/>
        <pt x="727" y="444" on="1"/>
        <pt x="741" y="444" on="1"/>
      </contour>
    </TTGlyph>
    <TTGlyph name="Pi" xMin="184" yMin="0" xMax="1341" yMax="1462">
      <contour>
        <pt x="1341" y="0" on="1"/>
        <pt x="1032" y="0" on="1"/>
        <pt x="1032" y="1204" on="1"/>
        <pt x="494" y="1204" on="1"/>
        <pt x="494" y="0" on="1"/>
        <pt x="184" y="0" on="1"/>
        <pt x="184" y="1462" on="1"/>
        <pt x="1341" y="1462" on="1"/>
      </contour>
    </TTGlyph>
    <TTGlyph name="Psi" xMin="109" yMin="0" xMax="1686" yMax="1462">
      <contour>
        <pt x="1686" y="983" on="1"/>
        <pt x="1686" y="702" on="0"/>
        <pt x="1388" y="436" on="0"/>
        <pt x="1087" y="436" on="1"/>
        <pt x="1036" y="436" on="1"/>
        <pt x="1036" y="0" on="1"/>
        <pt x="758" y="0" on="1"/>
        <pt x="758" y="436" on="1"/>
        <pt x="707" y="436" on="1"/>
        <pt x="402" y="436" on="0"/>
        <pt x="109" y="701" on="0"/>
        <pt x="109" y="979" on="1"/>
        <pt x="109" y="1462" on="1"/>
        <pt x="399" y="1462" on="1"/>
        <pt x="399" y="983" on="1"/>
        <pt x="399" y="826" on="0"/>
        <pt x="549" y="686" on="0"/>
        <pt x="727" y="686" on="1"/>
        <pt x="758" y="686" on="1"/>
        <pt x="758" y="1462" on="1"/>
        <pt x="1036" y="1462" on="1"/>
        <pt x="1036" y="686" on="1"/>
        <pt x="1067" y="686" on="1"/>
        <pt x="1241" y="686" on="0"/>
        <pt x="1395" y="831" on="0"/>
        <pt x="1395" y="979" on="1"/>
        <pt x="1395" y="1462" on="1"/>
        <pt x="1686" y="1462" on="1"/>
      </contour>
    </TTGlyph>
    <TTGlyph name="Q" xMin="119" yMin="-348" xMax="1511" yMax="1485">
      <contour>
        <pt x="1511" y="733" on="1"/>
        <pt x="1511" y="475" on="0"/>
        <pt x="1328" y="126" on="0"/>
        <pt x="1151" y="45" on="1"/>
        <pt x="1503" y="-348" on="1"/>
        <pt x="1106" y="-348" on="1"/>
        <pt x="838" y="-20" on="1"/>
        <pt x="815" y="-20" on="1"/>
        <pt x="479" y="-20" on="0"/>
        <pt x="119" y="370" on="0"/>
        <pt x="119" y="735" on="1"/>
        <pt x="119" y="1100" on="0"/>
        <pt x="480" y="1485" on="0"/>
        <pt x="817" y="1485" on="1"/>
        <pt x="1154" y="1485" on="0"/>
        <pt x="1511" y="1097" on="0"/>
      </contour>
      <contour>
        <pt x="444" y="733" on="1"/>
        <pt x="444" y="488" on="0"/>
        <pt x="630" y="240" on="0"/>
        <pt x="815" y="240" on="1"/>
        <pt x="1186" y="240" on="0"/>
        <pt x="1186" y="733" on="1"/>
        <pt x="1186" y="1227" on="0"/>
        <pt x="817" y="1227" on="1"/>
        <pt x="632" y="1227" on="0"/>
        <pt x="444" y="978" on="0"/>
      </contour>
    </TTGlyph>
    <TTGlyph name="R" xMin="184" yMin="0" xMax="1352" yMax="1462">
      <contour>
        <pt x="494" y="813" on="1"/>
        <pt x="594" y="813" on="1"/>
        <pt x="741" y="813" on="0"/>
        <pt x="881" y="911" on="0"/>
        <pt x="881" y="1016" on="1"/>
        <pt x="881" y="1120" on="0"/>
        <pt x="738" y="1208" on="0"/>
        <pt x="588" y="1208" on="1"/>
        <pt x="494" y="1208" on="1"/>
      </contour>
      <contour>
        <pt x="494" y="561" on="1"/>
        <pt x="494" y="0" on="1"/>
        <pt x="184" y="0" on="1"/>
        <pt x="184" y="1462" on="1"/>
        <pt x="610" y="1462" on="1"/>
        <pt x="908" y="1462" on="0"/>
        <pt x="1194" y="1245" on="0"/>
        <pt x="1194" y="1024" on="1"/>
        <pt x="1194" y="895" on="0"/>
        <pt x="1052" y="694" on="0"/>
        <pt x="922" y="637" on="1"/>
        <pt x="1352" y="0" on="1"/>
        <pt x="1008" y="0" on="1"/>
        <pt x="659" y="561" on="1"/>
      </contour>
    </TTGlyph>
    <TTGlyph name="Racute" xMin="184" yMin="0" xMax="1352" yMax="1907">
      <component glyphName="R" x="0" y="0" flags="0x204"/>
      <component glyphName="acute" x="145" y="338" flags="0x4"/>
    </TTGlyph>
    <TTGlyph name="Rcaron" xMin="184" yMin="0" xMax="1352" yMax="1907">
      <component glyphName="R" x="0" y="0" flags="0x204"/>
      <component glyphName="caron" x="51" y="338" flags="0x4"/>
    </TTGlyph>
    <TTGlyph name="Rcommaaccent" xMin="184" yMin="-453" xMax="1352" yMax="1462">
      <component glyphName="R" x="0" y="0" flags="0x204"/>
      <component glyphName="glyph00569" x="180" y="0" flags="0x4"/>
    </TTGlyph>
    <TTGlyph name="Rho" xMin="184" yMin="0" xMax="1194" yMax="1462">
      <component glyphName="P" x="0" y="0" flags="0x204"/>
    </TTGlyph>
    <TTGlyph name="S" xMin="94" yMin="-20" xMax="1047" yMax="1483">
      <contour>
        <pt x="1047" y="406" on="1"/>
        <pt x="1047" y="208" on="0"/>
        <pt x="762" y="-20" on="0"/>
        <pt x="508" y="-20" on="1"/>
        <pt x="274" y="-20" on="0"/>
        <pt x="94" y="68" on="1"/>
        <pt x="94" y="356" on="1"/>
        <pt x="242" y="290" on="0"/>
        <pt x="447" y="236" on="0"/>
        <pt x="532" y="236" on="1"/>
        <pt x="634" y="236" on="0"/>
        <pt x="743" y="314" on="0"/>
        <pt x="743" y="391" on="1"/>
        <pt x="743" y="434" on="0"/>
        <pt x="695" y="501" on="0"/>
        <pt x="602" y="563" on="0"/>
        <pt x="459" y="631" on="1"/>
        <pt x="325" y="694" on="0"/>
        <pt x="191" y="810" on="0"/>
        <pt x="111" y="964" on="0"/>
        <pt x="111" y="1067" on="1"/>
        <pt x="111" y="1261" on="0"/>
        <pt x="374" y="1483" on="0"/>
        <pt x="606" y="1483" on="1"/>
        <pt x="720" y="1483" on="0"/>
        <pt x="927" y="1429" on="0"/>
        <pt x="1040" y="1380" on="1"/>
        <pt x="940" y="1139" on="1"/>
        <pt x="823" y="1187" on="0"/>
        <pt x="670" y="1225" on="0"/>
        <pt x="596" y="1225" on="1"/>
        <pt x="508" y="1225" on="0"/>
        <pt x="414" y="1143" on="0"/>
        <pt x="414" y="1077" on="1"/>
        <pt x="414" y="1036" on="0"/>
        <pt x="452" y="975" on="0"/>
        <pt x="535" y="918" on="0"/>
        <pt x="690" y="844" on="1"/>
        <pt x="895" y="746" on="0"/>
        <pt x="1047" y="549" on="0"/>
      </contour>
    </TTGlyph>
    <TTGlyph name="SF010000" xMin="653" yMin="-492" xMax="1460" yMax="823">
      <contour>
        <pt x="653" y="823" on="1"/>
        <pt x="1460" y="823" on="1"/>
        <pt x="1460" y="678" on="1"/>
        <pt x="799" y="678" on="1"/>
        <pt x="799" y="-492" on="1"/>
        <pt x="653" y="-492" on="1"/>
      </contour>
    </TTGlyph>
    <TTGlyph name="SF020000" xMin="653" yMin="678" xMax="1460" yMax="1993">
      <contour>
        <pt x="653" y="1993" on="1"/>
        <pt x="799" y="1993" on="1"/>
        <pt x="799" y="823" on="1"/>
        <pt x="1460" y="823" on="1"/>
        <pt x="1460" y="678" on="1"/>
        <pt x="653" y="678" on="1"/>
      </contour>
    </TTGlyph>
    <TTGlyph name="SF030000" xMin="-10" yMin="-492" xMax="799" yMax="823">
      <contour>
        <pt x="-10" y="678" on="1"/>
        <pt x="-10" y="823" on="1"/>
        <pt x="799" y="823" on="1"/>
        <pt x="799" y="-492" on="1"/>
        <pt x="653" y="-492" on="1"/>
        <pt x="653" y="678" on="1"/>
      </contour>
    </TTGlyph>
    <TTGlyph name="SF040000" xMin="-10" yMin="678" xMax="799" yMax="1993">
      <contour>
        <pt x="-10" y="678" on="1"/>
        <pt x="-10" y="823" on="1"/>
        <pt x="653" y="823" on="1"/>
        <pt x="653" y="1993" on="1"/>
        <pt x="799" y="1993" on="1"/>
        <pt x="799" y="678" on="1"/>
      </contour>
    </TTGlyph>
    <TTGlyph name="SF050000" xMin="-10" yMin="-492" xMax="1460" yMax="1993">
      <contour>
        <pt x="-10" y="678" on="1"/>
        <pt x="-10" y="823" on="1"/>
        <pt x="653" y="823" on="1"/>
        <pt x="653" y="1993" on="1"/>
        <pt x="799" y="1993" on="1"/>
        <pt x="799" y="823" on="1"/>
        <pt x="1460" y="823" on="1"/>
        <pt x="1460" y="678" on="1"/>
        <pt x="799" y="678" on="1"/>
        <pt x="799" y="-492" on="1"/>
        <pt x="653" y="-492" on="1"/>
        <pt x="653" y="678" on="1"/>
      </contour>
    </TTGlyph>
    <TTGlyph name="SF060000" xMin="-10" yMin="-492" xMax="1460" yMax="823">
      <contour>
        <pt x="-10" y="678" on="1"/>
        <pt x="-10" y="823" on="1"/>
        <pt x="1460" y="823" on="1"/>
        <pt x="1460" y="678" on="1"/>
        <pt x="799" y="678" on="1"/>
        <pt x="799" y="-492" on="1"/>
        <pt x="653" y="-492" on="1"/>
        <pt x="653" y="678" on="1"/>
      </contour>
    </TTGlyph>
    <TTGlyph name="SF070000" xMin="-10" yMin="678" xMax="1460" yMax="1993">
      <contour>
        <pt x="-10" y="678" on="1"/>
        <pt x="-10" y="823" on="1"/>
        <pt x="653" y="823" on="1"/>
        <pt x="653" y="1993" on="1"/>
        <pt x="799" y="1993" on="1"/>
        <pt x="799" y="823" on="1"/>
        <pt x="1460" y="823" on="1"/>
        <pt x="1460" y="678" on="1"/>
      </contour>
    </TTGlyph>
    <TTGlyph name="SF080000" xMin="653" yMin="-492" xMax="1460" yMax="1993">
      <contour>
        <pt x="653" y="1993" on="1"/>
        <pt x="799" y="1993" on="1"/>
        <pt x="799" y="823" on="1"/>
        <pt x="1460" y="823" on="1"/>
        <pt x="1460" y="678" on="1"/>
        <pt x="799" y="678" on="1"/>
        <pt x="799" y="-492" on="1"/>
        <pt x="653" y="-492" on="1"/>
      </contour>
    </TTGlyph>
    <TTGlyph name="SF090000" xMin="-10" yMin="-492" xMax="799" yMax="1993">
      <contour>
        <pt x="-10" y="678" on="1"/>
        <pt x="-10" y="823" on="1"/>
        <pt x="653" y="823" on="1"/>
        <pt x="653" y="1993" on="1"/>
        <pt x="799" y="1993" on="1"/>
        <pt x="799" y="-492" on="1"/>
        <pt x="653" y="-492" on="1"/>
        <pt x="653" y="678" on="1"/>
      </contour>
    </TTGlyph>
    <TTGlyph name="SF100000" xMin="-10" yMin="678" xMax="1460" yMax="823">
      <contour>
        <pt x="-10" y="678" on="1"/>
        <pt x="-10" y="823" on="1"/>
        <pt x="1460" y="823" on="1"/>
        <pt x="1460" y="678" on="1"/>
      </contour>
    </TTGlyph>
    <TTGlyph name="SF110000" xMin="471" yMin="-492" xMax="616" yMax="1993">
      <contour>
        <pt x="471" y="1993" on="1"/>
        <pt x="616" y="1993" on="1"/>
        <pt x="616" y="-492" on="1"/>
        <pt x="471" y="-492" on="1"/>
      </contour>
    </TTGlyph>
    <TTGlyph name="SF190000" xMin="-10" yMin="-492" xMax="799" yMax="1993">
      <contour>
        <pt x="-10" y="498" on="1"/>
        <pt x="-10" y="643" on="1"/>
        <pt x="653" y="643" on="1"/>
        <pt x="653" y="858" on="1"/>
        <pt x="-10" y="858" on="1"/>
        <pt x="-10" y="1004" on="1"/>
        <pt x="653" y="1004" on="1"/>
        <pt x="653" y="1993" on="1"/>
        <pt x="799" y="1993" on="1"/>
        <pt x="799" y="-492" on="1"/>
        <pt x="653" y="-492" on="1"/>
        <pt x="653" y="498" on="1"/>
      </contour>
    </TTGlyph>
    <TTGlyph name="SF200000" xMin="-10" yMin="-492" xMax="979" yMax="1993">
      <contour>
        <pt x="-10" y="678" on="1"/>
        <pt x="-10" y="823" on="1"/>
        <pt x="473" y="823" on="1"/>
        <pt x="473" y="1993" on="1"/>
        <pt x="618" y="1993" on="1"/>
        <pt x="618" y="-492" on="1"/>
        <pt x="473" y="-492" on="1"/>
        <pt x="473" y="678" on="1"/>
      </contour>
      <contour>
        <pt x="834" y="1993" on="1"/>
        <pt x="979" y="1993" on="1"/>
        <pt x="979" y="-492" on="1"/>
        <pt x="834" y="-492" on="1"/>
      </contour>
    </TTGlyph>
    <TTGlyph name="SF210000" xMin="-10" yMin="-492" xMax="979" yMax="823">
      <contour>
        <pt x="-10" y="678" on="1"/>
        <pt x="-10" y="823" on="1"/>
        <pt x="979" y="823" on="1"/>
        <pt x="979" y="-492" on="1"/>
        <pt x="834" y="-492" on="1"/>
        <pt x="834" y="678" on="1"/>
        <pt x="618" y="678" on="1"/>
        <pt x="618" y="-492" on="1"/>
        <pt x="473" y="-492" on="1"/>
        <pt x="473" y="678" on="1"/>
      </contour>
    </TTGlyph>
    <TTGlyph name="SF220000" xMin="-10" yMin="-492" xMax="799" yMax="1004">
      <contour>
        <pt x="-10" y="498" on="1"/>
        <pt x="-10" y="643" on="1"/>
        <pt x="653" y="643" on="1"/>
        <pt x="653" y="858" on="1"/>
        <pt x="-10" y="858" on="1"/>
        <pt x="-10" y="1004" on="1"/>
        <pt x="799" y="1004" on="1"/>
        <pt x="799" y="-492" on="1"/>
        <pt x="653" y="-492" on="1"/>
        <pt x="653" y="498" on="1"/>
      </contour>
    </TTGlyph>
    <TTGlyph name="SF230000" xMin="-10" yMin="-492" xMax="979" yMax="1993">
      <contour>
        <pt x="834" y="1993" on="1"/>
        <pt x="979" y="1993" on="1"/>
        <pt x="979" y="-492" on="1"/>
        <pt x="834" y="-492" on="1"/>
      </contour>
      <contour>
        <pt x="473" y="1993" on="1"/>
        <pt x="618" y="1993" on="1"/>
        <pt x="618" y="858" on="1"/>
        <pt x="-10" y="858" on="1"/>
        <pt x="-10" y="1004" on="1"/>
        <pt x="473" y="1004" on="1"/>
      </contour>
      <contour>
        <pt x="618" y="-492" on="1"/>
        <pt x="473" y="-492" on="1"/>
        <pt x="473" y="498" on="1"/>
        <pt x="-10" y="498" on="1"/>
        <pt x="-10" y="643" on="1"/>
        <pt x="618" y="643" on="1"/>
      </contour>
    </TTGlyph>
    <TTGlyph name="SF240000" xMin="473" yMin="-492" xMax="979" yMax="1993">
      <contour>
        <pt x="473" y="1993" on="1"/>
        <pt x="618" y="1993" on="1"/>
        <pt x="618" y="-492" on="1"/>
        <pt x="473" y="-492" on="1"/>
      </contour>
      <contour>
        <pt x="834" y="1993" on="1"/>
        <pt x="979" y="1993" on="1"/>
        <pt x="979" y="-492" on="1"/>
        <pt x="834" y="-492" on="1"/>
      </contour>
    </TTGlyph>
    <TTGlyph name="SF250000" xMin="-10" yMin="-492" xMax="979" yMax="1004">
      <contour>
        <pt x="979" y="1004" on="1"/>
        <pt x="979" y="-492" on="1"/>
        <pt x="834" y="-492" on="1"/>
        <pt x="834" y="858" on="1"/>
        <pt x="-10" y="858" on="1"/>
        <pt x="-10" y="1004" on="1"/>
      </contour>
      <contour>
        <pt x="618" y="-492" on="1"/>
        <pt x="473" y="-492" on="1"/>
        <pt x="473" y="498" on="1"/>
        <pt x="-10" y="498" on="1"/>
        <pt x="-10" y="643" on="1"/>
        <pt x="618" y="643" on="1"/>
      </contour>
    </TTGlyph>
    <TTGlyph name="SF260000" xMin="-10" yMin="498" xMax="979" yMax="1993">
      <contour>
        <pt x="979" y="498" on="1"/>
        <pt x="-10" y="498" on="1"/>
        <pt x="-10" y="643" on="1"/>
        <pt x="834" y="643" on="1"/>
        <pt x="834" y="1993" on="1"/>
        <pt x="979" y="1993" on="1"/>
      </contour>
      <contour>
        <pt x="473" y="1993" on="1"/>
        <pt x="618" y="1993" on="1"/>
        <pt x="618" y="858" on="1"/>
        <pt x="-10" y="858" on="1"/>
        <pt x="-10" y="1004" on="1"/>
        <pt x="473" y="1004" on="1"/>
      </contour>
    </TTGlyph>
    <TTGlyph name="SF270000" xMin="-10" yMin="678" xMax="979" yMax="1993">
      <contour>
        <pt x="979" y="678" on="1"/>
        <pt x="-10" y="678" on="1"/>
        <pt x="-10" y="823" on="1"/>
        <pt x="473" y="823" on="1"/>
        <pt x="473" y="1993" on="1"/>
        <pt x="618" y="1993" on="1"/>
        <pt x="618" y="823" on="1"/>
        <pt x="834" y="823" on="1"/>
        <pt x="834" y="1993" on="1"/>
        <pt x="979" y="1993" on="1"/>
      </contour>
    </TTGlyph>
    <TTGlyph name="SF280000" xMin="-10" yMin="498" xMax="799" yMax="1993">
      <contour>
        <pt x="-10" y="498" on="1"/>
        <pt x="-10" y="643" on="1"/>
        <pt x="653" y="643" on="1"/>
        <pt x="653" y="858" on="1"/>
        <pt x="-10" y="858" on="1"/>
        <pt x="-10" y="1004" on="1"/>
        <pt x="653" y="1004" on="1"/>
        <pt x="653" y="1993" on="1"/>
        <pt x="799" y="1993" on="1"/>
        <pt x="799" y="498" on="1"/>
      </contour>
    </TTGlyph>
    <TTGlyph name="SF360000" xMin="653" yMin="-492" xMax="1460" yMax="1993">
      <contour>
        <pt x="653" y="1993" on="1"/>
        <pt x="799" y="1993" on="1"/>
        <pt x="799" y="1004" on="1"/>
        <pt x="1460" y="1004" on="1"/>
        <pt x="1460" y="858" on="1"/>
        <pt x="799" y="858" on="1"/>
        <pt x="799" y="643" on="1"/>
        <pt x="1460" y="643" on="1"/>
        <pt x="1460" y="498" on="1"/>
        <pt x="799" y="498" on="1"/>
        <pt x="799" y="-492" on="1"/>
        <pt x="653" y="-492" on="1"/>
      </contour>
    </TTGlyph>
    <TTGlyph name="SF370000" xMin="473" yMin="-492" xMax="1460" yMax="1993">
      <contour>
        <pt x="834" y="1993" on="1"/>
        <pt x="979" y="1993" on="1"/>
        <pt x="979" y="823" on="1"/>
        <pt x="1460" y="823" on="1"/>
        <pt x="1460" y="678" on="1"/>
        <pt x="979" y="678" on="1"/>
        <pt x="979" y="-492" on="1"/>
        <pt x="834" y="-492" on="1"/>
      </contour>
      <contour>
        <pt x="473" y="1993" on="1"/>
        <pt x="618" y="1993" on="1"/>
        <pt x="618" y="-492" on="1"/>
        <pt x="473" y="-492" on="1"/>
      </contour>
    </TTGlyph>
    <TTGlyph name="SF380000" xMin="473" yMin="498" xMax="1460" yMax="1993">
      <contour>
        <pt x="473" y="1993" on="1"/>
        <pt x="618" y="1993" on="1"/>
        <pt x="618" y="643" on="1"/>
        <pt x="1460" y="643" on="1"/>
        <pt x="1460" y="498" on="1"/>
        <pt x="473" y="498" on="1"/>
      </contour>
      <contour>
        <pt x="834" y="1993" on="1"/>
        <pt x="979" y="1993" on="1"/>
        <pt x="979" y="1004" on="1"/>
        <pt x="1460" y="1004" on="1"/>
        <pt x="1460" y="858" on="1"/>
        <pt x="834" y="858" on="1"/>
      </contour>
    </TTGlyph>
    <TTGlyph name="SF390000" xMin="473" yMin="-492" xMax="1460" yMax="1004">
      <contour>
        <pt x="473" y="1004" on="1"/>
        <pt x="1460" y="1004" on="1"/>
        <pt x="1460" y="858" on="1"/>
        <pt x="618" y="858" on="1"/>
        <pt x="618" y="-492" on="1"/>
        <pt x="473" y="-492" on="1"/>
      </contour>
      <contour>
        <pt x="834" y="643" on="1"/>
        <pt x="1460" y="643" on="1"/>
        <pt x="1460" y="498" on="1"/>
        <pt x="979" y="498" on="1"/>
        <pt x="979" y="-492" on="1"/>
        <pt x="834" y="-492" on="1"/>
      </contour>
    </TTGlyph>
    <TTGlyph name="SF400000" xMin="-10" yMin="498" xMax="1460" yMax="1993">
      <contour>
        <pt x="834" y="1993" on="1"/>
        <pt x="979" y="1993" on="1"/>
        <pt x="979" y="1004" on="1"/>
        <pt x="1460" y="1004" on="1"/>
        <pt x="1460" y="858" on="1"/>
        <pt x="834" y="858" on="1"/>
      </contour>
      <contour>
        <pt x="473" y="1993" on="1"/>
        <pt x="618" y="1993" on="1"/>
        <pt x="618" y="858" on="1"/>
        <pt x="-10" y="858" on="1"/>
        <pt x="-10" y="1004" on="1"/>
        <pt x="473" y="1004" on="1"/>
      </contour>
      <contour>
        <pt x="-10" y="498" on="1"/>
        <pt x="-10" y="643" on="1"/>
        <pt x="1460" y="643" on="1"/>
        <pt x="1460" y="498" on="1"/>
      </contour>
    </TTGlyph>
    <TTGlyph name="SF410000" xMin="-10" yMin="-492" xMax="1460" yMax="1004">
      <contour>
        <pt x="618" y="-492" on="1"/>
        <pt x="473" y="-492" on="1"/>
        <pt x="473" y="498" on="1"/>
        <pt x="-10" y="498" on="1"/>
        <pt x="-10" y="643" on="1"/>
        <pt x="618" y="643" on="1"/>
      </contour>
      <contour>
        <pt x="834" y="643" on="1"/>
        <pt x="1460" y="643" on="1"/>
        <pt x="1460" y="498" on="1"/>
        <pt x="979" y="498" on="1"/>
        <pt x="979" y="-492" on="1"/>
        <pt x="834" y="-492" on="1"/>
      </contour>
      <contour>
        <pt x="1460" y="1004" on="1"/>
        <pt x="1460" y="858" on="1"/>
        <pt x="-10" y="858" on="1"/>
        <pt x="-10" y="1004" on="1"/>
      </contour>
    </TTGlyph>
    <TTGlyph name="SF420000" xMin="473" yMin="-492" xMax="1460" yMax="1993">
      <contour>
        <pt x="618" y="-492" on="1"/>
        <pt x="473" y="-492" on="1"/>
        <pt x="473" y="1993" on="1"/>
        <pt x="618" y="1993" on="1"/>
      </contour>
      <contour>
        <pt x="834" y="643" on="1"/>
        <pt x="1460" y="643" on="1"/>
        <pt x="1460" y="498" on="1"/>
        <pt x="979" y="498" on="1"/>
        <pt x="979" y="-492" on="1"/>
        <pt x="834" y="-492" on="1"/>
      </contour>
      <contour>
        <pt x="834" y="1993" on="1"/>
        <pt x="979" y="1993" on="1"/>
        <pt x="979" y="1004" on="1"/>
        <pt x="1460" y="1004" on="1"/>
        <pt x="1460" y="858" on="1"/>
        <pt x="834" y="858" on="1"/>
      </contour>
    </TTGlyph>
    <TTGlyph name="SF430000" xMin="-10" yMin="498" xMax="1460" yMax="1004">
      <contour>
        <pt x="-10" y="858" on="1"/>
        <pt x="-10" y="1004" on="1"/>
        <pt x="1460" y="1004" on="1"/>
        <pt x="1460" y="858" on="1"/>
      </contour>
      <contour>
        <pt x="-10" y="498" on="1"/>
        <pt x="-10" y="643" on="1"/>
        <pt x="1460" y="643" on="1"/>
        <pt x="1460" y="498" on="1"/>
      </contour>
    </TTGlyph>
    <TTGlyph name="SF440000" xMin="-10" yMin="-492" xMax="1460" yMax="1993">
      <contour>
        <pt x="834" y="1993" on="1"/>
        <pt x="979" y="1993" on="1"/>
        <pt x="979" y="1004" on="1"/>
        <pt x="1460" y="1004" on="1"/>
        <pt x="1460" y="858" on="1"/>
        <pt x="834" y="858" on="1"/>
      </contour>
      <contour>
        <pt x="618" y="-492" on="1"/>
        <pt x="473" y="-492" on="1"/>
        <pt x="473" y="498" on="1"/>
        <pt x="-10" y="498" on="1"/>
        <pt x="-10" y="643" on="1"/>
        <pt x="618" y="643" on="1"/>
      </contour>
      <contour>
        <pt x="834" y="643" on="1"/>
        <pt x="1460" y="643" on="1"/>
        <pt x="1460" y="498" on="1"/>
        <pt x="979" y="498" on="1"/>
        <pt x="979" y="-492" on="1"/>
        <pt x="834" y="-492" on="1"/>
      </contour>
      <contour>
        <pt x="473" y="1993" on="1"/>
        <pt x="618" y="1993" on="1"/>
        <pt x="618" y="858" on="1"/>
        <pt x="-10" y="858" on="1"/>
        <pt x="-10" y="1004" on="1"/>
        <pt x="473" y="1004" on="1"/>
      </contour>
    </TTGlyph>
    <TTGlyph name="SF450000" xMin="-10" yMin="498" xMax="1460" yMax="1993">
      <contour>
        <pt x="-10" y="858" on="1"/>
        <pt x="-10" y="1004" on="1"/>
        <pt x="653" y="1004" on="1"/>
        <pt x="653" y="1993" on="1"/>
        <pt x="799" y="1993" on="1"/>
        <pt x="799" y="1004" on="1"/>
        <pt x="1460" y="1004" on="1"/>
        <pt x="1460" y="858" on="1"/>
      </contour>
      <contour>
        <pt x="-10" y="498" on="1"/>
        <pt x="-10" y="643" on="1"/>
        <pt x="1460" y="643" on="1"/>
        <pt x="1460" y="498" on="1"/>
      </contour>
    </TTGlyph>
    <TTGlyph name="SF460000" xMin="-10" yMin="678" xMax="1460" yMax="1993">
      <contour>
        <pt x="-10" y="678" on="1"/>
        <pt x="-10" y="823" on="1"/>
        <pt x="473" y="823" on="1"/>
        <pt x="473" y="1993" on="1"/>
        <pt x="618" y="1993" on="1"/>
        <pt x="618" y="823" on="1"/>
        <pt x="834" y="823" on="1"/>
        <pt x="834" y="1993" on="1"/>
        <pt x="979" y="1993" on="1"/>
        <pt x="979" y="823" on="1"/>
        <pt x="1460" y="823" on="1"/>
        <pt x="1460" y="678" on="1"/>
      </contour>
    </TTGlyph>
    <TTGlyph name="SF470000" xMin="-10" yMin="-492" xMax="1460" yMax="1004">
      <contour>
        <pt x="-10" y="498" on="1"/>
        <pt x="-10" y="643" on="1"/>
        <pt x="1460" y="643" on="1"/>
        <pt x="1460" y="498" on="1"/>
        <pt x="799" y="498" on="1"/>
        <pt x="799" y="-492" on="1"/>
        <pt x="653" y="-492" on="1"/>
        <pt x="653" y="498" on="1"/>
      </contour>
      <contour>
        <pt x="-10" y="858" on="1"/>
        <pt x="-10" y="1004" on="1"/>
        <pt x="1460" y="1004" on="1"/>
        <pt x="1460" y="858" on="1"/>
      </contour>
    </TTGlyph>
    <TTGlyph name="SF480000" xMin="-10" yMin="-492" xMax="1460" yMax="823">
      <contour>
        <pt x="-10" y="678" on="1"/>
        <pt x="-10" y="823" on="1"/>
        <pt x="1460" y="823" on="1"/>
        <pt x="1460" y="678" on="1"/>
        <pt x="979" y="678" on="1"/>
        <pt x="979" y="-492" on="1"/>
        <pt x="834" y="-492" on="1"/>
        <pt x="834" y="678" on="1"/>
        <pt x="618" y="678" on="1"/>
        <pt x="618" y="-492" on="1"/>
        <pt x="473" y="-492" on="1"/>
        <pt x="473" y="678" on="1"/>
      </contour>
    </TTGlyph>
    <TTGlyph name="SF490000" xMin="473" yMin="678" xMax="1460" yMax="1993">
      <contour>
        <pt x="834" y="1993" on="1"/>
        <pt x="979" y="1993" on="1"/>
        <pt x="979" y="823" on="1"/>
        <pt x="1460" y="823" on="1"/>
        <pt x="1460" y="678" on="1"/>
        <pt x="473" y="678" on="1"/>
        <pt x="473" y="1993" on="1"/>
        <pt x="618" y="1993" on="1"/>
        <pt x="618" y="823" on="1"/>
        <pt x="834" y="823" on="1"/>
      </contour>
    </TTGlyph>
    <TTGlyph name="SF500000" xMin="653" yMin="498" xMax="1460" yMax="1993">
      <contour>
        <pt x="653" y="1993" on="1"/>
        <pt x="799" y="1993" on="1"/>
        <pt x="799" y="1004" on="1"/>
        <pt x="1460" y="1004" on="1"/>
        <pt x="1460" y="858" on="1"/>
        <pt x="799" y="858" on="1"/>
        <pt x="799" y="643" on="1"/>
        <pt x="1460" y="643" on="1"/>
        <pt x="1460" y="498" on="1"/>
        <pt x="653" y="498" on="1"/>
      </contour>
    </TTGlyph>
    <TTGlyph name="SF510000" xMin="653" yMin="-492" xMax="1460" yMax="1004">
      <contour>
        <pt x="653" y="1004" on="1"/>
        <pt x="1460" y="1004" on="1"/>
        <pt x="1460" y="858" on="1"/>
        <pt x="799" y="858" on="1"/>
        <pt x="799" y="643" on="1"/>
        <pt x="1460" y="643" on="1"/>
        <pt x="1460" y="498" on="1"/>
        <pt x="799" y="498" on="1"/>
        <pt x="799" y="-492" on="1"/>
        <pt x="653" y="-492" on="1"/>
      </contour>
    </TTGlyph>
    <TTGlyph name="SF520000" xMin="473" yMin="-492" xMax="1460" yMax="823">
      <contour>
        <pt x="1460" y="823" on="1"/>
        <pt x="1460" y="678" on="1"/>
        <pt x="979" y="678" on="1"/>
        <pt x="979" y="-492" on="1"/>
        <pt x="834" y="-492" on="1"/>
        <pt x="834" y="678" on="1"/>
        <pt x="618" y="678" on="1"/>
        <pt x="618" y="-492" on="1"/>
        <pt x="473" y="-492" on="1"/>
        <pt x="473" y="823" on="1"/>
      </contour>
    </TTGlyph>
    <TTGlyph name="SF530000" xMin="-10" yMin="-492" xMax="1460" yMax="1993">
      <contour>
        <pt x="834" y="1993" on="1"/>
        <pt x="979" y="1993" on="1"/>
        <pt x="979" y="823" on="1"/>
        <pt x="1460" y="823" on="1"/>
        <pt x="1460" y="678" on="1"/>
        <pt x="979" y="678" on="1"/>
        <pt x="979" y="-492" on="1"/>
        <pt x="834" y="-492" on="1"/>
        <pt x="834" y="678" on="1"/>
        <pt x="618" y="678" on="1"/>
        <pt x="618" y="-492" on="1"/>
        <pt x="473" y="-492" on="1"/>
        <pt x="473" y="678" on="1"/>
        <pt x="-10" y="678" on="1"/>
        <pt x="-10" y="823" on="1"/>
        <pt x="473" y="823" on="1"/>
        <pt x="473" y="1993" on="1"/>
        <pt x="618" y="1993" on="1"/>
        <pt x="618" y="823" on="1"/>
        <pt x="834" y="823" on="1"/>
      </contour>
    </TTGlyph>
    <TTGlyph name="SF540000" xMin="-10" yMin="-492" xMax="1460" yMax="1993">
      <contour>
        <pt x="-10" y="498" on="1"/>
        <pt x="-10" y="643" on="1"/>
        <pt x="653" y="643" on="1"/>
        <pt x="653" y="858" on="1"/>
        <pt x="-10" y="858" on="1"/>
        <pt x="-10" y="1004" on="1"/>
        <pt x="653" y="1004" on="1"/>
        <pt x="653" y="1993" on="1"/>
        <pt x="799" y="1993" on="1"/>
        <pt x="799" y="1004" on="1"/>
        <pt x="1460" y="1004" on="1"/>
        <pt x="1460" y="858" on="1"/>
        <pt x="799" y="858" on="1"/>
        <pt x="799" y="643" on="1"/>
        <pt x="1460" y="643" on="1"/>
        <pt x="1460" y="498" on="1"/>
        <pt x="799" y="498" on="1"/>
        <pt x="799" y="-492" on="1"/>
        <pt x="653" y="-492" on="1"/>
        <pt x="653" y="498" on="1"/>
      </contour>
    </TTGlyph>
    <TTGlyph name="Sacute" xMin="94" yMin="-20" xMax="1047" yMax="1907">
      <component glyphName="S" x="0" y="0" flags="0x204"/>
      <component glyphName="acute" x="78" y="338" flags="0x4"/>
    </TTGlyph>
    <TTGlyph name="Scaron" xMin="94" yMin="-20" xMax="1047" yMax="1907">
      <component glyphName="S" x="0" y="0" flags="0x204"/>
      <component glyphName="caron" x="-22" y="338" flags="0x4"/>
    </TTGlyph>
    <TTGlyph name="Scedilla" xMin="94" yMin="-492" xMax="1047" yMax="1483">
      <component glyphName="S" x="0" y="0" flags="0x204"/>
      <component glyphName="cedilla" x="354" y="0" flags="0x4"/>
    </TTGlyph>
    <TTGlyph name="Scircumflex" xMin="94" yMin="-20" xMax="1047" yMax="1907">
      <component glyphName="S" x="0" y="0" flags="0x204"/>
      <component glyphName="circumflex" x="-22" y="338" flags="0x4"/>
    </TTGlyph>
    <TTGlyph name="Scommaaccent" xMin="94" yMin="-453" xMax="1047" yMax="1483">
      <component glyphName="S" x="0" y="0" flags="0x204"/>
      <component glyphName="glyph00569" x="-5" y="0" flags="0x4"/>
    </TTGlyph>
    <TTGlyph name="Sigma" xMin="78" yMin="0" xMax="1145" yMax="1462">
      <contour>
        <pt x="78" y="0" on="1"/>
        <pt x="78" y="244" on="1"/>
        <pt x="549" y="766" on="1"/>
        <pt x="90" y="1225" on="1"/>
        <pt x="90" y="1462" on="1"/>
        <pt x="1085" y="1462" on="1"/>
        <pt x="1085" y="1208" on="1"/>
        <pt x="647" y="1208" on="1"/>
        <pt x="596" y="1208" on="0"/>
        <pt x="420" y="1219" on="1"/>
        <pt x="874" y="768" on="1"/>
        <pt x="397" y="244" on="1"/>
        <pt x="637" y="256" on="0"/>
        <pt x="682" y="256" on="1"/>
        <pt x="1145" y="256" on="1"/>
        <pt x="1145" y="0" on="1"/>
      </contour>
    </TTGlyph>
    <TTGlyph name="T" xMin="41" yMin="0" xMax="1145" yMax="1462">
      <contour>
        <pt x="748" y="0" on="1"/>
        <pt x="438" y="0" on="1"/>
        <pt x="438" y="1204" on="1"/>
        <pt x="41" y="1204" on="1"/>
        <pt x="41" y="1462" on="1"/>
        <pt x="1145" y="1462" on="1"/>
        <pt x="1145" y="1204" on="1"/>
        <pt x="748" y="1204" on="1"/>
      </contour>
    </TTGlyph>
    <TTGlyph name="Tau" xMin="41" yMin="0" xMax="1145" yMax="1462">
      <component glyphName="T" x="0" y="0" flags="0x204"/>
    </TTGlyph>
    <TTGlyph name="Tbar" xMin="41" yMin="0" xMax="1145" yMax="1462">
      <contour>
        <pt x="748" y="0" on="1"/>
        <pt x="438" y="0" on="1"/>
        <pt x="438" y="596" on="1"/>
        <pt x="190" y="596" on="1"/>
        <pt x="190" y="850" on="1"/>
        <pt x="438" y="850" on="1"/>
        <pt x="438" y="1204" on="1"/>
        <pt x="41" y="1204" on="1"/>
        <pt x="41" y="1462" on="1"/>
        <pt x="1145" y="1462" on="1"/>
        <pt x="1145" y="1204" on="1"/>
        <pt x="748" y="1204" on="1"/>
        <pt x="748" y="850" on="1"/>
        <pt x="995" y="850" on="1"/>
        <pt x="995" y="596" on="1"/>
        <pt x="748" y="596" on="1"/>
      </contour>
    </TTGlyph>
    <TTGlyph name="Tcaron" xMin="41" yMin="0" xMax="1145" yMax="1907">
      <component glyphName="T" x="0" y="0" flags="0x204"/>
      <component glyphName="caron" x="-26" y="338" flags="0x4"/>
    </TTGlyph>
    <TTGlyph name="Tcommaaccent" xMin="41" yMin="-492" xMax="1145" yMax="1462">
      <component glyphName="T" x="0" y="0" flags="0x204"/>
      <component glyphName="cedilla" x="412" y="0" flags="0x4"/>
    </TTGlyph>
    <TTGlyph name="Theta" xMin="119" yMin="-20" xMax="1511" yMax="1485">
      <contour>
        <pt x="1075" y="870" on="1"/>
        <pt x="1075" y="616" on="1"/>
        <pt x="555" y="616" on="1"/>
        <pt x="555" y="870" on="1"/>
      </contour>
      <contour>
        <pt x="1511" y="733" on="1"/>
        <pt x="1511" y="370" on="0"/>
        <pt x="1151" y="-20" on="0"/>
        <pt x="815" y="-20" on="1"/>
        <pt x="479" y="-20" on="0"/>
        <pt x="119" y="370" on="0"/>
        <pt x="119" y="735" on="1"/>
        <pt x="119" y="1100" on="0"/>
        <pt x="480" y="1485" on="0"/>
        <pt x="817" y="1485" on="1"/>
        <pt x="1154" y="1485" on="0"/>
        <pt x="1511" y="1097" on="0"/>
      </contour>
      <contour>
        <pt x="438" y="733" on="1"/>
        <pt x="438" y="491" on="0"/>
        <pt x="629" y="240" on="0"/>
        <pt x="815" y="240" on="1"/>
        <pt x="1004" y="240" on="0"/>
        <pt x="1192" y="491" on="0"/>
        <pt x="1192" y="733" on="1"/>
        <pt x="1192" y="975" on="0"/>
        <pt x="1004" y="1227" on="0"/>
        <pt x="817" y="1227" on="1"/>
        <pt x="630" y="1227" on="0"/>
        <pt x="438" y="976" on="0"/>
      </contour>
    </TTGlyph>
    <TTGlyph name="Thorn" xMin="184" yMin="0" xMax="1194" yMax="1462">
      <contour>
        <pt x="1194" y="770" on="1"/>
        <pt x="1194" y="541" on="0"/>
        <pt x="909" y="293" on="0"/>
        <pt x="647" y="293" on="1"/>
        <pt x="494" y="293" on="1"/>
        <pt x="494" y="0" on="1"/>
        <pt x="184" y="0" on="1"/>
        <pt x="184" y="1462" on="1"/>
        <pt x="494" y="1462" on="1"/>
        <pt x="494" y="1233" on="1"/>
        <pt x="672" y="1233" on="1"/>
        <pt x="926" y="1233" on="0"/>
        <pt x="1194" y="995" on="0"/>
      </contour>
      <contour>
        <pt x="494" y="543" on="1"/>
        <pt x="594" y="543" on="1"/>
        <pt x="739" y="543" on="0"/>
        <pt x="881" y="648" on="0"/>
        <pt x="881" y="770" on="1"/>
        <pt x="881" y="877" on="0"/>
        <pt x="754" y="981" on="0"/>
        <pt x="618" y="981" on="1"/>
        <pt x="494" y="981" on="1"/>
      </contour>
    </TTGlyph>
    <TTGlyph name="U" xMin="174" yMin="-20" xMax="1374" yMax="1462">
      <contour>
        <pt x="1374" y="1462" on="1"/>
        <pt x="1374" y="516" on="1"/>
        <pt x="1374" y="354" on="0"/>
        <pt x="1229" y="110" on="0"/>
        <pt x="955" y="-20" on="0"/>
        <pt x="768" y="-20" on="1"/>
        <pt x="486" y="-20" on="0"/>
        <pt x="174" y="269" on="0"/>
        <pt x="174" y="520" on="1"/>
        <pt x="174" y="1462" on="1"/>
        <pt x="483" y="1462" on="1"/>
        <pt x="483" y="567" on="1"/>
        <pt x="483" y="398" on="0"/>
        <pt x="619" y="240" on="0"/>
        <pt x="776" y="240" on="1"/>
        <pt x="928" y="240" on="0"/>
        <pt x="1065" y="399" on="0"/>
        <pt x="1065" y="569" on="1"/>
        <pt x="1065" y="1462" on="1"/>
      </contour>
    </TTGlyph>
    <TTGlyph name="Uacute" xMin="174" yMin="-20" xMax="1374" yMax="1907">
      <component glyphName="U" x="0" y="0" flags="0x204"/>
      <component glyphName="acute" x="270" y="338" flags="0x4"/>
    </TTGlyph>
    <TTGlyph name="Ubreve" xMin="174" yMin="-20" xMax="1374" yMax="1917">
      <component glyphName="U" x="0" y="0" flags="0x204"/>
      <component glyphName="breve" x="154" y="338" flags="0x4"/>
    </TTGlyph>
    <TTGlyph name="Ucircumflex" xMin="174" yMin="-20" xMax="1374" yMax="1907">
      <component glyphName="U" x="0" y="0" flags="0x204"/>
      <component glyphName="circumflex" x="154" y="338" flags="0x4"/>
    </TTGlyph>
    <TTGlyph name="Udieresis" xMin="174" yMin="-20" xMax="1374" yMax="1878">
      <component glyphName="U" x="0" y="0" flags="0x204"/>
      <component glyphName="dieresis" x="154" y="338" flags="0x4"/>
    </TTGlyph>
    <TTGlyph name="Ugrave" xMin="174" yMin="-20" xMax="1374" yMax="1907">
      <component glyphName="U" x="0" y="0" flags="0x204"/>
      <component glyphName="grave" x="43" y="338" flags="0x4"/>
    </TTGlyph>
    <TTGlyph name="Uhorn" xMin="174" yMin="-20" xMax="1833" yMax="1556">
      <contour>
        <pt x="1374" y="1462" on="1"/>
        <pt x="1374" y="1274" on="1"/>
        <pt x="1448" y="1300" on="0"/>
        <pt x="1518" y="1450" on="0"/>
        <pt x="1518" y="1556" on="1"/>
        <pt x="1819" y="1556" on="1"/>
        <pt x="1833" y="1534" on="1"/>
        <pt x="1801" y="1380" on="0"/>
        <pt x="1694" y="1213" on="0"/>
        <pt x="1512" y="1110" on="0"/>
        <pt x="1374" y="1090" on="1"/>
        <pt x="1374" y="516" on="1"/>
        <pt x="1374" y="354" on="0"/>
        <pt x="1229" y="110" on="0"/>
        <pt x="955" y="-20" on="0"/>
        <pt x="768" y="-20" on="1"/>
        <pt x="486" y="-20" on="0"/>
        <pt x="174" y="269" on="0"/>
        <pt x="174" y="520" on="1"/>
        <pt x="174" y="1462" on="1"/>
        <pt x="483" y="1462" on="1"/>
        <pt x="483" y="543" on="1"/>
        <pt x="483" y="387" on="0"/>
        <pt x="624" y="240" on="0"/>
        <pt x="776" y="240" on="1"/>
        <pt x="928" y="240" on="0"/>
        <pt x="1065" y="393" on="0"/>
        <pt x="1065" y="545" on="1"/>
        <pt x="1065" y="1462" on="1"/>
      </contour>
    </TTGlyph>
    <TTGlyph name="Uhungarumlaut" xMin="174" yMin="-20" xMax="1374" yMax="1907">
      <component glyphName="U" x="0" y="0" flags="0x204"/>
      <component glyphName="hungarumlaut" x="285" y="338" flags="0x4"/>
    </TTGlyph>
    <TTGlyph name="Umacron" xMin="174" yMin="-20" xMax="1374" yMax="1790">
      <component glyphName="U" x="0" y="0" flags="0x204"/>
      <component glyphName="uni02C9" x="154" y="338" flags="0x4"/>
    </TTGlyph>
    <TTGlyph name="Uogonek" xMin="174" yMin="-492" xMax="1374" yMax="1462">
      <component glyphName="U" x="0" y="0" flags="0x204"/>
      <component glyphName="ogonek" x="584" y="0" flags="0x4"/>
    </TTGlyph>
    <TTGlyph name="Upsilon" xMin="0" yMin="0" xMax="1278" yMax="1462">
      <component glyphName="Y" x="0" y="0" flags="0x204"/>
    </TTGlyph>
    <TTGlyph name="Upsilon1" xMin="0" yMin="0" xMax="1286" yMax="1475">
      <contour>
        <pt x="637" y="852" on="1"/>
        <pt x="699" y="988" on="0"/>
        <pt x="819" y="1233" on="0"/>
        <pt x="923" y="1409" on="0"/>
        <pt x="1040" y="1475" on="0"/>
        <pt x="1135" y="1475" on="1"/>
        <pt x="1220" y="1475" on="0"/>
        <pt x="1286" y="1448" on="1"/>
        <pt x="1286" y="1219" on="1"/>
        <pt x="1242" y="1231" on="0"/>
        <pt x="1217" y="1231" on="1"/>
        <pt x="1177" y="1231" on="0"/>
        <pt x="1124" y="1188" on="0"/>
        <pt x="1098" y="1149" on="1"/>
        <pt x="1031" y="1053" on="0"/>
        <pt x="849" y="697" on="0"/>
        <pt x="795" y="555" on="1"/>
        <pt x="795" y="0" on="1"/>
        <pt x="487" y="0" on="1"/>
        <pt x="487" y="559" on="1"/>
        <pt x="0" y="1462" on="1"/>
        <pt x="336" y="1462" on="1"/>
      </contour>
    </TTGlyph>
    <TTGlyph name="Upsilondieresis" xMin="0" yMin="0" xMax="1278" yMax="1878">
      <component glyphName="Y" x="0" y="0" flags="0x204"/>
      <component glyphName="dieresis" x="20" y="338" flags="0x4"/>
    </TTGlyph>
    <TTGlyph name="Upsilontonos" xMin="-120" yMin="0" xMax="1565" yMax="1525">
      <component glyphName="Y" x="287" y="0" flags="0x4"/>
      <component glyphName="tonos" x="-591" y="-105" flags="0x4"/>
    </TTGlyph>
    <TTGlyph name="Uring" xMin="174" yMin="-20" xMax="1374" yMax="2052">
      <component glyphName="U" x="0" y="0" flags="0x204"/>
      <component glyphName="ring" x="184" y="338" flags="0x4"/>
    </TTGlyph>
    <TTGlyph name="Utilde" xMin="174" yMin="-20" xMax="1374" yMax="1888">
      <component glyphName="U" x="0" y="0" flags="0x204"/>
      <component glyphName="tilde" x="156" y="338" flags="0x4"/>
    </TTGlyph>
    <TTGlyph name="V" xMin="0" yMin="0" xMax="1331" yMax="1462">
      <contour>
        <pt x="1018" y="1462" on="1"/>
        <pt x="1331" y="1462" on="1"/>
        <pt x="834" y="0" on="1"/>
        <pt x="496" y="0" on="1"/>
        <pt x="0" y="1462" on="1"/>
        <pt x="313" y="1462" on="1"/>
        <pt x="588" y="592" on="1"/>
        <pt x="611" y="515" on="0"/>
        <pt x="660" y="310" on="0"/>
        <pt x="666" y="270" on="1"/>
        <pt x="677" y="362" on="0"/>
        <pt x="741" y="592" on="1"/>
      </contour>
    </TTGlyph>
    <TTGlyph name="W" xMin="0" yMin="0" xMax="1980" yMax="1462">
      <contour>
        <pt x="1608" y="0" on="1"/>
        <pt x="1255" y="0" on="1"/>
        <pt x="1057" y="768" on="1"/>
        <pt x="1046" y="809" on="0"/>
        <pt x="993" y="1066" on="0"/>
        <pt x="989" y="1110" on="1"/>
        <pt x="983" y="1056" on="0"/>
        <pt x="935" y="817" on="0"/>
        <pt x="922" y="766" on="1"/>
        <pt x="725" y="0" on="1"/>
        <pt x="373" y="0" on="1"/>
        <pt x="0" y="1462" on="1"/>
        <pt x="305" y="1462" on="1"/>
        <pt x="492" y="664" on="1"/>
        <pt x="541" y="443" on="0"/>
        <pt x="563" y="281" on="1"/>
        <pt x="569" y="338" on="0"/>
        <pt x="612" y="577" on="0"/>
        <pt x="631" y="643" on="1"/>
        <pt x="844" y="1462" on="1"/>
        <pt x="1137" y="1462" on="1"/>
        <pt x="1350" y="643" on="1"/>
        <pt x="1364" y="588" on="0"/>
        <pt x="1406" y="362" on="0"/>
        <pt x="1417" y="281" on="1"/>
        <pt x="1427" y="359" on="0"/>
        <pt x="1471" y="592" on="0"/>
        <pt x="1489" y="664" on="1"/>
        <pt x="1675" y="1462" on="1"/>
        <pt x="1980" y="1462" on="1"/>
      </contour>
    </TTGlyph>
    <TTGlyph name="Wacute" xMin="0" yMin="0" xMax="1980" yMax="1907">
      <component glyphName="W" x="0" y="0" flags="0x204"/>
      <component glyphName="acute" x="442" y="338" flags="0x4"/>
    </TTGlyph>
    <TTGlyph name="Wcircumflex" xMin="0" yMin="0" xMax="1980" yMax="1907">
      <component glyphName="W" x="0" y="0" flags="0x204"/>
      <component glyphName="circumflex" x="369" y="338" flags="0x4"/>
    </TTGlyph>
    <TTGlyph name="Wdieresis" xMin="0" yMin="0" xMax="1980" yMax="1878">
      <component glyphName="W" x="0" y="0" flags="0x204"/>
      <component glyphName="dieresis" x="367" y="338" flags="0x4"/>
    </TTGlyph>
    <TTGlyph name="Wgrave" xMin="0" yMin="0" xMax="1980" yMax="1907">
      <component glyphName="W" x="0" y="0" flags="0x204"/>
      <component glyphName="grave" x="252" y="338" flags="0x4"/>
    </TTGlyph>
    <TTGlyph name="X" xMin="0" yMin="0" xMax="1366" yMax="1462">
      <contour>
        <pt x="1366" y="0" on="1"/>
        <pt x="1012" y="0" on="1"/>
        <pt x="672" y="553" on="1"/>
        <pt x="332" y="0" on="1"/>
        <pt x="0" y="0" on="1"/>
        <pt x="485" y="754" on="1"/>
        <pt x="31" y="1462" on="1"/>
        <pt x="373" y="1462" on="1"/>
        <pt x="688" y="936" on="1"/>
        <pt x="997" y="1462" on="1"/>
        <pt x="1331" y="1462" on="1"/>
        <pt x="872" y="737" on="1"/>
      </contour>
    </TTGlyph>
    <TTGlyph name="Xi" xMin="82" yMin="0" xMax="1087" yMax="1462">
      <contour>
        <pt x="205" y="887" on="1"/>
        <pt x="965" y="887" on="1"/>
        <pt x="965" y="633" on="1"/>
        <pt x="205" y="633" on="1"/>
      </contour>
      <contour>
        <pt x="123" y="1462" on="1"/>
        <pt x="1047" y="1462" on="1"/>
        <pt x="1047" y="1208" on="1"/>
        <pt x="123" y="1208" on="1"/>
      </contour>
      <contour>
        <pt x="1087" y="256" on="1"/>
        <pt x="1087" y="0" on="1"/>
        <pt x="82" y="0" on="1"/>
        <pt x="82" y="256" on="1"/>
      </contour>
    </TTGlyph>
    <TTGlyph name="Y" xMin="0" yMin="0" xMax="1278" yMax="1462">
      <contour>
        <pt x="639" y="860" on="1"/>
        <pt x="944" y="1462" on="1"/>
        <pt x="1278" y="1462" on="1"/>
        <pt x="793" y="569" on="1"/>
        <pt x="793" y="0" on="1"/>
        <pt x="485" y="0" on="1"/>
        <pt x="485" y="559" on="1"/>
        <pt x="0" y="1462" on="1"/>
        <pt x="336" y="1462" on="1"/>
      </contour>
    </TTGlyph>
    <TTGlyph name="Yacute" xMin="0" yMin="0" xMax="1278" yMax="1907">
      <component glyphName="Y" x="0" y="0" flags="0x204"/>
      <component glyphName="acute" x="129" y="338" flags="0x4"/>
    </TTGlyph>
    <TTGlyph name="Ycircumflex" xMin="0" yMin="0" xMax="1278" yMax="1907">
      <component glyphName="Y" x="0" y="0" flags="0x204"/>
      <component glyphName="circumflex" x="20" y="338" flags="0x4"/>
    </TTGlyph>
    <TTGlyph name="Ydieresis" xMin="0" yMin="0" xMax="1278" yMax="1878">
      <component glyphName="Y" x="0" y="0" flags="0x204"/>
      <component glyphName="dieresis" x="18" y="338" flags="0x4"/>
    </TTGlyph>
    <TTGlyph name="Ygrave" xMin="0" yMin="0" xMax="1278" yMax="1907">
      <component glyphName="Y" x="0" y="0" flags="0x204"/>
      <component glyphName="grave" x="-132" y="338" flags="0x4"/>
    </TTGlyph>
    <TTGlyph name="Z" xMin="49" yMin="0" xMax="1137" yMax="1462">
      <contour>
        <pt x="1137" y="0" on="1"/>
        <pt x="49" y="0" on="1"/>
        <pt x="49" y="201" on="1"/>
        <pt x="750" y="1206" on="1"/>
        <pt x="68" y="1206" on="1"/>
        <pt x="68" y="1462" on="1"/>
        <pt x="1118" y="1462" on="1"/>
        <pt x="1118" y="1262" on="1"/>
        <pt x="418" y="256" on="1"/>
        <pt x="1137" y="256" on="1"/>
      </contour>
    </TTGlyph>
    <TTGlyph name="Zacute" xMin="49" yMin="0" xMax="1137" yMax="1907">
      <component glyphName="Z" x="0" y="0" flags="0x204"/>
      <component glyphName="acute" x="78" y="338" flags="0x4"/>
    </TTGlyph>
    <TTGlyph name="Zcaron" xMin="49" yMin="0" xMax="1137" yMax="1907">
      <component glyphName="Z" x="0" y="0" flags="0x204"/>
      <component glyphName="caron" x="-15" y="338" flags="0x4"/>
    </TTGlyph>
    <TTGlyph name="Zdotaccent" xMin="49" yMin="0" xMax="1137" yMax="1894">
      <component glyphName="Z" x="0" y="0" flags="0x204"/>
      <component glyphName="dotaccent" x="279" y="338" flags="0x4"/>
    </TTGlyph>
    <TTGlyph name="Zeta" xMin="49" yMin="0" xMax="1137" yMax="1462">
      <component glyphName="Z" x="0" y="0" flags="0x204"/>
    </TTGlyph>
    <TTGlyph name="a" xMin="86" yMin="-20" xMax="1083" yMax="1141">
      <contour>
        <pt x="870" y="0" on="1"/>
        <pt x="811" y="152" on="1"/>
        <pt x="803" y="152" on="1"/>
        <pt x="726" y="55" on="0"/>
        <pt x="563" y="-20" on="0"/>
        <pt x="432" y="-20" on="1"/>
        <pt x="271" y="-20" on="0"/>
        <pt x="86" y="164" on="0"/>
        <pt x="86" y="334" on="1"/>
        <pt x="86" y="512" on="0"/>
        <pt x="335" y="681" on="0"/>
        <pt x="586" y="690" on="1"/>
        <pt x="780" y="696" on="1"/>
        <pt x="780" y="745" on="1"/>
        <pt x="780" y="915" on="0"/>
        <pt x="606" y="915" on="1"/>
        <pt x="472" y="915" on="0"/>
        <pt x="291" y="834" on="1"/>
        <pt x="190" y="1040" on="1"/>
        <pt x="383" y="1141" on="0"/>
        <pt x="618" y="1141" on="1"/>
        <pt x="843" y="1141" on="0"/>
        <pt x="1083" y="945" on="0"/>
        <pt x="1083" y="745" on="1"/>
        <pt x="1083" y="0" on="1"/>
      </contour>
      <contour>
        <pt x="780" y="518" on="1"/>
        <pt x="662" y="514" on="1"/>
        <pt x="529" y="510" on="0"/>
        <pt x="399" y="422" on="0"/>
        <pt x="399" y="332" on="1"/>
        <pt x="399" y="203" on="0"/>
        <pt x="547" y="203" on="1"/>
        <pt x="653" y="203" on="0"/>
        <pt x="780" y="325" on="0"/>
        <pt x="780" y="426" on="1"/>
      </contour>
    </TTGlyph>
    <TTGlyph name="aacute" xMin="86" yMin="-20" xMax="1083" yMax="1569">
      <component glyphName="a" x="0" y="0" flags="0x204"/>
      <component glyphName="acute" x="109" y="0" flags="0x4"/>
    </TTGlyph>
    <TTGlyph name="abreve" xMin="86" yMin="-20" xMax="1083" yMax="1579">
      <component glyphName="a" x="0" y="0" flags="0x204"/>
      <component glyphName="breve" x="12" y="0" flags="0x4"/>
    </TTGlyph>
    <TTGlyph name="acircumflex" xMin="86" yMin="-20" xMax="1083" yMax="1568">
      <component glyphName="a" x="0" y="0" flags="0x204"/>
      <component glyphName="circumflex" x="-9" y="-1" flags="0x4"/>
    </TTGlyph>
    <TTGlyph name="acute" xMin="332" yMin="1241" xMax="909" yMax="1569">
      <contour>
        <pt x="332" y="1241" on="1"/>
        <pt x="332" y="1268" on="1"/>
        <pt x="504" y="1468" on="0"/>
        <pt x="567" y="1569" on="1"/>
        <pt x="909" y="1569" on="1"/>
        <pt x="909" y="1548" on="1"/>
        <pt x="857" y="1496" on="0"/>
        <pt x="606" y="1291" on="0"/>
        <pt x="535" y="1241" on="1"/>
      </contour>
    </TTGlyph>
    <TTGlyph name="acutecomb" xMin="-816" yMin="1241" xMax="-239" yMax="1569">
      <component glyphName="acute" x="-1148" y="0" flags="0x4"/>
    </TTGlyph>
    <TTGlyph name="adieresis" xMin="86" yMin="-20" xMax="1083" yMax="1540">
      <component glyphName="a" x="0" y="0" flags="0x204"/>
      <component glyphName="dieresis" x="6" y="0" flags="0x4"/>
    </TTGlyph>
    <TTGlyph name="ae" xMin="86" yMin="-20" xMax="1790" yMax="1141">
      <contour>
        <pt x="1329" y="-20" on="1"/>
        <pt x="1192" y="-20" on="0"/>
        <pt x="967" y="81" on="0"/>
        <pt x="895" y="186" on="1"/>
        <pt x="797" y="69" on="0"/>
        <pt x="600" y="-20" on="0"/>
        <pt x="442" y="-20" on="1"/>
        <pt x="281" y="-20" on="0"/>
        <pt x="86" y="169" on="0"/>
        <pt x="86" y="334" on="1"/>
        <pt x="86" y="512" on="0"/>
        <pt x="328" y="681" on="0"/>
        <pt x="569" y="690" on="1"/>
        <pt x="760" y="696" on="1"/>
        <pt x="760" y="780" on="1"/>
        <pt x="760" y="849" on="0"/>
        <pt x="671" y="915" on="0"/>
        <pt x="594" y="915" on="1"/>
        <pt x="454" y="915" on="0"/>
        <pt x="289" y="838" on="1"/>
        <pt x="190" y="1040" on="1"/>
        <pt x="379" y="1141" on="0"/>
        <pt x="612" y="1141" on="1"/>
        <pt x="839" y="1141" on="0"/>
        <pt x="954" y="1010" on="1"/>
        <pt x="1020" y="1074" on="0"/>
        <pt x="1193" y="1139" on="0"/>
        <pt x="1313" y="1139" on="1"/>
        <pt x="1534" y="1139" on="0"/>
        <pt x="1790" y="864" on="0"/>
        <pt x="1790" y="631" on="1"/>
        <pt x="1790" y="483" on="1"/>
        <pt x="1067" y="483" on="1"/>
        <pt x="1072" y="353" on="0"/>
        <pt x="1216" y="207" on="0"/>
        <pt x="1346" y="207" on="1"/>
        <pt x="1542" y="207" on="0"/>
        <pt x="1726" y="295" on="1"/>
        <pt x="1726" y="59" on="1"/>
        <pt x="1647" y="20" on="0"/>
        <pt x="1463" y="-20" on="0"/>
      </contour>
      <contour>
        <pt x="760" y="518" on="1"/>
        <pt x="647" y="514" on="1"/>
        <pt x="523" y="510" on="0"/>
        <pt x="399" y="423" on="0"/>
        <pt x="399" y="332" on="1"/>
        <pt x="399" y="203" on="0"/>
        <pt x="539" y="203" on="1"/>
        <pt x="640" y="203" on="0"/>
        <pt x="760" y="325" on="0"/>
        <pt x="760" y="426" on="1"/>
      </contour>
      <contour>
        <pt x="1307" y="922" on="1"/>
        <pt x="1090" y="922" on="0"/>
        <pt x="1073" y="686" on="1"/>
        <pt x="1503" y="686" on="1"/>
        <pt x="1501" y="798" on="0"/>
        <pt x="1395" y="922" on="0"/>
      </contour>
    </TTGlyph>
    <TTGlyph name="aeacute" xMin="86" yMin="-20" xMax="1790" yMax="1569">
      <component glyphName="ae" x="0" y="0" flags="0x204"/>
      <component glyphName="acute" x="465" y="0" flags="0x4"/>
    </TTGlyph>
    <TTGlyph name="afii00208" xMin="82" yMin="436" xMax="1966" yMax="666">
      <contour>
        <pt x="82" y="436" on="1"/>
        <pt x="82" y="666" on="1"/>
        <pt x="1966" y="666" on="1"/>
        <pt x="1966" y="436" on="1"/>
      </contour>
    </TTGlyph>
    <TTGlyph name="afii10017" xMin="0" yMin="0" xMax="1413" yMax="1468">
      <component glyphName="A" x="0" y="0" flags="0x204"/>
    </TTGlyph>
    <TTGlyph name="afii10018" xMin="184" yMin="0" xMax="1214" yMax="1462">
      <contour>
        <pt x="494" y="901" on="1"/>
        <pt x="616" y="901" on="1"/>
        <pt x="902" y="901" on="0"/>
        <pt x="1214" y="669" on="0"/>
        <pt x="1214" y="457" on="1"/>
        <pt x="1214" y="0" on="0"/>
        <pt x="610" y="0" on="1"/>
        <pt x="184" y="0" on="1"/>
        <pt x="184" y="1462" on="1"/>
        <pt x="1108" y="1462" on="1"/>
        <pt x="1108" y="1206" on="1"/>
        <pt x="494" y="1206" on="1"/>
      </contour>
      <contour>
        <pt x="494" y="254" on="1"/>
        <pt x="598" y="254" on="1"/>
        <pt x="755" y="254" on="0"/>
        <pt x="901" y="355" on="0"/>
        <pt x="901" y="457" on="1"/>
        <pt x="901" y="558" on="0"/>
        <pt x="753" y="647" on="0"/>
        <pt x="573" y="647" on="1"/>
        <pt x="494" y="647" on="1"/>
      </contour>
    </TTGlyph>
    <TTGlyph name="afii10019" xMin="184" yMin="0" xMax="1268" yMax="1462">
      <component glyphName="B" x="0" y="0" flags="0x204"/>
    </TTGlyph>
    <TTGlyph name="afii10020" xMin="184" yMin="0" xMax="1108" yMax="1462">
      <component glyphName="Gamma" x="0" y="0" flags="0x204"/>
    </TTGlyph>
    <TTGlyph name="afii10021" xMin="10" yMin="-426" xMax="1524" yMax="1462">
      <contour>
        <pt x="10" y="258" on="1"/>
        <pt x="123" y="258" on="1"/>
        <pt x="268" y="548" on="0"/>
        <pt x="436" y="1127" on="0"/>
        <pt x="477" y="1462" on="1"/>
        <pt x="1329" y="1462" on="1"/>
        <pt x="1329" y="258" on="1"/>
        <pt x="1524" y="258" on="1"/>
        <pt x="1524" y="-426" on="1"/>
        <pt x="1225" y="-426" on="1"/>
        <pt x="1225" y="0" on="1"/>
        <pt x="309" y="0" on="1"/>
        <pt x="309" y="-426" on="1"/>
        <pt x="10" y="-426" on="1"/>
      </contour>
      <contour>
        <pt x="723" y="1204" on="1"/>
        <pt x="691" y="975" on="0"/>
        <pt x="542" y="463" on="0"/>
        <pt x="449" y="258" on="1"/>
        <pt x="1020" y="258" on="1"/>
        <pt x="1020" y="1204" on="1"/>
      </contour>
    </TTGlyph>
    <TTGlyph name="afii10022" xMin="184" yMin="0" xMax="1026" yMax="1462">
      <component glyphName="E" x="0" y="0" flags="0x204"/>
    </TTGlyph>
    <TTGlyph name="afii10023" xMin="184" yMin="0" xMax="1026" yMax="1878">
      <component glyphName="E" x="0" y="0" flags="0x204"/>
      <component glyphName="dieresis" x="-15" y="338" flags="0x4"/>
    </TTGlyph>
    <TTGlyph name="afii10024" xMin="0" yMin="0" xMax="1931" yMax="1462">
      <contour>
        <pt x="520" y="760" on="1"/>
        <pt x="29" y="1462" on="1"/>
        <pt x="348" y="1462" on="1"/>
        <pt x="821" y="754" on="1"/>
        <pt x="821" y="1462" on="1"/>
        <pt x="1110" y="1462" on="1"/>
        <pt x="1110" y="754" on="1"/>
        <pt x="1583" y="1462" on="1"/>
        <pt x="1903" y="1462" on="1"/>
        <pt x="1411" y="760" on="1"/>
        <pt x="1931" y="0" on="1"/>
        <pt x="1599" y="0" on="1"/>
        <pt x="1110" y="741" on="1"/>
        <pt x="1110" y="0" on="1"/>
        <pt x="821" y="0" on="1"/>
        <pt x="821" y="741" on="1"/>
        <pt x="332" y="0" on="1"/>
        <pt x="0" y="0" on="1"/>
      </contour>
    </TTGlyph>
    <TTGlyph name="afii10025" xMin="94" yMin="-20" xMax="1239" yMax="1483">
      <contour>
        <pt x="1194" y="1120" on="1"/>
        <pt x="1194" y="979" on="0"/>
        <pt x="994" y="795" on="0"/>
        <pt x="823" y="770" on="1"/>
        <pt x="823" y="764" on="1"/>
        <pt x="1024" y="744" on="0"/>
        <pt x="1239" y="562" on="0"/>
        <pt x="1239" y="416" on="1"/>
        <pt x="1239" y="214" on="0"/>
        <pt x="912" y="-20" on="0"/>
        <pt x="623" y="-20" on="1"/>
        <pt x="301" y="-20" on="0"/>
        <pt x="106" y="59" on="1"/>
        <pt x="106" y="319" on="1"/>
        <pt x="200" y="274" on="0"/>
        <pt x="453" y="223" on="0"/>
        <pt x="563" y="223" on="1"/>
        <pt x="932" y="223" on="0"/>
        <pt x="932" y="438" on="1"/>
        <pt x="932" y="535" on="0"/>
        <pt x="695" y="639" on="0"/>
        <pt x="463" y="639" on="1"/>
        <pt x="326" y="639" on="1"/>
        <pt x="326" y="881" on="1"/>
        <pt x="449" y="881" on="1"/>
        <pt x="681" y="881" on="0"/>
        <pt x="893" y="969" on="0"/>
        <pt x="893" y="1071" on="1"/>
        <pt x="893" y="1146" on="0"/>
        <pt x="760" y="1235" on="0"/>
        <pt x="627" y="1235" on="1"/>
        <pt x="421" y="1235" on="0"/>
        <pt x="229" y="1116" on="1"/>
        <pt x="94" y="1323" on="1"/>
        <pt x="219" y="1406" on="0"/>
        <pt x="499" y="1483" on="0"/>
        <pt x="670" y="1483" on="1"/>
        <pt x="909" y="1483" on="0"/>
        <pt x="1194" y="1283" on="0"/>
      </contour>
    </TTGlyph>
    <TTGlyph name="afii10026" xMin="184" yMin="0" xMax="1501" yMax="1462">
      <contour>
        <pt x="184" y="1462" on="1"/>
        <pt x="463" y="1462" on="1"/>
        <pt x="463" y="756" on="1"/>
        <pt x="459" y="567" on="1"/>
        <pt x="449" y="352" on="1"/>
        <pt x="455" y="352" on="1"/>
        <pt x="1130" y="1462" on="1"/>
        <pt x="1501" y="1462" on="1"/>
        <pt x="1501" y="0" on="1"/>
        <pt x="1225" y="0" on="1"/>
        <pt x="1225" y="702" on="1"/>
        <pt x="1225" y="843" on="0"/>
        <pt x="1243" y="1120" on="1"/>
        <pt x="1235" y="1120" on="1"/>
        <pt x="557" y="0" on="1"/>
        <pt x="184" y="0" on="1"/>
      </contour>
    </TTGlyph>
    <TTGlyph name="afii10027" xMin="184" yMin="0" xMax="1501" yMax="1937">
      <component glyphName="afii10026" x="0" y="0" flags="0x204"/>
      <component glyphName="glyph00566" x="252" y="338" flags="0x4"/>
    </TTGlyph>
    <TTGlyph name="afii10028" xMin="184" yMin="0" xMax="1376" yMax="1462">
      <contour>
        <pt x="1376" y="0" on="1"/>
        <pt x="1024" y="0" on="1"/>
        <pt x="494" y="741" on="1"/>
        <pt x="494" y="0" on="1"/>
        <pt x="184" y="0" on="1"/>
        <pt x="184" y="1462" on="1"/>
        <pt x="494" y="1462" on="1"/>
        <pt x="494" y="754" on="1"/>
        <pt x="1018" y="1462" on="1"/>
        <pt x="1348" y="1462" on="1"/>
        <pt x="815" y="760" on="1"/>
      </contour>
    </TTGlyph>
    <TTGlyph name="afii10029" xMin="16" yMin="-20" xMax="1341" yMax="1462">
      <contour>
        <pt x="1341" y="0" on="1"/>
        <pt x="1032" y="0" on="1"/>
        <pt x="1032" y="1204" on="1"/>
        <pt x="674" y="1204" on="1"/>
        <pt x="658" y="1070" on="1"/>
        <pt x="596" y="559" on="0"/>
        <pt x="501" y="148" on="0"/>
        <pt x="322" y="-20" on="0"/>
        <pt x="164" y="-20" on="1"/>
        <pt x="80" y="-20" on="0"/>
        <pt x="16" y="2" on="1"/>
        <pt x="16" y="256" on="1"/>
        <pt x="74" y="236" on="0"/>
        <pt x="125" y="236" on="1"/>
        <pt x="178" y="236" on="0"/>
        <pt x="240" y="333" on="0"/>
        <pt x="295" y="596" on="0"/>
        <pt x="386" y="1195" on="0"/>
        <pt x="418" y="1462" on="1"/>
        <pt x="1341" y="1462" on="1"/>
      </contour>
    </TTGlyph>
    <TTGlyph name="afii10030" xMin="184" yMin="0" xMax="1747" yMax="1462">
      <component glyphName="M" x="0" y="0" flags="0x204"/>
    </TTGlyph>
    <TTGlyph name="afii10031" xMin="184" yMin="0" xMax="1382" yMax="1462">
      <component glyphName="H" x="0" y="0" flags="0x204"/>
    </TTGlyph>
    <TTGlyph name="afii10032" xMin="119" yMin="-20" xMax="1511" yMax="1485">
      <component glyphName="O" x="0" y="0" flags="0x204"/>
    </TTGlyph>
    <TTGlyph name="afii10033" xMin="184" yMin="0" xMax="1341" yMax="1462">
      <component glyphName="Pi" x="0" y="0" flags="0x204"/>
    </TTGlyph>
    <TTGlyph name="afii10034" xMin="184" yMin="0" xMax="1194" yMax="1462">
      <component glyphName="P" x="0" y="0" flags="0x204"/>
    </TTGlyph>
    <TTGlyph name="afii10035" xMin="119" yMin="-20" xMax="1233" yMax="1483">
      <component glyphName="C" x="0" y="0" flags="0x204"/>
    </TTGlyph>
    <TTGlyph name="afii10036" xMin="41" yMin="0" xMax="1145" yMax="1462">
      <component glyphName="T" x="0" y="0" flags="0x204"/>
    </TTGlyph>
    <TTGlyph name="afii10037" xMin="20" yMin="-20" xMax="1358" yMax="1462">
      <contour>
        <pt x="1358" y="1462" on="1"/>
        <pt x="905" y="428" on="1"/>
        <pt x="820" y="234" on="0"/>
        <pt x="672" y="63" on="0"/>
        <pt x="469" y="-20" on="0"/>
        <pt x="322" y="-20" on="1"/>
        <pt x="196" y="-20" on="0"/>
        <pt x="88" y="10" on="1"/>
        <pt x="88" y="276" on="1"/>
        <pt x="178" y="240" on="0"/>
        <pt x="307" y="240" on="1"/>
        <pt x="388" y="240" on="0"/>
        <pt x="490" y="314" on="0"/>
        <pt x="526" y="412" on="1"/>
        <pt x="20" y="1462" on="1"/>
        <pt x="348" y="1462" on="1"/>
        <pt x="709" y="647" on="1"/>
        <pt x="719" y="647" on="1"/>
        <pt x="734" y="703" on="0"/>
        <pt x="787" y="826" on="1"/>
        <pt x="1038" y="1462" on="1"/>
      </contour>
    </TTGlyph>
    <TTGlyph name="afii10038" xMin="92" yMin="-20" xMax="1669" yMax="1483">
      <component glyphName="Phi" x="0" y="0" flags="0x204"/>
    </TTGlyph>
    <TTGlyph name="afii10039" xMin="0" yMin="0" xMax="1366" yMax="1462">
      <component glyphName="X" x="0" y="0" flags="0x204"/>
    </TTGlyph>
    <TTGlyph name="afii10040" xMin="184" yMin="-426" xMax="1559" yMax="1462">
      <contour>
        <pt x="1341" y="246" on="1"/>
        <pt x="1559" y="246" on="1"/>
        <pt x="1559" y="-426" on="1"/>
        <pt x="1260" y="-426" on="1"/>
        <pt x="1260" y="0" on="1"/>
        <pt x="184" y="0" on="1"/>
        <pt x="184" y="1462" on="1"/>
        <pt x="494" y="1462" on="1"/>
        <pt x="494" y="258" on="1"/>
        <pt x="1032" y="258" on="1"/>
        <pt x="1032" y="1462" on="1"/>
        <pt x="1341" y="1462" on="1"/>
      </contour>
    </TTGlyph>
    <TTGlyph name="afii10041" xMin="109" yMin="0" xMax="1307" yMax="1462">
      <contour>
        <pt x="1307" y="0" on="1"/>
        <pt x="997" y="0" on="1"/>
        <pt x="997" y="565" on="1"/>
        <pt x="843" y="513" on="0"/>
        <pt x="638" y="475" on="0"/>
        <pt x="545" y="475" on="1"/>
        <pt x="336" y="475" on="0"/>
        <pt x="109" y="676" on="0"/>
        <pt x="109" y="858" on="1"/>
        <pt x="109" y="1462" on="1"/>
        <pt x="418" y="1462" on="1"/>
        <pt x="418" y="946" on="1"/>
        <pt x="418" y="840" on="0"/>
        <pt x="516" y="733" on="0"/>
        <pt x="633" y="733" on="1"/>
        <pt x="715" y="733" on="0"/>
        <pt x="878" y="766" on="0"/>
        <pt x="997" y="807" on="1"/>
        <pt x="997" y="1462" on="1"/>
        <pt x="1307" y="1462" on="1"/>
      </contour>
    </TTGlyph>
    <TTGlyph name="afii10042" xMin="184" yMin="0" xMax="2023" yMax="1462">
      <contour>
        <pt x="1260" y="258" on="1"/>
        <pt x="1714" y="258" on="1"/>
        <pt x="1714" y="1462" on="1"/>
        <pt x="2023" y="1462" on="1"/>
        <pt x="2023" y="0" on="1"/>
        <pt x="184" y="0" on="1"/>
        <pt x="184" y="1462" on="1"/>
        <pt x="494" y="1462" on="1"/>
        <pt x="494" y="258" on="1"/>
        <pt x="948" y="258" on="1"/>
        <pt x="948" y="1462" on="1"/>
        <pt x="1260" y="1462" on="1"/>
      </contour>
    </TTGlyph>
    <TTGlyph name="afii10043" xMin="184" yMin="-426" xMax="2241" yMax="1462">
      <contour>
        <pt x="1260" y="258" on="1"/>
        <pt x="1714" y="258" on="1"/>
        <pt x="1714" y="1462" on="1"/>
        <pt x="2023" y="1462" on="1"/>
        <pt x="2023" y="246" on="1"/>
        <pt x="2241" y="246" on="1"/>
        <pt x="2241" y="-426" on="1"/>
        <pt x="1942" y="-426" on="1"/>
        <pt x="1942" y="0" on="1"/>
        <pt x="184" y="0" on="1"/>
        <pt x="184" y="1462" on="1"/>
        <pt x="494" y="1462" on="1"/>
        <pt x="494" y="258" on="1"/>
        <pt x="948" y="258" on="1"/>
        <pt x="948" y="1462" on="1"/>
        <pt x="1260" y="1462" on="1"/>
      </contour>
    </TTGlyph>
    <TTGlyph name="afii10044" xMin="0" yMin="0" xMax="1397" yMax="1462">
      <contour>
        <pt x="1397" y="457" on="1"/>
        <pt x="1397" y="229" on="0"/>
        <pt x="1092" y="0" on="0"/>
        <pt x="793" y="0" on="1"/>
        <pt x="367" y="0" on="1"/>
        <pt x="367" y="1204" on="1"/>
        <pt x="0" y="1204" on="1"/>
        <pt x="0" y="1462" on="1"/>
        <pt x="676" y="1462" on="1"/>
        <pt x="676" y="901" on="1"/>
        <pt x="799" y="901" on="1"/>
        <pt x="1085" y="901" on="0"/>
        <pt x="1397" y="669" on="0"/>
      </contour>
      <contour>
        <pt x="676" y="254" on="1"/>
        <pt x="780" y="254" on="1"/>
        <pt x="937" y="254" on="0"/>
        <pt x="1083" y="355" on="0"/>
        <pt x="1083" y="457" on="1"/>
        <pt x="1083" y="558" on="0"/>
        <pt x="935" y="647" on="0"/>
        <pt x="756" y="647" on="1"/>
        <pt x="676" y="647" on="1"/>
      </contour>
    </TTGlyph>
    <TTGlyph name="afii10045" xMin="184" yMin="0" xMax="1671" yMax="1462">
      <contour>
        <pt x="1184" y="457" on="1"/>
        <pt x="1184" y="229" on="0"/>
        <pt x="881" y="0" on="0"/>
        <pt x="584" y="0" on="1"/>
        <pt x="184" y="0" on="1"/>
        <pt x="184" y="1462" on="1"/>
        <pt x="494" y="1462" on="1"/>
        <pt x="494" y="901" on="1"/>
        <pt x="594" y="901" on="1"/>
        <pt x="875" y="901" on="0"/>
        <pt x="1184" y="668" on="0"/>
      </contour>
      <contour>
        <pt x="494" y="254" on="1"/>
        <pt x="575" y="254" on="1"/>
        <pt x="728" y="254" on="0"/>
        <pt x="870" y="355" on="0"/>
        <pt x="870" y="457" on="1"/>
        <pt x="870" y="559" on="0"/>
        <pt x="733" y="647" on="0"/>
        <pt x="561" y="647" on="1"/>
        <pt x="494" y="647" on="1"/>
      </contour>
      <contour>
        <pt x="1671" y="0" on="1"/>
        <pt x="1362" y="0" on="1"/>
        <pt x="1362" y="1462" on="1"/>
        <pt x="1671" y="1462" on="1"/>
      </contour>
    </TTGlyph>
    <TTGlyph name="afii10046" xMin="184" yMin="0" xMax="1214" yMax="1462">
      <contour>
        <pt x="1214" y="457" on="1"/>
        <pt x="1214" y="0" on="0"/>
        <pt x="610" y="0" on="1"/>
        <pt x="184" y="0" on="1"/>
        <pt x="184" y="1462" on="1"/>
        <pt x="494" y="1462" on="1"/>
        <pt x="494" y="901" on="1"/>
        <pt x="616" y="901" on="1"/>
        <pt x="902" y="901" on="0"/>
        <pt x="1214" y="669" on="0"/>
      </contour>
      <contour>
        <pt x="494" y="254" on="1"/>
        <pt x="598" y="254" on="1"/>
        <pt x="755" y="254" on="0"/>
        <pt x="901" y="355" on="0"/>
        <pt x="901" y="457" on="1"/>
        <pt x="901" y="558" on="0"/>
        <pt x="753" y="647" on="0"/>
        <pt x="573" y="647" on="1"/>
        <pt x="494" y="647" on="1"/>
      </contour>
    </TTGlyph>
    <TTGlyph name="afii10047" xMin="72" yMin="-20" xMax="1239" yMax="1483">
      <contour>
        <pt x="553" y="1225" on="1"/>
        <pt x="454" y="1225" on="0"/>
        <pt x="263" y="1169" on="0"/>
        <pt x="170" y="1130" on="1"/>
        <pt x="72" y="1380" on="1"/>
        <pt x="304" y="1483" on="0"/>
        <pt x="559" y="1483" on="1"/>
        <pt x="884" y="1483" on="0"/>
        <pt x="1239" y="1084" on="0"/>
        <pt x="1239" y="729" on="1"/>
        <pt x="1239" y="367" on="0"/>
        <pt x="874" y="-20" on="0"/>
        <pt x="530" y="-20" on="1"/>
        <pt x="293" y="-20" on="0"/>
        <pt x="98" y="55" on="1"/>
        <pt x="98" y="315" on="1"/>
        <pt x="341" y="238" on="0"/>
        <pt x="512" y="238" on="1"/>
        <pt x="895" y="238" on="0"/>
        <pt x="913" y="610" on="1"/>
        <pt x="279" y="610" on="1"/>
        <pt x="279" y="864" on="1"/>
        <pt x="911" y="864" on="1"/>
        <pt x="905" y="1034" on="0"/>
        <pt x="713" y="1225" on="0"/>
      </contour>
    </TTGlyph>
    <TTGlyph name="afii10048" xMin="184" yMin="-20" xMax="2073" yMax="1485">
      <contour>
        <pt x="2073" y="733" on="1"/>
        <pt x="2073" y="373" on="0"/>
        <pt x="1736" y="-20" on="0"/>
        <pt x="1421" y="-20" on="1"/>
        <pt x="1132" y="-20" on="0"/>
        <pt x="800" y="313" on="0"/>
        <pt x="774" y="631" on="1"/>
        <pt x="494" y="631" on="1"/>
        <pt x="494" y="0" on="1"/>
        <pt x="184" y="0" on="1"/>
        <pt x="184" y="1462" on="1"/>
        <pt x="494" y="1462" on="1"/>
        <pt x="494" y="889" on="1"/>
        <pt x="780" y="889" on="1"/>
        <pt x="814" y="1178" on="0"/>
        <pt x="1143" y="1485" on="0"/>
        <pt x="1423" y="1485" on="1"/>
        <pt x="1739" y="1485" on="0"/>
        <pt x="2073" y="1093" on="0"/>
      </contour>
      <contour>
        <pt x="1092" y="733" on="1"/>
        <pt x="1092" y="489" on="0"/>
        <pt x="1260" y="240" on="0"/>
        <pt x="1421" y="240" on="1"/>
        <pt x="1753" y="240" on="0"/>
        <pt x="1753" y="733" on="1"/>
        <pt x="1753" y="977" on="0"/>
        <pt x="1588" y="1227" on="0"/>
        <pt x="1425" y="1227" on="1"/>
        <pt x="1261" y="1227" on="0"/>
        <pt x="1092" y="977" on="0"/>
      </contour>
    </TTGlyph>
    <TTGlyph name="afii10049" xMin="-10" yMin="0" xMax="1178" yMax="1462">
      <contour>
        <pt x="676" y="561" on="1"/>
        <pt x="334" y="0" on="1"/>
        <pt x="-10" y="0" on="1"/>
        <pt x="406" y="643" on="1"/>
        <pt x="282" y="693" on="0"/>
        <pt x="150" y="902" on="0"/>
        <pt x="150" y="1044" on="1"/>
        <pt x="150" y="1245" on="0"/>
        <pt x="435" y="1462" on="0"/>
        <pt x="702" y="1462" on="1"/>
        <pt x="1178" y="1462" on="1"/>
        <pt x="1178" y="0" on="1"/>
        <pt x="868" y="0" on="1"/>
        <pt x="868" y="561" on="1"/>
      </contour>
      <contour>
        <pt x="868" y="1208" on="1"/>
        <pt x="715" y="1208" on="1"/>
        <pt x="595" y="1208" on="0"/>
        <pt x="463" y="1122" on="0"/>
        <pt x="463" y="1022" on="1"/>
        <pt x="463" y="925" on="0"/>
        <pt x="591" y="813" on="0"/>
        <pt x="723" y="813" on="1"/>
        <pt x="868" y="813" on="1"/>
      </contour>
    </TTGlyph>
    <TTGlyph name="afii10050" xMin="184" yMin="0" xMax="1149" yMax="1772">
      <contour>
        <pt x="494" y="0" on="1"/>
        <pt x="184" y="0" on="1"/>
        <pt x="184" y="1462" on="1"/>
        <pt x="881" y="1462" on="1"/>
        <pt x="881" y="1772" on="1"/>
        <pt x="1149" y="1772" on="1"/>
        <pt x="1149" y="1206" on="1"/>
        <pt x="494" y="1206" on="1"/>
      </contour>
    </TTGlyph>
    <TTGlyph name="afii10051" xMin="41" yMin="-18" xMax="1540" yMax="1462">
      <contour>
        <pt x="1133" y="-18" on="1"/>
        <pt x="1017" y="-18" on="0"/>
        <pt x="930" y="20" on="1"/>
        <pt x="930" y="276" on="1"/>
        <pt x="1029" y="233" on="0"/>
        <pt x="1102" y="233" on="1"/>
        <pt x="1156" y="233" on="0"/>
        <pt x="1206" y="264" on="0"/>
        <pt x="1231" y="332" on="0"/>
        <pt x="1231" y="387" on="1"/>
        <pt x="1231" y="514" on="1"/>
        <pt x="1231" y="603" on="0"/>
        <pt x="1148" y="674" on="0"/>
        <pt x="1053" y="674" on="1"/>
        <pt x="717" y="674" on="1"/>
        <pt x="717" y="0" on="1"/>
        <pt x="408" y="0" on="1"/>
        <pt x="408" y="1204" on="1"/>
        <pt x="41" y="1204" on="1"/>
        <pt x="41" y="1462" on="1"/>
        <pt x="1155" y="1462" on="1"/>
        <pt x="1155" y="1204" on="1"/>
        <pt x="717" y="1204" on="1"/>
        <pt x="717" y="932" on="1"/>
        <pt x="1065" y="932" on="1"/>
        <pt x="1293" y="932" on="0"/>
        <pt x="1540" y="726" on="0"/>
        <pt x="1540" y="537" on="1"/>
        <pt x="1540" y="408" on="1"/>
        <pt x="1540" y="199" on="0"/>
        <pt x="1335" y="-18" on="0"/>
      </contour>
    </TTGlyph>
    <TTGlyph name="afii10052" xMin="184" yMin="0" xMax="1108" yMax="1907">
      <component glyphName="Gamma" x="0" y="0" flags="0x204"/>
      <component glyphName="acute" x="133" y="338" flags="0x4"/>
    </TTGlyph>
    <TTGlyph name="afii10053" xMin="119" yMin="-20" xMax="1315" yMax="1483">
      <contour>
        <pt x="842" y="1225" on="1"/>
        <pt x="672" y="1225" on="0"/>
        <pt x="458" y="1034" on="0"/>
        <pt x="446" y="864" on="1"/>
        <pt x="1079" y="864" on="1"/>
        <pt x="1079" y="610" on="1"/>
        <pt x="444" y="610" on="1"/>
        <pt x="457" y="432" on="0"/>
        <pt x="658" y="238" on="0"/>
        <pt x="846" y="238" on="1"/>
        <pt x="1017" y="238" on="0"/>
        <pt x="1260" y="315" on="1"/>
        <pt x="1260" y="55" on="1"/>
        <pt x="1154" y="15" on="0"/>
        <pt x="949" y="-20" on="0"/>
        <pt x="827" y="-20" on="1"/>
        <pt x="483" y="-20" on="0"/>
        <pt x="119" y="367" on="0"/>
        <pt x="119" y="729" on="1"/>
        <pt x="119" y="956" on="0"/>
        <pt x="297" y="1299" on="0"/>
        <pt x="630" y="1483" on="0"/>
        <pt x="856" y="1483" on="1"/>
        <pt x="986" y="1483" on="0"/>
        <pt x="1207" y="1428" on="0"/>
        <pt x="1315" y="1380" on="1"/>
        <pt x="1204" y="1128" on="1"/>
        <pt x="1117" y="1165" on="1"/>
        <pt x="975" y="1225" on="0"/>
      </contour>
    </TTGlyph>
    <TTGlyph name="afii10054" xMin="94" yMin="-20" xMax="1047" yMax="1483">
      <component glyphName="S" x="0" y="0" flags="0x204"/>
    </TTGlyph>
    <TTGlyph name="afii10055" xMin="66" yMin="0" xMax="731" yMax="1462">
      <component glyphName="I" x="0" y="0" flags="0x204"/>
    </TTGlyph>
    <TTGlyph name="afii10056" xMin="57" yMin="0" xMax="743" yMax="1878">
      <component glyphName="I" x="0" y="0" flags="0x204"/>
      <component glyphName="dieresis" x="-222" y="338" flags="0x4"/>
    </TTGlyph>
    <TTGlyph name="afii10057" xMin="-152" yMin="-430" xMax="494" yMax="1462">
      <component glyphName="J" x="0" y="0" flags="0x204"/>
    </TTGlyph>
    <TTGlyph name="afii10058" xMin="16" yMin="-20" xMax="1954" yMax="1462">
      <contour>
        <pt x="1274" y="901" on="1"/>
        <pt x="1389" y="901" on="1"/>
        <pt x="1659" y="901" on="0"/>
        <pt x="1954" y="669" on="0"/>
        <pt x="1954" y="457" on="1"/>
        <pt x="1954" y="229" on="0"/>
        <pt x="1660" y="0" on="0"/>
        <pt x="1372" y="0" on="1"/>
        <pt x="965" y="0" on="1"/>
        <pt x="965" y="1204" on="1"/>
        <pt x="674" y="1204" on="1"/>
        <pt x="658" y="1070" on="1"/>
        <pt x="596" y="559" on="0"/>
        <pt x="501" y="148" on="0"/>
        <pt x="323" y="-20" on="0"/>
        <pt x="164" y="-20" on="1"/>
        <pt x="80" y="-20" on="0"/>
        <pt x="16" y="2" on="1"/>
        <pt x="16" y="256" on="1"/>
        <pt x="74" y="236" on="0"/>
        <pt x="125" y="236" on="1"/>
        <pt x="178" y="236" on="0"/>
        <pt x="240" y="333" on="0"/>
        <pt x="295" y="596" on="0"/>
        <pt x="386" y="1195" on="0"/>
        <pt x="418" y="1462" on="1"/>
        <pt x="1274" y="1462" on="1"/>
      </contour>
      <contour>
        <pt x="1274" y="254" on="1"/>
        <pt x="1368" y="254" on="1"/>
        <pt x="1509" y="254" on="0"/>
        <pt x="1640" y="355" on="0"/>
        <pt x="1640" y="457" on="1"/>
        <pt x="1640" y="556" on="0"/>
        <pt x="1509" y="647" on="0"/>
        <pt x="1346" y="647" on="1"/>
        <pt x="1274" y="647" on="1"/>
      </contour>
    </TTGlyph>
    <TTGlyph name="afii10059" xMin="184" yMin="0" xMax="1960" yMax="1462">
      <contour>
        <pt x="1960" y="457" on="1"/>
        <pt x="1960" y="229" on="0"/>
        <pt x="1666" y="0" on="0"/>
        <pt x="1378" y="0" on="1"/>
        <pt x="971" y="0" on="1"/>
        <pt x="971" y="631" on="1"/>
        <pt x="494" y="631" on="1"/>
        <pt x="494" y="0" on="1"/>
        <pt x="184" y="0" on="1"/>
        <pt x="184" y="1462" on="1"/>
        <pt x="494" y="1462" on="1"/>
        <pt x="494" y="889" on="1"/>
        <pt x="971" y="889" on="1"/>
        <pt x="971" y="1462" on="1"/>
        <pt x="1280" y="1462" on="1"/>
        <pt x="1280" y="901" on="1"/>
        <pt x="1395" y="901" on="1"/>
        <pt x="1665" y="901" on="0"/>
        <pt x="1960" y="669" on="0"/>
      </contour>
      <contour>
        <pt x="1280" y="254" on="1"/>
        <pt x="1374" y="254" on="1"/>
        <pt x="1515" y="254" on="0"/>
        <pt x="1647" y="355" on="0"/>
        <pt x="1647" y="457" on="1"/>
        <pt x="1647" y="558" on="0"/>
        <pt x="1512" y="647" on="0"/>
        <pt x="1352" y="647" on="1"/>
        <pt x="1280" y="647" on="1"/>
      </contour>
    </TTGlyph>
    <TTGlyph name="afii10060" xMin="41" yMin="0" xMax="1540" yMax="1462">
      <contour>
        <pt x="1231" y="0" on="1"/>
        <pt x="1231" y="514" on="1"/>
        <pt x="1231" y="603" on="0"/>
        <pt x="1161" y="674" on="0"/>
        <pt x="1081" y="674" on="1"/>
        <pt x="717" y="674" on="1"/>
        <pt x="717" y="0" on="1"/>
        <pt x="408" y="0" on="1"/>
        <pt x="408" y="1204" on="1"/>
        <pt x="41" y="1204" on="1"/>
        <pt x="41" y="1462" on="1"/>
        <pt x="1155" y="1462" on="1"/>
        <pt x="1155" y="1204" on="1"/>
        <pt x="717" y="1204" on="1"/>
        <pt x="717" y="932" on="1"/>
        <pt x="1102" y="932" on="1"/>
        <pt x="1310" y="932" on="0"/>
        <pt x="1540" y="723" on="0"/>
        <pt x="1540" y="537" on="1"/>
        <pt x="1540" y="0" on="1"/>
      </contour>
    </TTGlyph>
    <TTGlyph name="afii10061" xMin="184" yMin="0" xMax="1376" yMax="1907">
      <component glyphName="afii10028" x="0" y="0" flags="0x204"/>
      <component glyphName="acute" x="248" y="338" flags="0x4"/>
    </TTGlyph>
    <TTGlyph name="afii10062" xMin="20" yMin="-20" xMax="1358" yMax="1937">
      <component glyphName="afii10037" x="0" y="0" flags="0x204"/>
      <component glyphName="glyph00566" x="115" y="338" flags="0x4"/>
    </TTGlyph>
    <TTGlyph name="afii10065" xMin="86" yMin="-20" xMax="1083" yMax="1141">
      <component glyphName="a" x="0" y="0" flags="0x204"/>
    </TTGlyph>
    <TTGlyph name="afii10066" xMin="92" yMin="-20" xMax="1182" yMax="1567">
      <contour>
        <pt x="92" y="670" on="1"/>
        <pt x="92" y="1055" on="0"/>
        <pt x="385" y="1454" on="0"/>
        <pt x="696" y="1507" on="1"/>
        <pt x="805" y="1526" on="0"/>
        <pt x="1026" y="1551" on="0"/>
        <pt x="1147" y="1567" on="1"/>
        <pt x="1182" y="1300" on="1"/>
        <pt x="928" y="1271" on="0"/>
        <pt x="661" y="1235" on="0"/>
        <pt x="535" y="1192" on="0"/>
        <pt x="454" y="1112" on="0"/>
        <pt x="410" y="981" on="0"/>
        <pt x="403" y="872" on="1"/>
        <pt x="418" y="872" on="1"/>
        <pt x="471" y="954" on="0"/>
        <pt x="645" y="1042" on="0"/>
        <pt x="745" y="1042" on="1"/>
        <pt x="952" y="1042" on="0"/>
        <pt x="1182" y="789" on="0"/>
        <pt x="1182" y="553" on="1"/>
        <pt x="1182" y="281" on="0"/>
        <pt x="891" y="-20" on="0"/>
        <pt x="635" y="-20" on="1"/>
        <pt x="379" y="-20" on="0"/>
        <pt x="92" y="347" on="0"/>
      </contour>
      <contour>
        <pt x="653" y="227" on="1"/>
        <pt x="870" y="227" on="0"/>
        <pt x="870" y="526" on="1"/>
        <pt x="870" y="817" on="0"/>
        <pt x="674" y="817" on="1"/>
        <pt x="620" y="817" on="0"/>
        <pt x="513" y="767" on="0"/>
        <pt x="424" y="686" on="0"/>
        <pt x="403" y="645" on="1"/>
        <pt x="403" y="442" on="0"/>
        <pt x="533" y="227" on="0"/>
      </contour>
    </TTGlyph>
    <TTGlyph name="afii10067" xMin="160" yMin="0" xMax="1227" yMax="1118">
      <contour>
        <pt x="1192" y="825" on="1"/>
        <pt x="1192" y="735" on="0"/>
        <pt x="1079" y="608" on="0"/>
        <pt x="969" y="590" on="1"/>
        <pt x="969" y="582" on="1"/>
        <pt x="1088" y="568" on="0"/>
        <pt x="1227" y="433" on="0"/>
        <pt x="1227" y="334" on="1"/>
        <pt x="1227" y="171" on="0"/>
        <pt x="971" y="0" on="0"/>
        <pt x="733" y="0" on="1"/>
        <pt x="160" y="0" on="1"/>
        <pt x="160" y="1118" on="1"/>
        <pt x="733" y="1118" on="1"/>
        <pt x="963" y="1118" on="0"/>
        <pt x="1192" y="969" on="0"/>
      </contour>
      <contour>
        <pt x="911" y="350" on="1"/>
        <pt x="911" y="416" on="0"/>
        <pt x="809" y="475" on="0"/>
        <pt x="707" y="475" on="1"/>
        <pt x="465" y="475" on="1"/>
        <pt x="465" y="211" on="1"/>
        <pt x="713" y="211" on="1"/>
        <pt x="810" y="211" on="0"/>
        <pt x="911" y="284" on="0"/>
      </contour>
      <contour>
        <pt x="883" y="801" on="1"/>
        <pt x="883" y="903" on="0"/>
        <pt x="721" y="903" on="1"/>
        <pt x="465" y="903" on="1"/>
        <pt x="465" y="682" on="1"/>
        <pt x="686" y="682" on="1"/>
        <pt x="783" y="682" on="0"/>
        <pt x="883" y="738" on="0"/>
      </contour>
    </TTGlyph>
    <TTGlyph name="afii10068" xMin="160" yMin="0" xMax="932" yMax="1118">
      <contour>
        <pt x="932" y="1118" on="1"/>
        <pt x="932" y="889" on="1"/>
        <pt x="465" y="889" on="1"/>
        <pt x="465" y="0" on="1"/>
        <pt x="160" y="0" on="1"/>
        <pt x="160" y="1118" on="1"/>
      </contour>
    </TTGlyph>
    <TTGlyph name="afii10069" xMin="29" yMin="-401" xMax="1329" yMax="1118">
      <contour>
        <pt x="860" y="223" on="1"/>
        <pt x="860" y="889" on="1"/>
        <pt x="631" y="889" on="1"/>
        <pt x="606" y="703" on="0"/>
        <pt x="519" y="369" on="0"/>
        <pt x="442" y="223" on="1"/>
      </contour>
      <contour>
        <pt x="1329" y="-401" on="1"/>
        <pt x="1055" y="-401" on="1"/>
        <pt x="1055" y="0" on="1"/>
        <pt x="303" y="0" on="1"/>
        <pt x="303" y="-401" on="1"/>
        <pt x="29" y="-401" on="1"/>
        <pt x="29" y="223" on="1"/>
        <pt x="123" y="223" on="1"/>
        <pt x="219" y="372" on="0"/>
        <pt x="349" y="826" on="0"/>
        <pt x="375" y="1118" on="1"/>
        <pt x="1165" y="1118" on="1"/>
        <pt x="1165" y="223" on="1"/>
        <pt x="1329" y="223" on="1"/>
      </contour>
    </TTGlyph>
    <TTGlyph name="afii10070" xMin="92" yMin="-20" xMax="1122" yMax="1139">
      <component glyphName="e" x="0" y="0" flags="0x204"/>
    </TTGlyph>
    <TTGlyph name="afii10071" xMin="92" yMin="-20" xMax="1122" yMax="1540">
      <component glyphName="e" x="0" y="0" flags="0x204"/>
      <component glyphName="dieresis" x="2" y="0" flags="0x4"/>
    </TTGlyph>
    <TTGlyph name="afii10072" xMin="0" yMin="0" xMax="1788" yMax="1118">
      <contour>
        <pt x="752" y="575" on="1"/>
        <pt x="752" y="1118" on="1"/>
        <pt x="1036" y="1118" on="1"/>
        <pt x="1036" y="575" on="1"/>
        <pt x="1434" y="1118" on="1"/>
        <pt x="1749" y="1118" on="1"/>
        <pt x="1337" y="582" on="1"/>
        <pt x="1788" y="0" on="1"/>
        <pt x="1462" y="0" on="1"/>
        <pt x="1036" y="567" on="1"/>
        <pt x="1036" y="0" on="1"/>
        <pt x="752" y="0" on="1"/>
        <pt x="752" y="567" on="1"/>
        <pt x="326" y="0" on="1"/>
        <pt x="0" y="0" on="1"/>
        <pt x="451" y="582" on="1"/>
        <pt x="39" y="1118" on="1"/>
        <pt x="354" y="1118" on="1"/>
      </contour>
    </TTGlyph>
    <TTGlyph name="afii10073" xMin="78" yMin="-20" xMax="1059" yMax="1139">
      <contour>
        <pt x="438" y="688" on="1"/>
        <pt x="611" y="688" on="0"/>
        <pt x="756" y="744" on="0"/>
        <pt x="756" y="805" on="1"/>
        <pt x="756" y="859" on="0"/>
        <pt x="650" y="913" on="0"/>
        <pt x="528" y="913" on="1"/>
        <pt x="451" y="913" on="0"/>
        <pt x="256" y="875" on="0"/>
        <pt x="176" y="842" on="1"/>
        <pt x="86" y="1055" on="1"/>
        <pt x="205" y="1100" on="0"/>
        <pt x="429" y="1139" on="0"/>
        <pt x="567" y="1139" on="1"/>
        <pt x="776" y="1139" on="0"/>
        <pt x="1028" y="979" on="0"/>
        <pt x="1028" y="842" on="1"/>
        <pt x="1028" y="653" on="0"/>
        <pt x="805" y="596" on="1"/>
        <pt x="805" y="586" on="1"/>
        <pt x="942" y="552" on="0"/>
        <pt x="1059" y="427" on="0"/>
        <pt x="1059" y="326" on="1"/>
        <pt x="1059" y="224" on="0"/>
        <pt x="927" y="66" on="0"/>
        <pt x="677" y="-20" on="0"/>
        <pt x="508" y="-20" on="1"/>
        <pt x="228" y="-20" on="0"/>
        <pt x="78" y="49" on="1"/>
        <pt x="78" y="301" on="1"/>
        <pt x="164" y="261" on="0"/>
        <pt x="369" y="215" on="0"/>
        <pt x="465" y="215" on="1"/>
        <pt x="614" y="215" on="0"/>
        <pt x="762" y="282" on="0"/>
        <pt x="762" y="344" on="1"/>
        <pt x="762" y="412" on="0"/>
        <pt x="606" y="477" on="0"/>
        <pt x="444" y="477" on="1"/>
        <pt x="326" y="477" on="1"/>
        <pt x="326" y="688" on="1"/>
      </contour>
    </TTGlyph>
    <TTGlyph name="afii10074" xMin="160" yMin="0" xMax="1315" yMax="1118">
      <contour>
        <pt x="455" y="1118" on="1"/>
        <pt x="455" y="676" on="1"/>
        <pt x="455" y="606" on="0"/>
        <pt x="432" y="334" on="1"/>
        <pt x="948" y="1118" on="1"/>
        <pt x="1315" y="1118" on="1"/>
        <pt x="1315" y="0" on="1"/>
        <pt x="1020" y="0" on="1"/>
        <pt x="1020" y="446" on="1"/>
        <pt x="1020" y="565" on="0"/>
        <pt x="1040" y="782" on="1"/>
        <pt x="526" y="0" on="1"/>
        <pt x="160" y="0" on="1"/>
        <pt x="160" y="1118" on="1"/>
      </contour>
    </TTGlyph>
    <TTGlyph name="afii10075" xMin="160" yMin="0" xMax="1315" yMax="1599">
      <component glyphName="afii10074" x="0" y="0" flags="0x204"/>
      <component glyphName="glyph00566" x="150" y="0" flags="0x4"/>
    </TTGlyph>
    <TTGlyph name="afii10076" xMin="160" yMin="0" xMax="1268" yMax="1118">
      <contour>
        <pt x="893" y="1118" on="1"/>
        <pt x="1229" y="1118" on="1"/>
        <pt x="786" y="582" on="1"/>
        <pt x="1268" y="0" on="1"/>
        <pt x="922" y="0" on="1"/>
        <pt x="465" y="567" on="1"/>
        <pt x="465" y="0" on="1"/>
        <pt x="160" y="0" on="1"/>
        <pt x="160" y="1118" on="1"/>
        <pt x="465" y="1118" on="1"/>
        <pt x="465" y="575" on="1"/>
      </contour>
    </TTGlyph>
    <TTGlyph name="afii10077" xMin="0" yMin="-20" xMax="1161" yMax="1118">
      <contour>
        <pt x="1161" y="0" on="1"/>
        <pt x="856" y="0" on="1"/>
        <pt x="856" y="889" on="1"/>
        <pt x="575" y="889" on="1"/>
        <pt x="543" y="514" on="0"/>
        <pt x="451" y="145" on="0"/>
        <pt x="298" y="-20" on="0"/>
        <pt x="174" y="-20" on="1"/>
        <pt x="68" y="-20" on="0"/>
        <pt x="0" y="12" on="1"/>
        <pt x="0" y="256" on="1"/>
        <pt x="49" y="236" on="0"/>
        <pt x="98" y="236" on="1"/>
        <pt x="155" y="236" on="0"/>
        <pt x="232" y="400" on="0"/>
        <pt x="293" y="783" on="0"/>
        <pt x="315" y="1118" on="1"/>
        <pt x="1161" y="1118" on="1"/>
      </contour>
    </TTGlyph>
    <TTGlyph name="afii10078" xMin="160" yMin="0" xMax="1569" yMax="1118">
      <contour>
        <pt x="1569" y="0" on="1"/>
        <pt x="1284" y="0" on="1"/>
        <pt x="1284" y="881" on="1"/>
        <pt x="1268" y="819" on="1"/>
        <pt x="1214" y="608" on="0"/>
        <pt x="1171" y="500" on="1"/>
        <pt x="973" y="0" on="1"/>
        <pt x="756" y="0" on="1"/>
        <pt x="555" y="504" on="1"/>
        <pt x="512" y="614" on="0"/>
        <pt x="463" y="813" on="1"/>
        <pt x="444" y="881" on="1"/>
        <pt x="444" y="0" on="1"/>
        <pt x="160" y="0" on="1"/>
        <pt x="160" y="1118" on="1"/>
        <pt x="580" y="1118" on="1"/>
        <pt x="772" y="641" on="1"/>
        <pt x="802" y="564" on="0"/>
        <pt x="853" y="364" on="0"/>
        <pt x="862" y="293" on="1"/>
        <pt x="895" y="443" on="0"/>
        <pt x="932" y="574" on="0"/>
        <pt x="976" y="684" on="0"/>
        <pt x="1153" y="1118" on="1"/>
        <pt x="1569" y="1118" on="1"/>
      </contour>
    </TTGlyph>
    <TTGlyph name="afii10079" xMin="160" yMin="0" xMax="1196" yMax="1118">
      <contour>
        <pt x="465" y="1118" on="1"/>
        <pt x="465" y="688" on="1"/>
        <pt x="891" y="688" on="1"/>
        <pt x="891" y="1118" on="1"/>
        <pt x="1196" y="1118" on="1"/>
        <pt x="1196" y="0" on="1"/>
        <pt x="891" y="0" on="1"/>
        <pt x="891" y="461" on="1"/>
        <pt x="465" y="461" on="1"/>
        <pt x="465" y="0" on="1"/>
        <pt x="160" y="0" on="1"/>
        <pt x="160" y="1118" on="1"/>
      </contour>
    </TTGlyph>
    <TTGlyph name="afii10080" xMin="92" yMin="-20" xMax="1176" yMax="1139">
      <component glyphName="o" x="0" y="0" flags="0x204"/>
    </TTGlyph>
    <TTGlyph name="afii10081" xMin="160" yMin="0" xMax="1176" yMax="1118">
      <contour>
        <pt x="1176" y="1118" on="1"/>
        <pt x="1176" y="0" on="1"/>
        <pt x="870" y="0" on="1"/>
        <pt x="870" y="889" on="1"/>
        <pt x="465" y="889" on="1"/>
        <pt x="465" y="0" on="1"/>
        <pt x="160" y="0" on="1"/>
        <pt x="160" y="1118" on="1"/>
      </contour>
    </TTGlyph>
    <TTGlyph name="afii10082" xMin="160" yMin="-492" xMax="1204" yMax="1139">
      <component glyphName="p" x="0" y="0" flags="0x204"/>
    </TTGlyph>
    <TTGlyph name="afii10083" xMin="92" yMin="-20" xMax="989" yMax="1139">
      <component glyphName="c" x="0" y="0" flags="0x204"/>
    </TTGlyph>
    <TTGlyph name="afii10084" xMin="47" yMin="0" xMax="1085" yMax="1118">
      <contour>
        <pt x="1085" y="1118" on="1"/>
        <pt x="1085" y="889" on="1"/>
        <pt x="719" y="889" on="1"/>
        <pt x="719" y="0" on="1"/>
        <pt x="414" y="0" on="1"/>
        <pt x="414" y="889" on="1"/>
        <pt x="47" y="889" on="1"/>
        <pt x="47" y="1118" on="1"/>
      </contour>
    </TTGlyph>
    <TTGlyph name="afii10085" xMin="0" yMin="-492" xMax="1165" yMax="1118">
      <component glyphName="y" x="0" y="0" flags="0x204"/>
    </TTGlyph>
    <TTGlyph name="afii10086" xMin="92" yMin="-492" xMax="1575" yMax="1556">
      <contour>
        <pt x="977" y="1124" on="1"/>
        <pt x="1257" y="1101" on="0"/>
        <pt x="1575" y="801" on="0"/>
        <pt x="1575" y="559" on="1"/>
        <pt x="1575" y="312" on="0"/>
        <pt x="1261" y="15" on="0"/>
        <pt x="977" y="-8" on="1"/>
        <pt x="977" y="-492" on="1"/>
        <pt x="694" y="-492" on="1"/>
        <pt x="694" y="-8" on="1"/>
        <pt x="411" y="18" on="0"/>
        <pt x="92" y="321" on="0"/>
        <pt x="92" y="559" on="1"/>
        <pt x="92" y="812" on="0"/>
        <pt x="400" y="1105" on="0"/>
        <pt x="694" y="1124" on="1"/>
        <pt x="694" y="1556" on="1"/>
        <pt x="977" y="1556" on="1"/>
      </contour>
      <contour>
        <pt x="406" y="559" on="1"/>
        <pt x="406" y="418" on="0"/>
        <pt x="560" y="241" on="0"/>
        <pt x="694" y="223" on="1"/>
        <pt x="694" y="895" on="1"/>
        <pt x="565" y="878" on="0"/>
        <pt x="406" y="694" on="0"/>
      </contour>
      <contour>
        <pt x="1262" y="559" on="1"/>
        <pt x="1262" y="691" on="0"/>
        <pt x="1112" y="872" on="0"/>
        <pt x="977" y="891" on="1"/>
        <pt x="977" y="223" on="1"/>
        <pt x="1110" y="241" on="0"/>
        <pt x="1262" y="419" on="0"/>
      </contour>
    </TTGlyph>
    <TTGlyph name="afii10087" xMin="10" yMin="0" xMax="1174" yMax="1118">
      <component glyphName="x" x="0" y="0" flags="0x204"/>
    </TTGlyph>
    <TTGlyph name="afii10088" xMin="160" yMin="-401" xMax="1380" yMax="1118">
      <contour>
        <pt x="1217" y="223" on="1"/>
        <pt x="1380" y="223" on="1"/>
        <pt x="1380" y="-401" on="1"/>
        <pt x="1106" y="-401" on="1"/>
        <pt x="1106" y="0" on="1"/>
        <pt x="160" y="0" on="1"/>
        <pt x="160" y="1118" on="1"/>
        <pt x="465" y="1118" on="1"/>
        <pt x="465" y="229" on="1"/>
        <pt x="911" y="229" on="1"/>
        <pt x="911" y="1118" on="1"/>
        <pt x="1217" y="1118" on="1"/>
      </contour>
    </TTGlyph>
    <TTGlyph name="afii10089" xMin="123" yMin="0" xMax="1184" yMax="1118">
      <contour>
        <pt x="428" y="1118" on="1"/>
        <pt x="428" y="709" on="1"/>
        <pt x="428" y="563" on="0"/>
        <pt x="563" y="563" on="1"/>
        <pt x="651" y="563" on="0"/>
        <pt x="802" y="603" on="0"/>
        <pt x="879" y="635" on="1"/>
        <pt x="879" y="1118" on="1"/>
        <pt x="1184" y="1118" on="1"/>
        <pt x="1184" y="0" on="1"/>
        <pt x="879" y="0" on="1"/>
        <pt x="879" y="444" on="1"/>
        <pt x="773" y="388" on="0"/>
        <pt x="591" y="342" on="0"/>
        <pt x="506" y="342" on="1"/>
        <pt x="323" y="342" on="0"/>
        <pt x="123" y="529" on="0"/>
        <pt x="123" y="702" on="1"/>
        <pt x="123" y="1118" on="1"/>
      </contour>
    </TTGlyph>
    <TTGlyph name="afii10090" xMin="160" yMin="0" xMax="1825" yMax="1118">
      <contour>
        <pt x="1825" y="0" on="1"/>
        <pt x="160" y="0" on="1"/>
        <pt x="160" y="1118" on="1"/>
        <pt x="465" y="1118" on="1"/>
        <pt x="465" y="229" on="1"/>
        <pt x="840" y="229" on="1"/>
        <pt x="840" y="1118" on="1"/>
        <pt x="1145" y="1118" on="1"/>
        <pt x="1145" y="229" on="1"/>
        <pt x="1520" y="229" on="1"/>
        <pt x="1520" y="1118" on="1"/>
        <pt x="1825" y="1118" on="1"/>
      </contour>
    </TTGlyph>
    <TTGlyph name="afii10091" xMin="160" yMin="-401" xMax="1989" yMax="1118">
      <contour>
        <pt x="1825" y="223" on="1"/>
        <pt x="1989" y="223" on="1"/>
        <pt x="1989" y="-401" on="1"/>
        <pt x="1714" y="-401" on="1"/>
        <pt x="1714" y="0" on="1"/>
        <pt x="160" y="0" on="1"/>
        <pt x="160" y="1118" on="1"/>
        <pt x="465" y="1118" on="1"/>
        <pt x="465" y="229" on="1"/>
        <pt x="840" y="229" on="1"/>
        <pt x="840" y="1118" on="1"/>
        <pt x="1145" y="1118" on="1"/>
        <pt x="1145" y="229" on="1"/>
        <pt x="1520" y="229" on="1"/>
        <pt x="1520" y="1118" on="1"/>
        <pt x="1825" y="1118" on="1"/>
      </contour>
    </TTGlyph>
    <TTGlyph name="afii10092" xMin="0" yMin="0" xMax="1382" yMax="1118">
      <contour>
        <pt x="662" y="1118" on="1"/>
        <pt x="662" y="686" on="1"/>
        <pt x="877" y="686" on="1"/>
        <pt x="1135" y="686" on="0"/>
        <pt x="1382" y="522" on="0"/>
        <pt x="1382" y="356" on="1"/>
        <pt x="1382" y="0" on="0"/>
        <pt x="889" y="0" on="1"/>
        <pt x="356" y="0" on="1"/>
        <pt x="356" y="889" on="1"/>
        <pt x="0" y="889" on="1"/>
        <pt x="0" y="1118" on="1"/>
      </contour>
      <contour>
        <pt x="1077" y="352" on="1"/>
        <pt x="1077" y="417" on="0"/>
        <pt x="974" y="475" on="0"/>
        <pt x="870" y="475" on="1"/>
        <pt x="662" y="475" on="1"/>
        <pt x="662" y="211" on="1"/>
        <pt x="874" y="211" on="1"/>
        <pt x="1077" y="211" on="0"/>
      </contour>
    </TTGlyph>
    <TTGlyph name="afii10093" xMin="160" yMin="0" xMax="1581" yMax="1118">
      <contour>
        <pt x="465" y="686" on="1"/>
        <pt x="612" y="686" on="1"/>
        <pt x="868" y="686" on="0"/>
        <pt x="1114" y="522" on="0"/>
        <pt x="1114" y="356" on="1"/>
        <pt x="1114" y="179" on="0"/>
        <pt x="868" y="0" on="0"/>
        <pt x="623" y="0" on="1"/>
        <pt x="160" y="0" on="1"/>
        <pt x="160" y="1118" on="1"/>
        <pt x="465" y="1118" on="1"/>
      </contour>
      <contour>
        <pt x="809" y="352" on="1"/>
        <pt x="809" y="417" on="0"/>
        <pt x="705" y="475" on="0"/>
        <pt x="602" y="475" on="1"/>
        <pt x="465" y="475" on="1"/>
        <pt x="465" y="211" on="1"/>
        <pt x="606" y="211" on="1"/>
        <pt x="809" y="211" on="0"/>
      </contour>
      <contour>
        <pt x="1581" y="0" on="1"/>
        <pt x="1276" y="0" on="1"/>
        <pt x="1276" y="1118" on="1"/>
        <pt x="1581" y="1118" on="1"/>
      </contour>
    </TTGlyph>
    <TTGlyph name="afii10094" xMin="160" yMin="0" xMax="1186" yMax="1118">
      <contour>
        <pt x="465" y="686" on="1"/>
        <pt x="680" y="686" on="1"/>
        <pt x="938" y="686" on="0"/>
        <pt x="1186" y="522" on="0"/>
        <pt x="1186" y="356" on="1"/>
        <pt x="1186" y="0" on="0"/>
        <pt x="692" y="0" on="1"/>
        <pt x="160" y="0" on="1"/>
        <pt x="160" y="1118" on="1"/>
        <pt x="465" y="1118" on="1"/>
      </contour>
      <contour>
        <pt x="881" y="352" on="1"/>
        <pt x="881" y="417" on="0"/>
        <pt x="777" y="475" on="0"/>
        <pt x="674" y="475" on="1"/>
        <pt x="465" y="475" on="1"/>
        <pt x="465" y="211" on="1"/>
        <pt x="678" y="211" on="1"/>
        <pt x="881" y="211" on="0"/>
      </contour>
    </TTGlyph>
    <TTGlyph name="afii10095" xMin="74" yMin="-20" xMax="956" yMax="1139">
      <contour>
        <pt x="418" y="-20" on="1"/>
        <pt x="208" y="-20" on="0"/>
        <pt x="74" y="49" on="1"/>
        <pt x="74" y="287" on="1"/>
        <pt x="248" y="207" on="0"/>
        <pt x="401" y="207" on="1"/>
        <pt x="622" y="207" on="0"/>
        <pt x="641" y="463" on="1"/>
        <pt x="219" y="463" on="1"/>
        <pt x="219" y="666" on="1"/>
        <pt x="641" y="666" on="1"/>
        <pt x="626" y="913" on="0"/>
        <pt x="426" y="913" on="1"/>
        <pt x="307" y="913" on="0"/>
        <pt x="166" y="850" on="1"/>
        <pt x="80" y="1059" on="1"/>
        <pt x="155" y="1094" on="0"/>
        <pt x="344" y="1139" on="0"/>
        <pt x="438" y="1139" on="1"/>
        <pt x="700" y="1139" on="0"/>
        <pt x="956" y="855" on="0"/>
        <pt x="956" y="571" on="1"/>
        <pt x="956" y="279" on="0"/>
        <pt x="685" y="-20" on="0"/>
      </contour>
    </TTGlyph>
    <TTGlyph name="afii10096" xMin="160" yMin="-20" xMax="1704" yMax="1139">
      <contour>
        <pt x="1704" y="561" on="1"/>
        <pt x="1704" y="286" on="0"/>
        <pt x="1426" y="-20" on="0"/>
        <pt x="1180" y="-20" on="1"/>
        <pt x="959" y="-20" on="0"/>
        <pt x="694" y="228" on="0"/>
        <pt x="666" y="461" on="1"/>
        <pt x="465" y="461" on="1"/>
        <pt x="465" y="0" on="1"/>
        <pt x="160" y="0" on="1"/>
        <pt x="160" y="1118" on="1"/>
        <pt x="465" y="1118" on="1"/>
        <pt x="465" y="688" on="1"/>
        <pt x="670" y="688" on="1"/>
        <pt x="699" y="902" on="0"/>
        <pt x="972" y="1139" on="0"/>
        <pt x="1186" y="1139" on="1"/>
        <pt x="1423" y="1139" on="0"/>
        <pt x="1704" y="828" on="0"/>
      </contour>
      <contour>
        <pt x="973" y="561" on="1"/>
        <pt x="973" y="394" on="0"/>
        <pt x="1071" y="225" on="0"/>
        <pt x="1184" y="225" on="1"/>
        <pt x="1295" y="225" on="0"/>
        <pt x="1393" y="394" on="0"/>
        <pt x="1393" y="561" on="1"/>
        <pt x="1393" y="728" on="0"/>
        <pt x="1294" y="893" on="0"/>
        <pt x="1182" y="893" on="1"/>
        <pt x="1071" y="893" on="0"/>
        <pt x="973" y="727" on="0"/>
      </contour>
    </TTGlyph>
    <TTGlyph name="afii10097" xMin="0" yMin="0" xMax="1055" yMax="1118">
      <contour>
        <pt x="330" y="0" on="1"/>
        <pt x="0" y="0" on="1"/>
        <pt x="301" y="442" on="1"/>
        <pt x="193" y="487" on="0"/>
        <pt x="82" y="657" on="0"/>
        <pt x="82" y="772" on="1"/>
        <pt x="82" y="934" on="0"/>
        <pt x="325" y="1118" on="0"/>
        <pt x="535" y="1118" on="1"/>
        <pt x="1055" y="1118" on="1"/>
        <pt x="1055" y="0" on="1"/>
        <pt x="750" y="0" on="1"/>
        <pt x="750" y="416" on="1"/>
        <pt x="582" y="416" on="1"/>
      </contour>
      <contour>
        <pt x="381" y="770" on="1"/>
        <pt x="381" y="700" on="0"/>
        <pt x="491" y="621" on="0"/>
        <pt x="580" y="621" on="1"/>
        <pt x="750" y="621" on="1"/>
        <pt x="750" y="903" on="1"/>
        <pt x="541" y="903" on="1"/>
        <pt x="466" y="903" on="0"/>
        <pt x="381" y="830" on="0"/>
      </contour>
    </TTGlyph>
    <TTGlyph name="afii10098" xMin="160" yMin="0" xMax="975" yMax="1423">
      <contour>
        <pt x="465" y="0" on="1"/>
        <pt x="160" y="0" on="1"/>
        <pt x="160" y="1118" on="1"/>
        <pt x="700" y="1118" on="1"/>
        <pt x="700" y="1423" on="1"/>
        <pt x="975" y="1423" on="1"/>
        <pt x="975" y="889" on="1"/>
        <pt x="465" y="889" on="1"/>
      </contour>
    </TTGlyph>
    <TTGlyph name="afii10099" xMin="4" yMin="-492" xMax="1192" yMax="1556">
      <contour>
        <pt x="829" y="-492" on="1"/>
        <pt x="722" y="-492" on="0"/>
        <pt x="645" y="-467" on="1"/>
        <pt x="645" y="-227" on="1"/>
        <pt x="704" y="-246" on="0"/>
        <pt x="764" y="-246" on="1"/>
        <pt x="887" y="-246" on="0"/>
        <pt x="887" y="-76" on="1"/>
        <pt x="887" y="614" on="1"/>
        <pt x="887" y="724" on="0"/>
        <pt x="793" y="834" on="0"/>
        <pt x="707" y="834" on="1"/>
        <pt x="580" y="834" on="0"/>
        <pt x="465" y="659" on="0"/>
        <pt x="465" y="465" on="1"/>
        <pt x="465" y="0" on="1"/>
        <pt x="160" y="0" on="1"/>
        <pt x="160" y="1196" on="1"/>
        <pt x="4" y="1196" on="1"/>
        <pt x="4" y="1395" on="1"/>
        <pt x="160" y="1395" on="1"/>
        <pt x="160" y="1556" on="1"/>
        <pt x="465" y="1556" on="1"/>
        <pt x="465" y="1395" on="1"/>
        <pt x="780" y="1395" on="1"/>
        <pt x="780" y="1196" on="1"/>
        <pt x="465" y="1196" on="1"/>
        <pt x="465" y="1178" on="1"/>
        <pt x="465" y="1095" on="0"/>
        <pt x="451" y="913" on="1"/>
        <pt x="469" y="913" on="1"/>
        <pt x="571" y="1077" on="0"/>
        <pt x="793" y="1077" on="1"/>
        <pt x="990" y="1077" on="0"/>
        <pt x="1192" y="867" on="0"/>
        <pt x="1192" y="668" on="1"/>
        <pt x="1192" y="-121" on="1"/>
        <pt x="1192" y="-300" on="0"/>
        <pt x="1004" y="-492" on="0"/>
      </contour>
    </TTGlyph>
    <TTGlyph name="afii10100" xMin="160" yMin="0" xMax="938" yMax="1569">
      <component glyphName="afii10068" x="0" y="0" flags="0x204"/>
      <component glyphName="acute" x="29" y="0" flags="0x4"/>
    </TTGlyph>
    <TTGlyph name="afii10101" xMin="92" yMin="-20" xMax="1008" yMax="1139">
      <contour>
        <pt x="653" y="-20" on="1"/>
        <pt x="375" y="-20" on="0"/>
        <pt x="92" y="271" on="0"/>
        <pt x="92" y="553" on="1"/>
        <pt x="92" y="851" on="0"/>
        <pt x="362" y="1139" on="0"/>
        <pt x="651" y="1139" on="1"/>
        <pt x="835" y="1139" on="0"/>
        <pt x="1008" y="1065" on="1"/>
        <pt x="920" y="848" on="1"/>
        <pt x="750" y="913" on="0"/>
        <pt x="643" y="913" on="1"/>
        <pt x="538" y="913" on="0"/>
        <pt x="423" y="791" on="0"/>
        <pt x="408" y="666" on="1"/>
        <pt x="829" y="666" on="1"/>
        <pt x="829" y="463" on="1"/>
        <pt x="408" y="463" on="1"/>
        <pt x="422" y="332" on="0"/>
        <pt x="532" y="207" on="0"/>
        <pt x="635" y="207" on="1"/>
        <pt x="714" y="207" on="0"/>
        <pt x="873" y="243" on="0"/>
        <pt x="975" y="287" on="1"/>
        <pt x="975" y="53" on="1"/>
        <pt x="833" y="-20" on="0"/>
      </contour>
    </TTGlyph>
    <TTGlyph name="afii10102" xMin="92" yMin="-20" xMax="940" yMax="1139">
      <component glyphName="s" x="0" y="0" flags="0x204"/>
    </TTGlyph>
    <TTGlyph name="afii10103" xMin="147" yMin="0" xMax="479" yMax="1556">
      <component glyphName="i" x="0" y="0" flags="0x204"/>
    </TTGlyph>
    <TTGlyph name="afii10104" xMin="-27" yMin="0" xMax="659" yMax="1540">
      <component glyphName="dotlessi" x="0" y="0" flags="0x204"/>
      <component glyphName="dieresis" x="-306" y="0" flags="0x4"/>
    </TTGlyph>
    <TTGlyph name="afii10105" xMin="-131" yMin="-492" xMax="479" yMax="1556">
      <component glyphName="j" x="0" y="0" flags="0x204"/>
    </TTGlyph>
    <TTGlyph name="afii10106" xMin="0" yMin="-20" xMax="1747" yMax="1118">
      <contour>
        <pt x="813" y="0" on="1"/>
        <pt x="813" y="889" on="1"/>
        <pt x="575" y="889" on="1"/>
        <pt x="543" y="514" on="0"/>
        <pt x="451" y="145" on="0"/>
        <pt x="298" y="-20" on="0"/>
        <pt x="174" y="-20" on="1"/>
        <pt x="68" y="-20" on="0"/>
        <pt x="0" y="12" on="1"/>
        <pt x="0" y="256" on="1"/>
        <pt x="49" y="236" on="0"/>
        <pt x="98" y="236" on="1"/>
        <pt x="155" y="236" on="0"/>
        <pt x="232" y="400" on="0"/>
        <pt x="293" y="783" on="0"/>
        <pt x="315" y="1118" on="1"/>
        <pt x="1118" y="1118" on="1"/>
        <pt x="1118" y="686" on="1"/>
        <pt x="1260" y="686" on="1"/>
        <pt x="1508" y="686" on="0"/>
        <pt x="1747" y="522" on="0"/>
        <pt x="1747" y="356" on="1"/>
        <pt x="1747" y="0" on="0"/>
        <pt x="1266" y="0" on="1"/>
      </contour>
      <contour>
        <pt x="1442" y="352" on="1"/>
        <pt x="1442" y="417" on="0"/>
        <pt x="1344" y="475" on="0"/>
        <pt x="1247" y="475" on="1"/>
        <pt x="1118" y="475" on="1"/>
        <pt x="1118" y="211" on="1"/>
        <pt x="1251" y="211" on="1"/>
        <pt x="1442" y="211" on="0"/>
      </contour>
    </TTGlyph>
    <TTGlyph name="afii10107" xMin="160" yMin="0" xMax="1747" yMax="1118">
      <contour>
        <pt x="1118" y="686" on="1"/>
        <pt x="1260" y="686" on="1"/>
        <pt x="1508" y="686" on="0"/>
        <pt x="1747" y="522" on="0"/>
        <pt x="1747" y="356" on="1"/>
        <pt x="1747" y="0" on="0"/>
        <pt x="1266" y="0" on="1"/>
        <pt x="813" y="0" on="1"/>
        <pt x="813" y="461" on="1"/>
        <pt x="465" y="461" on="1"/>
        <pt x="465" y="0" on="1"/>
        <pt x="160" y="0" on="1"/>
        <pt x="160" y="1118" on="1"/>
        <pt x="465" y="1118" on="1"/>
        <pt x="465" y="688" on="1"/>
        <pt x="813" y="688" on="1"/>
        <pt x="813" y="1118" on="1"/>
        <pt x="1118" y="1118" on="1"/>
      </contour>
      <contour>
        <pt x="1442" y="352" on="1"/>
        <pt x="1442" y="417" on="0"/>
        <pt x="1344" y="475" on="0"/>
        <pt x="1247" y="475" on="1"/>
        <pt x="1118" y="475" on="1"/>
        <pt x="1118" y="211" on="1"/>
        <pt x="1251" y="211" on="1"/>
        <pt x="1442" y="211" on="0"/>
      </contour>
    </TTGlyph>
    <TTGlyph name="afii10108" xMin="4" yMin="0" xMax="1192" yMax="1556">
      <contour>
        <pt x="1192" y="0" on="1"/>
        <pt x="887" y="0" on="1"/>
        <pt x="887" y="592" on="1"/>
        <pt x="887" y="834" on="0"/>
        <pt x="707" y="834" on="1"/>
        <pt x="580" y="834" on="0"/>
        <pt x="465" y="659" on="0"/>
        <pt x="465" y="465" on="1"/>
        <pt x="465" y="0" on="1"/>
        <pt x="160" y="0" on="1"/>
        <pt x="160" y="1196" on="1"/>
        <pt x="4" y="1196" on="1"/>
        <pt x="4" y="1395" on="1"/>
        <pt x="160" y="1395" on="1"/>
        <pt x="160" y="1556" on="1"/>
        <pt x="465" y="1556" on="1"/>
        <pt x="465" y="1395" on="1"/>
        <pt x="780" y="1395" on="1"/>
        <pt x="780" y="1196" on="1"/>
        <pt x="465" y="1196" on="1"/>
        <pt x="465" y="1178" on="1"/>
        <pt x="465" y="1095" on="0"/>
        <pt x="451" y="913" on="1"/>
        <pt x="469" y="913" on="1"/>
        <pt x="571" y="1077" on="0"/>
        <pt x="793" y="1077" on="1"/>
        <pt x="990" y="1077" on="0"/>
        <pt x="1192" y="867" on="0"/>
        <pt x="1192" y="668" on="1"/>
      </contour>
    </TTGlyph>
    <TTGlyph name="afii10109" xMin="160" yMin="0" xMax="1268" yMax="1569">
      <component glyphName="afii10076" x="0" y="0" flags="0x204"/>
      <component glyphName="acute" x="174" y="0" flags="0x4"/>
    </TTGlyph>
    <TTGlyph name="afii10110" xMin="0" yMin="-492" xMax="1165" yMax="1599">
      <component glyphName="y" x="0" y="0" flags="0x204"/>
      <component glyphName="glyph00566" x="-5" y="0" flags="0x4"/>
    </TTGlyph>
    <TTGlyph name="afii10145" xMin="184" yMin="-426" xMax="1341" yMax="1462">
      <contour>
        <pt x="1341" y="0" on="1"/>
        <pt x="913" y="0" on="1"/>
        <pt x="913" y="-426" on="1"/>
        <pt x="614" y="-426" on="1"/>
        <pt x="614" y="0" on="1"/>
        <pt x="184" y="0" on="1"/>
        <pt x="184" y="1462" on="1"/>
        <pt x="494" y="1462" on="1"/>
        <pt x="494" y="258" on="1"/>
        <pt x="1032" y="258" on="1"/>
        <pt x="1032" y="1462" on="1"/>
        <pt x="1341" y="1462" on="1"/>
      </contour>
    </TTGlyph>
    <TTGlyph name="afii10146" xMin="0" yMin="0" xMax="1286" yMax="1462">
      <contour>
        <pt x="565" y="1040" on="1"/>
        <pt x="565" y="901" on="1"/>
        <pt x="688" y="901" on="1"/>
        <pt x="974" y="901" on="0"/>
        <pt x="1286" y="669" on="0"/>
        <pt x="1286" y="457" on="1"/>
        <pt x="1286" y="0" on="0"/>
        <pt x="682" y="0" on="1"/>
        <pt x="256" y="0" on="1"/>
        <pt x="256" y="1040" on="1"/>
        <pt x="0" y="1040" on="1"/>
        <pt x="0" y="1270" on="1"/>
        <pt x="256" y="1270" on="1"/>
        <pt x="256" y="1462" on="1"/>
        <pt x="565" y="1462" on="1"/>
        <pt x="565" y="1270" on="1"/>
        <pt x="942" y="1270" on="1"/>
        <pt x="942" y="1040" on="1"/>
      </contour>
      <contour>
        <pt x="565" y="254" on="1"/>
        <pt x="670" y="254" on="1"/>
        <pt x="827" y="254" on="0"/>
        <pt x="973" y="355" on="0"/>
        <pt x="973" y="457" on="1"/>
        <pt x="973" y="558" on="0"/>
        <pt x="825" y="647" on="0"/>
        <pt x="645" y="647" on="1"/>
        <pt x="565" y="647" on="1"/>
      </contour>
    </TTGlyph>
    <TTGlyph name="afii10147" xMin="119" yMin="-20" xMax="1511" yMax="1485">
      <contour>
        <pt x="1511" y="733" on="1"/>
        <pt x="1511" y="370" on="0"/>
        <pt x="1151" y="-20" on="0"/>
        <pt x="815" y="-20" on="1"/>
        <pt x="479" y="-20" on="0"/>
        <pt x="119" y="370" on="0"/>
        <pt x="119" y="735" on="1"/>
        <pt x="119" y="1100" on="0"/>
        <pt x="480" y="1485" on="0"/>
        <pt x="817" y="1485" on="1"/>
        <pt x="1154" y="1485" on="0"/>
        <pt x="1511" y="1097" on="0"/>
      </contour>
      <contour>
        <pt x="815" y="240" on="1"/>
        <pt x="978" y="240" on="0"/>
        <pt x="1167" y="432" on="0"/>
        <pt x="1186" y="621" on="1"/>
        <pt x="442" y="621" on="1"/>
        <pt x="462" y="441" on="0"/>
        <pt x="645" y="240" on="0"/>
      </contour>
      <contour>
        <pt x="817" y="1227" on="1"/>
        <pt x="501" y="1227" on="0"/>
        <pt x="446" y="879" on="1"/>
        <pt x="1182" y="879" on="1"/>
        <pt x="1157" y="1048" on="0"/>
        <pt x="974" y="1227" on="0"/>
      </contour>
    </TTGlyph>
    <TTGlyph name="afii10148" xMin="0" yMin="0" xMax="1446" yMax="1475">
      <contour>
        <pt x="1346" y="1217" on="1"/>
        <pt x="1300" y="1217" on="0"/>
        <pt x="1236" y="1146" on="0"/>
        <pt x="1194" y="1028" on="1"/>
        <pt x="834" y="0" on="1"/>
        <pt x="496" y="0" on="1"/>
        <pt x="0" y="1462" on="1"/>
        <pt x="313" y="1462" on="1"/>
        <pt x="602" y="553" on="1"/>
        <pt x="645" y="393" on="0"/>
        <pt x="666" y="254" on="1"/>
        <pt x="683" y="382" on="0"/>
        <pt x="737" y="553" on="1"/>
        <pt x="907" y="1073" on="1"/>
        <pt x="962" y="1244" on="0"/>
        <pt x="1054" y="1400" on="0"/>
        <pt x="1174" y="1475" on="0"/>
        <pt x="1260" y="1475" on="1"/>
        <pt x="1376" y="1475" on="0"/>
        <pt x="1446" y="1436" on="1"/>
        <pt x="1446" y="1194" on="1"/>
        <pt x="1395" y="1217" on="0"/>
      </contour>
    </TTGlyph>
    <TTGlyph name="afii10193" xMin="160" yMin="-401" xMax="1217" yMax="1118">
      <contour>
        <pt x="160" y="0" on="1"/>
        <pt x="160" y="1118" on="1"/>
        <pt x="465" y="1118" on="1"/>
        <pt x="465" y="229" on="1"/>
        <pt x="911" y="229" on="1"/>
        <pt x="911" y="1118" on="1"/>
        <pt x="1217" y="1118" on="1"/>
        <pt x="1217" y="0" on="1"/>
        <pt x="825" y="0" on="1"/>
        <pt x="825" y="-401" on="1"/>
        <pt x="551" y="-401" on="1"/>
        <pt x="551" y="0" on="1"/>
      </contour>
    </TTGlyph>
    <TTGlyph name="afii10194" xMin="0" yMin="0" xMax="1284" yMax="1319">
      <contour>
        <pt x="563" y="889" on="1"/>
        <pt x="563" y="686" on="1"/>
        <pt x="778" y="686" on="1"/>
        <pt x="1036" y="686" on="0"/>
        <pt x="1284" y="522" on="0"/>
        <pt x="1284" y="356" on="1"/>
        <pt x="1284" y="0" on="0"/>
        <pt x="791" y="0" on="1"/>
        <pt x="258" y="0" on="1"/>
        <pt x="258" y="889" on="1"/>
        <pt x="0" y="889" on="1"/>
        <pt x="0" y="1118" on="1"/>
        <pt x="258" y="1118" on="1"/>
        <pt x="258" y="1319" on="1"/>
        <pt x="563" y="1319" on="1"/>
        <pt x="563" y="1118" on="1"/>
        <pt x="922" y="1118" on="1"/>
        <pt x="922" y="889" on="1"/>
      </contour>
      <contour>
        <pt x="979" y="352" on="1"/>
        <pt x="979" y="417" on="0"/>
        <pt x="875" y="475" on="0"/>
        <pt x="772" y="475" on="1"/>
        <pt x="563" y="475" on="1"/>
        <pt x="563" y="211" on="1"/>
        <pt x="776" y="211" on="1"/>
        <pt x="979" y="211" on="0"/>
      </contour>
    </TTGlyph>
    <TTGlyph name="afii10195" xMin="92" yMin="-20" xMax="1176" yMax="1139">
      <contour>
        <pt x="1176" y="561" on="1"/>
        <pt x="1176" y="288" on="0"/>
        <pt x="888" y="-20" on="0"/>
        <pt x="631" y="-20" on="1"/>
        <pt x="470" y="-20" on="0"/>
        <pt x="224" y="121" on="0"/>
        <pt x="92" y="385" on="0"/>
        <pt x="92" y="561" on="1"/>
        <pt x="92" y="835" on="0"/>
        <pt x="378" y="1139" on="0"/>
        <pt x="637" y="1139" on="1"/>
        <pt x="798" y="1139" on="0"/>
        <pt x="1044" y="999" on="0"/>
        <pt x="1176" y="737" on="0"/>
      </contour>
      <contour>
        <pt x="635" y="225" on="1"/>
        <pt x="830" y="225" on="0"/>
        <pt x="858" y="457" on="1"/>
        <pt x="408" y="457" on="1"/>
        <pt x="423" y="341" on="0"/>
        <pt x="533" y="225" on="0"/>
      </contour>
      <contour>
        <pt x="633" y="893" on="1"/>
        <pt x="438" y="893" on="0"/>
        <pt x="408" y="668" on="1"/>
        <pt x="858" y="668" on="1"/>
        <pt x="844" y="780" on="0"/>
        <pt x="735" y="893" on="0"/>
      </contour>
    </TTGlyph>
    <TTGlyph name="afii10196" xMin="0" yMin="0" xMax="1233" yMax="1126">
      <contour>
        <pt x="0" y="1118" on="1"/>
        <pt x="319" y="1118" on="1"/>
        <pt x="524" y="492" on="1"/>
        <pt x="574" y="329" on="0"/>
        <pt x="582" y="250" on="1"/>
        <pt x="586" y="250" on="1"/>
        <pt x="599" y="361" on="0"/>
        <pt x="643" y="485" on="1"/>
        <pt x="766" y="829" on="1"/>
        <pt x="817" y="971" on="0"/>
        <pt x="893" y="1077" on="0"/>
        <pt x="1000" y="1126" on="0"/>
        <pt x="1085" y="1126" on="1"/>
        <pt x="1161" y="1126" on="0"/>
        <pt x="1233" y="1098" on="1"/>
        <pt x="1233" y="862" on="1"/>
        <pt x="1190" y="881" on="0"/>
        <pt x="1151" y="881" on="1"/>
        <pt x="1119" y="881" on="0"/>
        <pt x="1068" y="837" on="0"/>
        <pt x="1047" y="782" on="1"/>
        <pt x="739" y="0" on="1"/>
        <pt x="428" y="0" on="1"/>
      </contour>
    </TTGlyph>
    <TTGlyph name="afii10846" xMin="88" yMin="-20" xMax="1118" yMax="1139">
      <contour>
        <pt x="588" y="197" on="1"/>
        <pt x="677" y="197" on="0"/>
        <pt x="794" y="310" on="0"/>
        <pt x="803" y="432" on="1"/>
        <pt x="375" y="432" on="1"/>
        <pt x="377" y="320" on="0"/>
        <pt x="488" y="197" on="0"/>
      </contour>
      <contour>
        <pt x="545" y="1139" on="1"/>
        <pt x="817" y="1139" on="0"/>
        <pt x="1118" y="838" on="0"/>
        <pt x="1118" y="567" on="1"/>
        <pt x="1118" y="287" on="0"/>
        <pt x="840" y="-20" on="0"/>
        <pt x="590" y="-20" on="1"/>
        <pt x="354" y="-20" on="0"/>
        <pt x="88" y="247" on="0"/>
        <pt x="88" y="487" on="1"/>
        <pt x="88" y="635" on="1"/>
        <pt x="809" y="635" on="1"/>
        <pt x="804" y="765" on="0"/>
        <pt x="660" y="911" on="0"/>
        <pt x="530" y="911" on="1"/>
        <pt x="435" y="911" on="0"/>
        <pt x="257" y="873" on="0"/>
        <pt x="152" y="823" on="1"/>
        <pt x="152" y="1059" on="1"/>
        <pt x="237" y="1103" on="0"/>
        <pt x="428" y="1139" on="0"/>
      </contour>
    </TTGlyph>
    <TTGlyph name="afii299" xMin="-41" yMin="-272" xMax="434" yMax="1413">
      <contour>
        <pt x="434" y="1194" on="1"/>
        <pt x="213" y="975" on="1"/>
        <pt x="158" y="1028" on="1"/>
        <pt x="289" y="1153" on="1"/>
        <pt x="41" y="1153" on="1"/>
        <pt x="41" y="-272" on="1"/>
        <pt x="-41" y="-272" on="1"/>
        <pt x="-41" y="1233" on="1"/>
        <pt x="289" y="1233" on="1"/>
        <pt x="158" y="1358" on="1"/>
        <pt x="213" y="1413" on="1"/>
      </contour>
    </TTGlyph>
    <TTGlyph name="afii300" xMin="-436" yMin="-272" xMax="41" yMax="1413">
      <contour>
        <pt x="41" y="-272" on="1"/>
        <pt x="-43" y="-272" on="1"/>
        <pt x="-43" y="1153" on="1"/>
        <pt x="-291" y="1153" on="1"/>
        <pt x="-158" y="1028" on="1"/>
        <pt x="-213" y="975" on="1"/>
        <pt x="-436" y="1194" on="1"/>
        <pt x="-213" y="1413" on="1"/>
        <pt x="-158" y="1358" on="1"/>
        <pt x="-291" y="1233" on="1"/>
        <pt x="41" y="1233" on="1"/>
      </contour>
    </TTGlyph>
    <TTGlyph name="afii301" xMin="-223" yMin="-272" xMax="223" yMax="1413">
      <contour>
        <pt x="43" y="-272" on="1"/>
        <pt x="-43" y="-272" on="1"/>
        <pt x="-43" y="1096" on="1"/>
        <pt x="-170" y="969" on="1"/>
        <pt x="-223" y="1024" on="1"/>
        <pt x="-55" y="1192" on="1"/>
        <pt x="-223" y="1358" on="1"/>
        <pt x="-170" y="1413" on="1"/>
        <pt x="0" y="1243" on="1"/>
        <pt x="170" y="1413" on="1"/>
        <pt x="223" y="1358" on="1"/>
        <pt x="55" y="1192" on="1"/>
        <pt x="223" y="1024" on="1"/>
        <pt x="170" y="969" on="1"/>
        <pt x="43" y="1096" on="1"/>
      </contour>
    </TTGlyph>
    <TTGlyph name="afii57929" xMin="25" yMin="961" xMax="420" yMax="1462">
      <component glyphName="quoteright" x="0" y="0" flags="0x204"/>
    </TTGlyph>
    <TTGlyph name="afii61248" xMin="63" yMin="-20" xMax="1565" yMax="1473">
      <contour>
        <pt x="1311" y="1462" on="1"/>
        <pt x="500" y="0" on="1"/>
        <pt x="260" y="0" on="1"/>
        <pt x="1071" y="1462" on="1"/>
      </contour>
      <contour>
        <pt x="1565" y="344" on="1"/>
        <pt x="1565" y="172" on="0"/>
        <pt x="1384" y="-20" on="0"/>
        <pt x="1227" y="-20" on="1"/>
        <pt x="1078" y="-20" on="0"/>
        <pt x="895" y="176" on="0"/>
        <pt x="895" y="344" on="1"/>
        <pt x="895" y="514" on="0"/>
        <pt x="1073" y="707" on="0"/>
        <pt x="1233" y="707" on="1"/>
        <pt x="1383" y="707" on="0"/>
        <pt x="1565" y="508" on="0"/>
      </contour>
      <contour>
        <pt x="1098" y="344" on="1"/>
        <pt x="1098" y="244" on="0"/>
        <pt x="1160" y="143" on="0"/>
        <pt x="1231" y="143" on="1"/>
        <pt x="1299" y="143" on="0"/>
        <pt x="1360" y="244" on="0"/>
        <pt x="1360" y="344" on="1"/>
        <pt x="1360" y="444" on="0"/>
        <pt x="1299" y="543" on="0"/>
        <pt x="1231" y="543" on="1"/>
        <pt x="1160" y="543" on="0"/>
        <pt x="1098" y="444" on="0"/>
      </contour>
      <contour>
        <pt x="420" y="756" on="1"/>
        <pt x="253" y="756" on="0"/>
        <pt x="63" y="940" on="0"/>
        <pt x="63" y="1110" on="1"/>
        <pt x="63" y="1288" on="0"/>
        <pt x="245" y="1473" on="0"/>
        <pt x="418" y="1473" on="1"/>
        <pt x="535" y="1473" on="0"/>
        <pt x="635" y="1423" on="1"/>
        <pt x="580" y="1268" on="1"/>
        <pt x="478" y="1309" on="0"/>
        <pt x="414" y="1309" on="1"/>
        <pt x="341" y="1309" on="0"/>
        <pt x="268" y="1207" on="0"/>
        <pt x="268" y="1112" on="1"/>
        <pt x="268" y="922" on="0"/>
        <pt x="408" y="922" on="1"/>
        <pt x="524" y="922" on="0"/>
        <pt x="614" y="965" on="1"/>
        <pt x="614" y="801" on="1"/>
        <pt x="535" y="756" on="0"/>
      </contour>
    </TTGlyph>
    <TTGlyph name="afii61289" xMin="41" yMin="-18" xMax="991" yMax="1481">
      <contour>
        <pt x="641" y="190" on="1"/>
        <pt x="701" y="190" on="0"/>
        <pt x="778" y="289" on="0"/>
        <pt x="784" y="391" on="1"/>
        <pt x="991" y="391" on="1"/>
        <pt x="980" y="171" on="0"/>
        <pt x="796" y="-18" on="0"/>
        <pt x="610" y="-18" on="1"/>
        <pt x="427" y="-18" on="0"/>
        <pt x="223" y="189" on="0"/>
        <pt x="223" y="385" on="1"/>
        <pt x="223" y="512" on="1"/>
        <pt x="41" y="463" on="1"/>
        <pt x="41" y="659" on="1"/>
        <pt x="139" y="685" on="0"/>
        <pt x="223" y="713" on="1"/>
        <pt x="223" y="1124" on="1"/>
        <pt x="223" y="1308" on="0"/>
        <pt x="411" y="1481" on="0"/>
        <pt x="608" y="1481" on="1"/>
        <pt x="771" y="1481" on="0"/>
        <pt x="961" y="1307" on="0"/>
        <pt x="961" y="1157" on="1"/>
        <pt x="961" y="977" on="0"/>
        <pt x="758" y="720" on="0"/>
        <pt x="516" y="608" on="1"/>
        <pt x="516" y="375" on="1"/>
        <pt x="516" y="190" on="0"/>
      </contour>
      <contour>
        <pt x="698" y="1151" on="1"/>
        <pt x="698" y="1290" on="0"/>
        <pt x="608" y="1290" on="1"/>
        <pt x="555" y="1290" on="0"/>
        <pt x="516" y="1214" on="0"/>
        <pt x="516" y="1151" on="1"/>
        <pt x="516" y="823" on="1"/>
        <pt x="604" y="862" on="0"/>
        <pt x="698" y="1030" on="0"/>
      </contour>
    </TTGlyph>
    <TTGlyph name="afii61352" xMin="135" yMin="0" xMax="2030" yMax="1462">
      <contour>
        <pt x="1231" y="0" on="1"/>
        <pt x="903" y="0" on="1"/>
        <pt x="393" y="1047" on="1"/>
        <pt x="379" y="1047" on="1"/>
        <pt x="403" y="790" on="0"/>
        <pt x="403" y="629" on="1"/>
        <pt x="403" y="0" on="1"/>
        <pt x="135" y="0" on="1"/>
        <pt x="135" y="1462" on="1"/>
        <pt x="465" y="1462" on="1"/>
        <pt x="971" y="422" on="1"/>
        <pt x="989" y="422" on="1"/>
        <pt x="965" y="655" on="0"/>
        <pt x="965" y="825" on="1"/>
        <pt x="965" y="1462" on="1"/>
        <pt x="1231" y="1462" on="1"/>
      </contour>
      <contour>
        <pt x="1370" y="0" on="1"/>
        <pt x="1370" y="188" on="1"/>
        <pt x="2009" y="188" on="1"/>
        <pt x="2009" y="0" on="1"/>
      </contour>
      <contour>
        <pt x="2030" y="639" on="1"/>
        <pt x="2030" y="468" on="0"/>
        <pt x="1846" y="274" on="0"/>
        <pt x="1688" y="274" on="1"/>
        <pt x="1534" y="274" on="0"/>
        <pt x="1350" y="472" on="0"/>
        <pt x="1350" y="639" on="1"/>
        <pt x="1350" y="807" on="0"/>
        <pt x="1530" y="1001" on="0"/>
        <pt x="1692" y="1001" on="1"/>
        <pt x="1846" y="1001" on="0"/>
        <pt x="2030" y="802" on="0"/>
      </contour>
      <contour>
        <pt x="1552" y="639" on="1"/>
        <pt x="1552" y="539" on="0"/>
        <pt x="1617" y="438" on="0"/>
        <pt x="1690" y="438" on="1"/>
        <pt x="1761" y="438" on="0"/>
        <pt x="1825" y="539" on="0"/>
        <pt x="1825" y="639" on="1"/>
        <pt x="1825" y="739" on="0"/>
        <pt x="1761" y="838" on="0"/>
        <pt x="1690" y="838" on="1"/>
        <pt x="1617" y="838" on="0"/>
        <pt x="1552" y="739" on="0"/>
      </contour>
    </TTGlyph>
    <TTGlyph name="afii61573" xMin="-238" yMin="-272" xMax="238" yMax="1411">
      <contour>
        <pt x="238" y="977" on="1"/>
        <pt x="43" y="977" on="1"/>
        <pt x="43" y="-272" on="1"/>
        <pt x="-43" y="-272" on="1"/>
        <pt x="-43" y="977" on="1"/>
        <pt x="-238" y="977" on="1"/>
        <pt x="-238" y="1411" on="1"/>
        <pt x="238" y="1411" on="1"/>
      </contour>
    </TTGlyph>
    <TTGlyph name="afii61574" xMin="-238" yMin="-272" xMax="238" yMax="1411">
      <contour>
        <pt x="238" y="977" on="1"/>
        <pt x="43" y="977" on="1"/>
        <pt x="43" y="-272" on="1"/>
        <pt x="-43" y="-272" on="1"/>
        <pt x="-43" y="977" on="1"/>
        <pt x="-238" y="977" on="1"/>
        <pt x="-238" y="1411" on="1"/>
        <pt x="238" y="1411" on="1"/>
        <pt x="238" y="1331" on="1"/>
        <pt x="-158" y="1331" on="1"/>
        <pt x="-158" y="1055" on="1"/>
        <pt x="238" y="1055" on="1"/>
      </contour>
    </TTGlyph>
    <TTGlyph name="afii61575" xMin="-238" yMin="-272" xMax="238" yMax="1411">
      <contour>
        <pt x="-238" y="1055" on="1"/>
        <pt x="158" y="1055" on="1"/>
        <pt x="158" y="1331" on="1"/>
        <pt x="-238" y="1331" on="1"/>
        <pt x="-238" y="1411" on="1"/>
        <pt x="238" y="1411" on="1"/>
        <pt x="238" y="977" on="1"/>
        <pt x="43" y="977" on="1"/>
        <pt x="43" y="-272" on="1"/>
        <pt x="-43" y="-272" on="1"/>
        <pt x="-43" y="977" on="1"/>
        <pt x="-238" y="977" on="1"/>
      </contour>
    </TTGlyph>
    <TTGlyph name="afii61664" xMin="-43" yMin="-272" xMax="43" yMax="1286">
      <contour>
        <pt x="43" y="1286" on="1"/>
        <pt x="43" y="-272" on="1"/>
        <pt x="-43" y="-272" on="1"/>
        <pt x="-43" y="1286" on="1"/>
      </contour>
    </TTGlyph>
    <TTGlyph name="afii64937" xMin="25" yMin="961" xMax="420" yMax="1462">
      <component glyphName="quotereversed" x="0" y="0" flags="0x4"/>
    </TTGlyph>
    <TTGlyph name="agrave" xMin="86" yMin="-20" xMax="1083" yMax="1569">
      <component glyphName="a" x="0" y="0" flags="0x204"/>
      <component glyphName="grave" x="-93" y="0" flags="0x4"/>
    </TTGlyph>
    <TTGlyph name="alpha" xMin="92" yMin="-20" xMax="1280" yMax="1137">
      <contour>
        <pt x="623" y="223" on="1"/>
        <pt x="741" y="223" on="0"/>
        <pt x="848" y="366" on="0"/>
        <pt x="852" y="545" on="1"/>
        <pt x="852" y="557" on="1"/>
        <pt x="852" y="737" on="0"/>
        <pt x="741" y="893" on="0"/>
        <pt x="618" y="893" on="1"/>
        <pt x="403" y="893" on="0"/>
        <pt x="403" y="553" on="1"/>
        <pt x="403" y="388" on="0"/>
        <pt x="510" y="223" on="0"/>
      </contour>
      <contour>
        <pt x="530" y="-20" on="1"/>
        <pt x="325" y="-20" on="0"/>
        <pt x="92" y="284" on="0"/>
        <pt x="92" y="555" on="1"/>
        <pt x="92" y="833" on="0"/>
        <pt x="335" y="1137" on="0"/>
        <pt x="553" y="1137" on="1"/>
        <pt x="671" y="1137" on="0"/>
        <pt x="824" y="1053" on="0"/>
        <pt x="874" y="969" on="1"/>
        <pt x="889" y="969" on="1"/>
        <pt x="913" y="1063" on="0"/>
        <pt x="956" y="1118" on="1"/>
        <pt x="1208" y="1118" on="1"/>
        <pt x="1176" y="1021" on="0"/>
        <pt x="1137" y="770" on="0"/>
        <pt x="1137" y="666" on="1"/>
        <pt x="1137" y="354" on="1"/>
        <pt x="1137" y="236" on="0"/>
        <pt x="1221" y="236" on="1"/>
        <pt x="1253" y="236" on="0"/>
        <pt x="1280" y="246" on="1"/>
        <pt x="1280" y="6" on="1"/>
        <pt x="1264" y="-4" on="0"/>
        <pt x="1173" y="-20" on="0"/>
        <pt x="1143" y="-20" on="1"/>
        <pt x="1031" y="-20" on="0"/>
        <pt x="913" y="57" on="0"/>
        <pt x="879" y="147" on="1"/>
        <pt x="858" y="147" on="1"/>
        <pt x="748" y="-20" on="0"/>
      </contour>
    </TTGlyph>
    <TTGlyph name="alphatonos" xMin="92" yMin="-20" xMax="1280" yMax="1630">
      <component glyphName="alpha" x="0" y="0" flags="0x204"/>
      <component glyphName="tonos" x="49" y="0" flags="0x4"/>
    </TTGlyph>
    <TTGlyph name="amacron" xMin="86" yMin="-20" xMax="1083" yMax="1452">
      <component glyphName="a" x="0" y="0" flags="0x204"/>
      <component glyphName="uni02C9" x="10" y="0" flags="0x4"/>
    </TTGlyph>
    <TTGlyph name="ampersand" xMin="82" yMin="-20" xMax="1536" yMax="1483">
      <contour>
        <pt x="1536" y="0" on="1"/>
        <pt x="1159" y="0" on="1"/>
        <pt x="1044" y="113" on="1"/>
        <pt x="853" y="-20" on="0"/>
        <pt x="612" y="-20" on="1"/>
        <pt x="368" y="-20" on="0"/>
        <pt x="82" y="204" on="0"/>
        <pt x="82" y="395" on="1"/>
        <pt x="82" y="532" on="0"/>
        <pt x="203" y="725" on="0"/>
        <pt x="350" y="809" on="1"/>
        <pt x="275" y="895" on="0"/>
        <pt x="207" y="1052" on="0"/>
        <pt x="207" y="1145" on="1"/>
        <pt x="207" y="1297" on="0"/>
        <pt x="440" y="1483" on="0"/>
        <pt x="635" y="1483" on="1"/>
        <pt x="821" y="1483" on="0"/>
        <pt x="1044" y="1310" on="0"/>
        <pt x="1044" y="1165" on="1"/>
        <pt x="1044" y="1046" on="0"/>
        <pt x="906" y="849" on="0"/>
        <pt x="752" y="760" on="1"/>
        <pt x="1036" y="483" on="1"/>
        <pt x="1107" y="600" on="0"/>
        <pt x="1159" y="784" on="1"/>
        <pt x="1477" y="784" on="1"/>
        <pt x="1441" y="649" on="0"/>
        <pt x="1315" y="392" on="0"/>
        <pt x="1235" y="293" on="1"/>
      </contour>
      <contour>
        <pt x="403" y="424" on="1"/>
        <pt x="403" y="338" on="0"/>
        <pt x="532" y="236" on="0"/>
        <pt x="633" y="236" on="1"/>
        <pt x="759" y="236" on="0"/>
        <pt x="860" y="297" on="1"/>
        <pt x="528" y="627" on="1"/>
        <pt x="470" y="583" on="0"/>
        <pt x="403" y="487" on="0"/>
      </contour>
      <contour>
        <pt x="762" y="1133" on="1"/>
        <pt x="762" y="1186" on="0"/>
        <pt x="690" y="1247" on="0"/>
        <pt x="633" y="1247" on="1"/>
        <pt x="566" y="1247" on="0"/>
        <pt x="489" y="1183" on="0"/>
        <pt x="489" y="1124" on="1"/>
        <pt x="489" y="1036" on="0"/>
        <pt x="584" y="930" on="1"/>
        <pt x="670" y="978" on="0"/>
        <pt x="762" y="1071" on="0"/>
      </contour>
    </TTGlyph>
    <TTGlyph name="anoteleia" xMin="117" yMin="551" xMax="467" yMax="891">
      <component glyphName="period" x="0" y="578" flags="0x4"/>
    </TTGlyph>
    <TTGlyph name="aogonek" xMin="86" yMin="-492" xMax="1100" yMax="1141">
      <component glyphName="a" x="0" y="0" flags="0x204"/>
      <component glyphName="ogonek" x="684" y="0" flags="0x4"/>
    </TTGlyph>
    <TTGlyph name="approxequal" xMin="88" yMin="349" xMax="1081" yMax="1090">
      <component glyphName="asciitilde" x="0" y="197" flags="0x4"/>
      <component glyphName="asciitilde" x="0" y="-202" flags="0x4"/>
    </TTGlyph>
    <TTGlyph name="aring" xMin="86" yMin="-20" xMax="1083" yMax="1714">
      <component glyphName="a" x="0" y="0" flags="0x204"/>
      <component glyphName="ring" x="41" y="0" flags="0x4"/>
    </TTGlyph>
    <TTGlyph name="aringacute" xMin="86" yMin="-20" xMax="1083" yMax="1962">
      <contour>
        <pt x="471" y="1753" on="1"/>
        <pt x="471" y="1769" on="1"/>
        <pt x="517" y="1811" on="0"/>
        <pt x="623" y="1931" on="0"/>
        <pt x="645" y="1962" on="1"/>
        <pt x="987" y="1962" on="1"/>
        <pt x="987" y="1950" on="1"/>
        <pt x="966" y="1926" on="0"/>
        <pt x="802" y="1821" on="0"/>
        <pt x="674" y="1753" on="1"/>
      </contour>
      <contour>
        <pt x="870" y="0" on="1"/>
        <pt x="811" y="152" on="1"/>
        <pt x="803" y="152" on="1"/>
        <pt x="726" y="55" on="0"/>
        <pt x="563" y="-20" on="0"/>
        <pt x="432" y="-20" on="1"/>
        <pt x="271" y="-20" on="0"/>
        <pt x="86" y="164" on="0"/>
        <pt x="86" y="334" on="1"/>
        <pt x="86" y="512" on="0"/>
        <pt x="335" y="681" on="0"/>
        <pt x="586" y="690" on="1"/>
        <pt x="780" y="696" on="1"/>
        <pt x="780" y="745" on="1"/>
        <pt x="780" y="915" on="0"/>
        <pt x="606" y="915" on="1"/>
        <pt x="472" y="915" on="0"/>
        <pt x="291" y="834" on="1"/>
        <pt x="190" y="1040" on="1"/>
        <pt x="383" y="1141" on="0"/>
        <pt x="618" y="1141" on="1"/>
        <pt x="843" y="1141" on="0"/>
        <pt x="1083" y="945" on="0"/>
        <pt x="1083" y="745" on="1"/>
        <pt x="1083" y="0" on="1"/>
      </contour>
      <contour>
        <pt x="780" y="518" on="1"/>
        <pt x="662" y="514" on="1"/>
        <pt x="529" y="510" on="0"/>
        <pt x="399" y="422" on="0"/>
        <pt x="399" y="332" on="1"/>
        <pt x="399" y="203" on="0"/>
        <pt x="547" y="203" on="1"/>
        <pt x="653" y="203" on="0"/>
        <pt x="780" y="325" on="0"/>
        <pt x="780" y="426" on="1"/>
      </contour>
      <contour>
        <pt x="881" y="1438" on="1"/>
        <pt x="881" y="1330" on="0"/>
        <pt x="739" y="1198" on="0"/>
        <pt x="627" y="1198" on="1"/>
        <pt x="515" y="1198" on="0"/>
        <pt x="379" y="1326" on="0"/>
        <pt x="379" y="1436" on="1"/>
        <pt x="379" y="1544" on="0"/>
        <pt x="514" y="1673" on="0"/>
        <pt x="627" y="1673" on="1"/>
        <pt x="737" y="1673" on="0"/>
        <pt x="881" y="1541" on="0"/>
      </contour>
      <contour>
        <pt x="723" y="1436" on="1"/>
        <pt x="723" y="1481" on="0"/>
        <pt x="669" y="1532" on="0"/>
        <pt x="627" y="1532" on="1"/>
        <pt x="585" y="1532" on="0"/>
        <pt x="530" y="1481" on="0"/>
        <pt x="530" y="1436" on="1"/>
        <pt x="530" y="1391" on="0"/>
        <pt x="579" y="1339" on="0"/>
        <pt x="627" y="1339" on="1"/>
        <pt x="669" y="1339" on="0"/>
        <pt x="723" y="1391" on="0"/>
      </contour>
    </TTGlyph>
    <TTGlyph name="arrowboth" xMin="418" yMin="100" xMax="1630" yMax="580">
      <contour>
        <pt x="641" y="297" on="1"/>
        <pt x="698" y="229" on="0"/>
        <pt x="760" y="100" on="1"/>
        <pt x="688" y="100" on="1"/>
        <pt x="561" y="250" on="0"/>
        <pt x="418" y="322" on="1"/>
        <pt x="418" y="358" on="1"/>
        <pt x="561" y="430" on="0"/>
        <pt x="688" y="580" on="1"/>
        <pt x="760" y="580" on="1"/>
        <pt x="698" y="451" on="0"/>
        <pt x="641" y="383" on="1"/>
        <pt x="1407" y="383" on="1"/>
        <pt x="1350" y="451" on="0"/>
        <pt x="1288" y="580" on="1"/>
        <pt x="1360" y="580" on="1"/>
        <pt x="1487" y="430" on="0"/>
        <pt x="1630" y="358" on="1"/>
        <pt x="1630" y="322" on="1"/>
        <pt x="1487" y="250" on="0"/>
        <pt x="1360" y="100" on="1"/>
        <pt x="1288" y="100" on="1"/>
        <pt x="1350" y="229" on="0"/>
        <pt x="1407" y="297" on="1"/>
      </contour>
    </TTGlyph>
    <TTGlyph name="arrowdown" xMin="272" yMin="-61" xMax="752" yMax="1151">
      <contour>
        <pt x="555" y="162" on="1"/>
        <pt x="623" y="219" on="0"/>
        <pt x="752" y="281" on="1"/>
        <pt x="752" y="209" on="1"/>
        <pt x="602" y="82" on="0"/>
        <pt x="530" y="-61" on="1"/>
        <pt x="494" y="-61" on="1"/>
        <pt x="422" y="82" on="0"/>
        <pt x="272" y="209" on="1"/>
        <pt x="272" y="281" on="1"/>
        <pt x="401" y="219" on="0"/>
        <pt x="469" y="162" on="1"/>
        <pt x="469" y="1151" on="1"/>
        <pt x="555" y="1151" on="1"/>
      </contour>
    </TTGlyph>
    <TTGlyph name="arrowleft" xMin="418" yMin="100" xMax="1630" yMax="580">
      <contour>
        <pt x="641" y="297" on="1"/>
        <pt x="698" y="229" on="0"/>
        <pt x="760" y="100" on="1"/>
        <pt x="688" y="100" on="1"/>
        <pt x="561" y="250" on="0"/>
        <pt x="418" y="322" on="1"/>
        <pt x="418" y="358" on="1"/>
        <pt x="561" y="430" on="0"/>
        <pt x="688" y="580" on="1"/>
        <pt x="760" y="580" on="1"/>
        <pt x="698" y="451" on="0"/>
        <pt x="641" y="383" on="1"/>
        <pt x="1630" y="383" on="1"/>
        <pt x="1630" y="297" on="1"/>
      </contour>
    </TTGlyph>
    <TTGlyph name="arrowright" xMin="418" yMin="100" xMax="1630" yMax="580">
      <contour>
        <pt x="1407" y="383" on="1"/>
        <pt x="1350" y="451" on="0"/>
        <pt x="1288" y="580" on="1"/>
        <pt x="1360" y="580" on="1"/>
        <pt x="1487" y="430" on="0"/>
        <pt x="1630" y="358" on="1"/>
        <pt x="1630" y="322" on="1"/>
        <pt x="1487" y="250" on="0"/>
        <pt x="1360" y="100" on="1"/>
        <pt x="1288" y="100" on="1"/>
        <pt x="1350" y="229" on="0"/>
        <pt x="1407" y="297" on="1"/>
        <pt x="418" y="297" on="1"/>
        <pt x="418" y="383" on="1"/>
      </contour>
    </TTGlyph>
    <TTGlyph name="arrowup" xMin="272" yMin="-61" xMax="752" yMax="1151">
      <contour>
        <pt x="469" y="928" on="1"/>
        <pt x="401" y="870" on="0"/>
        <pt x="272" y="809" on="1"/>
        <pt x="272" y="881" on="1"/>
        <pt x="422" y="1008" on="0"/>
        <pt x="494" y="1151" on="1"/>
        <pt x="530" y="1151" on="1"/>
        <pt x="602" y="1008" on="0"/>
        <pt x="752" y="881" on="1"/>
        <pt x="752" y="809" on="1"/>
        <pt x="623" y="870" on="0"/>
        <pt x="555" y="928" on="1"/>
        <pt x="555" y="-61" on="1"/>
        <pt x="469" y="-61" on="1"/>
      </contour>
    </TTGlyph>
    <TTGlyph name="arrowupdn" xMin="272" yMin="-61" xMax="752" yMax="1151">
      <contour>
        <pt x="469" y="928" on="1"/>
        <pt x="401" y="870" on="0"/>
        <pt x="272" y="809" on="1"/>
        <pt x="272" y="881" on="1"/>
        <pt x="422" y="1008" on="0"/>
        <pt x="494" y="1151" on="1"/>
        <pt x="530" y="1151" on="1"/>
        <pt x="602" y="1008" on="0"/>
        <pt x="752" y="881" on="1"/>
        <pt x="752" y="809" on="1"/>
        <pt x="623" y="870" on="0"/>
        <pt x="555" y="928" on="1"/>
        <pt x="555" y="162" on="1"/>
        <pt x="623" y="219" on="0"/>
        <pt x="752" y="281" on="1"/>
        <pt x="752" y="209" on="1"/>
        <pt x="602" y="82" on="0"/>
        <pt x="530" y="-61" on="1"/>
        <pt x="494" y="-61" on="1"/>
        <pt x="422" y="82" on="0"/>
        <pt x="272" y="209" on="1"/>
        <pt x="272" y="281" on="1"/>
        <pt x="401" y="219" on="0"/>
        <pt x="469" y="162" on="1"/>
      </contour>
    </TTGlyph>
    <TTGlyph name="arrowupdnbse" xMin="272" yMin="-184" xMax="752" yMax="1151">
      <contour>
        <pt x="272" y="-104" on="1"/>
        <pt x="752" y="-104" on="1"/>
        <pt x="752" y="-184" on="1"/>
        <pt x="272" y="-184" on="1"/>
      </contour>
      <contour>
        <pt x="469" y="928" on="1"/>
        <pt x="401" y="870" on="0"/>
        <pt x="272" y="809" on="1"/>
        <pt x="272" y="881" on="1"/>
        <pt x="422" y="1008" on="0"/>
        <pt x="494" y="1151" on="1"/>
        <pt x="530" y="1151" on="1"/>
        <pt x="602" y="1008" on="0"/>
        <pt x="752" y="881" on="1"/>
        <pt x="752" y="809" on="1"/>
        <pt x="623" y="870" on="0"/>
        <pt x="555" y="928" on="1"/>
        <pt x="555" y="162" on="1"/>
        <pt x="623" y="219" on="0"/>
        <pt x="752" y="281" on="1"/>
        <pt x="752" y="209" on="1"/>
        <pt x="602" y="82" on="0"/>
        <pt x="530" y="-61" on="1"/>
        <pt x="494" y="-61" on="1"/>
        <pt x="422" y="82" on="0"/>
        <pt x="272" y="209" on="1"/>
        <pt x="272" y="281" on="1"/>
        <pt x="401" y="219" on="0"/>
        <pt x="469" y="162" on="1"/>
      </contour>
    </TTGlyph>
    <TTGlyph name="asciicircum" xMin="47" yMin="520" xMax="1124" yMax="1470">
      <contour>
        <pt x="47" y="520" on="1"/>
        <pt x="485" y="1470" on="1"/>
        <pt x="629" y="1470" on="1"/>
        <pt x="1124" y="520" on="1"/>
        <pt x="885" y="520" on="1"/>
        <pt x="563" y="1163" on="1"/>
        <pt x="283" y="520" on="1"/>
      </contour>
    </TTGlyph>
    <TTGlyph name="asciitilde" xMin="88" yMin="551" xMax="1081" yMax="893">
      <contour>
        <pt x="322" y="672" on="1"/>
        <pt x="267" y="672" on="0"/>
        <pt x="142" y="605" on="0"/>
        <pt x="88" y="551" on="1"/>
        <pt x="88" y="782" on="1"/>
        <pt x="191" y="891" on="0"/>
        <pt x="344" y="891" on="1"/>
        <pt x="417" y="891" on="0"/>
        <pt x="546" y="859" on="0"/>
        <pt x="621" y="827" on="1"/>
        <pt x="750" y="772" on="0"/>
        <pt x="848" y="772" on="1"/>
        <pt x="901" y="772" on="0"/>
        <pt x="1027" y="836" on="0"/>
        <pt x="1081" y="893" on="1"/>
        <pt x="1081" y="662" on="1"/>
        <pt x="980" y="553" on="0"/>
        <pt x="825" y="553" on="1"/>
        <pt x="759" y="553" on="0"/>
        <pt x="639" y="579" on="0"/>
        <pt x="549" y="616" on="1"/>
        <pt x="418" y="672" on="0"/>
      </contour>
    </TTGlyph>
    <TTGlyph name="asterisk" xMin="63" yMin="598" xMax="1053" yMax="1556">
      <contour>
        <pt x="688" y="1556" on="1"/>
        <pt x="647" y="1188" on="1"/>
        <pt x="1020" y="1292" on="1"/>
        <pt x="1053" y="1040" on="1"/>
        <pt x="713" y="1016" on="1"/>
        <pt x="936" y="719" on="1"/>
        <pt x="709" y="598" on="1"/>
        <pt x="553" y="911" on="1"/>
        <pt x="416" y="600" on="1"/>
        <pt x="180" y="719" on="1"/>
        <pt x="401" y="1016" on="1"/>
        <pt x="63" y="1042" on="1"/>
        <pt x="102" y="1292" on="1"/>
        <pt x="467" y="1188" on="1"/>
        <pt x="426" y="1556" on="1"/>
      </contour>
    </TTGlyph>
    <TTGlyph name="at" xMin="102" yMin="-172" xMax="1735" yMax="1462">
      <contour>
        <pt x="1735" y="733" on="1"/>
        <pt x="1735" y="589" on="0"/>
        <pt x="1643" y="349" on="0"/>
        <pt x="1475" y="215" on="0"/>
        <pt x="1364" y="215" on="1"/>
        <pt x="1290" y="215" on="0"/>
        <pt x="1175" y="286" on="0"/>
        <pt x="1151" y="344" on="1"/>
        <pt x="1135" y="344" on="1"/>
        <pt x="1086" y="284" on="0"/>
        <pt x="946" y="215" on="0"/>
        <pt x="860" y="215" on="1"/>
        <pt x="683" y="215" on="0"/>
        <pt x="479" y="428" on="0"/>
        <pt x="479" y="612" on="1"/>
        <pt x="479" y="821" on="0"/>
        <pt x="744" y="1081" on="0"/>
        <pt x="963" y="1081" on="1"/>
        <pt x="1044" y="1081" on="0"/>
        <pt x="1256" y="1050" on="0"/>
        <pt x="1323" y="1026" on="1"/>
        <pt x="1300" y="537" on="1"/>
        <pt x="1300" y="397" on="0"/>
        <pt x="1376" y="397" on="1"/>
        <pt x="1440" y="397" on="0"/>
        <pt x="1516" y="584" on="0"/>
        <pt x="1516" y="735" on="1"/>
        <pt x="1516" y="896" on="0"/>
        <pt x="1383" y="1143" on="0"/>
        <pt x="1140" y="1274" on="0"/>
        <pt x="983" y="1274" on="1"/>
        <pt x="782" y="1274" on="0"/>
        <pt x="482" y="1106" on="0"/>
        <pt x="324" y="794" on="0"/>
        <pt x="324" y="590" on="1"/>
        <pt x="324" y="313" on="0"/>
        <pt x="619" y="18" on="0"/>
        <pt x="899" y="18" on="1"/>
        <pt x="1011" y="18" on="0"/>
        <pt x="1267" y="68" on="0"/>
        <pt x="1382" y="111" on="1"/>
        <pt x="1382" y="-82" on="1"/>
        <pt x="1170" y="-172" on="0"/>
        <pt x="907" y="-172" on="1"/>
        <pt x="527" y="-172" on="0"/>
        <pt x="102" y="228" on="0"/>
        <pt x="102" y="584" on="1"/>
        <pt x="102" y="831" on="0"/>
        <pt x="321" y="1235" on="0"/>
        <pt x="723" y="1462" on="0"/>
        <pt x="981" y="1462" on="1"/>
        <pt x="1201" y="1462" on="0"/>
        <pt x="1547" y="1282" on="0"/>
        <pt x="1735" y="950" on="0"/>
      </contour>
      <contour>
        <pt x="711" y="608" on="1"/>
        <pt x="711" y="397" on="0"/>
        <pt x="883" y="397" on="1"/>
        <pt x="972" y="397" on="0"/>
        <pt x="1067" y="524" on="0"/>
        <pt x="1077" y="668" on="1"/>
        <pt x="1090" y="889" on="1"/>
        <pt x="1044" y="899" on="0"/>
        <pt x="975" y="899" on="1"/>
        <pt x="850" y="899" on="0"/>
        <pt x="711" y="743" on="0"/>
      </contour>
    </TTGlyph>
    <TTGlyph name="atilde" xMin="86" yMin="-20" xMax="1083" yMax="1550">
      <component glyphName="a" x="0" y="0" flags="0x204"/>
      <component glyphName="tilde" x="10" y="0" flags="0x4"/>
    </TTGlyph>
    <TTGlyph name="b" xMin="160" yMin="-20" xMax="1204" yMax="1556">
      <contour>
        <pt x="782" y="1139" on="1"/>
        <pt x="980" y="1139" on="0"/>
        <pt x="1204" y="830" on="0"/>
        <pt x="1204" y="561" on="1"/>
        <pt x="1204" y="284" on="0"/>
        <pt x="973" y="-20" on="0"/>
        <pt x="774" y="-20" on="1"/>
        <pt x="577" y="-20" on="0"/>
        <pt x="465" y="123" on="1"/>
        <pt x="444" y="123" on="1"/>
        <pt x="393" y="0" on="1"/>
        <pt x="160" y="0" on="1"/>
        <pt x="160" y="1556" on="1"/>
        <pt x="465" y="1556" on="1"/>
        <pt x="465" y="1194" on="1"/>
        <pt x="465" y="1125" on="0"/>
        <pt x="453" y="973" on="1"/>
        <pt x="465" y="973" on="1"/>
        <pt x="572" y="1139" on="0"/>
      </contour>
      <contour>
        <pt x="684" y="895" on="1"/>
        <pt x="571" y="895" on="0"/>
        <pt x="467" y="756" on="0"/>
        <pt x="465" y="596" on="1"/>
        <pt x="465" y="563" on="1"/>
        <pt x="465" y="383" on="0"/>
        <pt x="572" y="227" on="0"/>
        <pt x="688" y="227" on="1"/>
        <pt x="782" y="227" on="0"/>
        <pt x="893" y="400" on="0"/>
        <pt x="893" y="565" on="1"/>
        <pt x="893" y="730" on="0"/>
        <pt x="781" y="895" on="0"/>
      </contour>
    </TTGlyph>
    <TTGlyph name="backslash" xMin="12" yMin="0" xMax="834" yMax="1462">
      <contour>
        <pt x="289" y="1462" on="1"/>
        <pt x="834" y="0" on="1"/>
        <pt x="557" y="0" on="1"/>
        <pt x="12" y="1462" on="1"/>
      </contour>
    </TTGlyph>
    <TTGlyph name="bar" xMin="455" yMin="-465" xMax="674" yMax="1550">
      <contour>
        <pt x="455" y="1550" on="1"/>
        <pt x="674" y="1550" on="1"/>
        <pt x="674" y="-465" on="1"/>
        <pt x="455" y="-465" on="1"/>
      </contour>
    </TTGlyph>
    <TTGlyph name="beta" xMin="160" yMin="-492" xMax="1280" yMax="1567">
      <contour>
        <pt x="694" y="1567" on="1"/>
        <pt x="929" y="1567" on="0"/>
        <pt x="1200" y="1359" on="0"/>
        <pt x="1200" y="1174" on="1"/>
        <pt x="1200" y="1025" on="0"/>
        <pt x="1048" y="852" on="0"/>
        <pt x="907" y="829" on="1"/>
        <pt x="907" y="823" on="1"/>
        <pt x="1095" y="799" on="0"/>
        <pt x="1280" y="606" on="0"/>
        <pt x="1280" y="432" on="1"/>
        <pt x="1280" y="222" on="0"/>
        <pt x="1019" y="-20" on="0"/>
        <pt x="791" y="-20" on="1"/>
        <pt x="591" y="-20" on="0"/>
        <pt x="465" y="43" on="1"/>
        <pt x="465" y="-492" on="1"/>
        <pt x="160" y="-492" on="1"/>
        <pt x="160" y="1096" on="1"/>
        <pt x="160" y="1320" on="0"/>
        <pt x="440" y="1567" on="0"/>
      </contour>
      <contour>
        <pt x="686" y="1329" on="1"/>
        <pt x="465" y="1329" on="0"/>
        <pt x="465" y="1067" on="1"/>
        <pt x="465" y="293" on="1"/>
        <pt x="513" y="262" on="0"/>
        <pt x="653" y="223" on="0"/>
        <pt x="713" y="223" on="1"/>
        <pt x="841" y="223" on="0"/>
        <pt x="965" y="347" on="0"/>
        <pt x="965" y="459" on="1"/>
        <pt x="965" y="569" on="0"/>
        <pt x="832" y="684" on="0"/>
        <pt x="705" y="684" on="1"/>
        <pt x="633" y="684" on="1"/>
        <pt x="633" y="926" on="1"/>
        <pt x="686" y="926" on="1"/>
        <pt x="785" y="926" on="0"/>
        <pt x="895" y="1035" on="0"/>
        <pt x="895" y="1137" on="1"/>
        <pt x="895" y="1229" on="0"/>
        <pt x="785" y="1329" on="0"/>
      </contour>
    </TTGlyph>
    <TTGlyph name="block" xMin="0" yMin="-492" xMax="1450" yMax="1993">
      <contour>
        <pt x="1450" y="-492" on="1"/>
        <pt x="0" y="-492" on="1"/>
        <pt x="0" y="1993" on="1"/>
        <pt x="1450" y="1993" on="1"/>
      </contour>
    </TTGlyph>
</ttFont>
